<mxfile host="app.diagrams.net" modified="2023-10-02T12:02:47.877Z" agent="Mozilla/5.0 (Windows NT 10.0; Win64; x64) AppleWebKit/537.36 (KHTML, like Gecko) Chrome/117.0.0.0 Safari/537.36" etag="MAu01iK91kqrpG_L_8aH" version="22.0.0" type="device">
  <diagram name="PÃ¡gina-1" id="Teu5Q4cMuyDErrqT_A_Q">
    <mxGraphModel dx="3054" dy="1892" grid="1" gridSize="10" guides="1" tooltips="1" connect="1" arrows="1" fold="1" page="1" pageScale="1" pageWidth="827" pageHeight="1169" math="0" shadow="0">
      <root>
        <mxCell id="0" />
        <mxCell id="1" parent="0" />
        <mxCell id="yDUD_mWYsvDWhnTY4AmZ-1" value="" style="shape=image;verticalLabelPosition=bottom;labelBackgroundColor=default;verticalAlign=top;aspect=fixed;imageAspect=0;image=data:image/png,iVBORw0KGgoAAAANSUhEUgAAApQAAAHvCAYAAADqwk+jAAAAAXNSR0IArs4c6QAAAARnQU1BAACxjwv8YQUAAAAJcEhZcwAADsMAAA7DAcdvqGQAAO/bSURBVHhe7J0J2E1V+4eXSoaQWZR5aJRZFBFJiFI0CflSJCWFooEG+irqU0r6KKTCn76iaJI0mFKK0Exlai4Nmtd/38/Z67Wdztn7DO+L8tzXda733dManjX91rPWPief9TCKoiiKoiiKkiH7+H8VRVEURVEUJSNUUCqKoiiKoihZoYJSURRFURRFyQoVlIqiKIqiKEpWqKBUFEVRFEVRskIFpaIoiqIoipIVKigVRVEURVGUrFBBqSiKoiiKomSFCkpFURRFURQlK1RQKoqiKIqiKFmhglJRFEVRFEXJChWUiqIoiqIoSlb8fQXlV18Z8+GHxvz+u3/iH8yff8by+vHH/glFURRFUZQ9h7wVlAihVauMmT/fmKefNmbxYmO++86/mCGEecstxhxyiDE1axozerQxI0YY869/GfPJJ/5NGXDvvcYcdJAxs2f7J/YgHnvMmLp1jRk3zpg//vBPxvHLL7ljB0VRFEVRlDTJW0G5caMxp51mTPv2xrRrZ8xxxxlTqZIxI0ca8+uv/k1psmmTMQ8+GBN/U6ca06KFMU8+aczjj8euZco33xjz2WfZC97cZvNmY26+2Zi2bY0ZPtyYfff1L8Tx44+5YwdFURRFUZQ0yXsPJcKxalVjXnzRmIcfNqZoUWP+/W9jXnnFv8mDZev165OLObxyGzbEvHDcw4cwTz/dmKZNjXnuOWPWrIn972BJ/KOPwoUr1wj355/9EwnYsiX2yZZU0pOIggWNueOOmAe1SBH/ZIAffjDm00+NKV48sR2wHUvluZEHRVEURVGUBOyaPZT588eWp88915hmzWIi6IMPYtdYCj/ySGOqVTOmdOmYSMQrh8jr0sWYE0+MeTmrVzfmppti3s4vvzTm5ZeNqVXLmIULjenb15g2bYx5911jvvjCmK5dYx5Mnjn66JhYjWflSmMaNYoJ0ypVjHnmGf+CDyKMeCtWNObgg4057DBjFizwLwZ4661YOlhqhp9+iuWBJWqWnpOlJ5XnunePLe23bh3727NnTEwjGkkP+eb+xo1j54J2ANJbp04sj+SB+P/3v9g17Ev4PL9uXeycoiiKoihKBuzal3K+/z62HIvXDYGDx+7SS2OezClTjLn8cmOeesqYMWNinjW8ei+8EBNf3Ifn7bzzjClcOCYCL7sstoT++eexDyJp7tzYnsMLL4wt/yJi99vPT4AP9113XUyEIVCbNzdm+XL/ogdeRK7j8bvmGmMmTIiJ4CFDYvEEQQgi/jhPPvi4Y8JJlp6o5xDV5P/WW2PPsV3g0UdjAnr79ti9//1vTGhedFHMe8mzfMgfovXii2Nh3H13bK/ptm3GXHmlMe+9F/MKI5oRr5xXFEVRFEXJkF0jKLduNaZfv5hw48Uc/uKpXLIkJirZX4knjX2CZcvGxB0CDgoVMmbsWGP+8x9jOnQw5qyzYucQkghKPH+JQDTh8bz22piXMQii9s03Y16+iRONmT7dmD59/IseXF+0yJjDDzfm5JNjHsD69WMijfRmQlh6EoE95s2LCVG8mojp336LCU0H6WcbwQ03xOwWhC0FvBl+5pnGXHKJMVdcYUynTjEBiXcWAYrYRVQfc4z/kKIoiqIoSvrsGkGJEEKksfSKx23mTGMOPDC29w/PHB40ll5ZruVFHpbIrY09e8ABseXwVDn11JiIQhDywg7L5njzgvACDl68cuVi6eBFl6Ag434E7euvG3PssbG0Ib64L18+/6YUSSU9iSCNiElEKPnnzXYIvuVdvnzseiLwPmLbypX9Ex54hXmeLQNA3glDURRFURQlC3aNoMQj98QTsf17gwbFXiCBUqViAo23mBGQ7sMyNy/vZAJhsjSM9xMBR7yIwSCIVETr11/v8IR++23sLxQrZkyBAjFPKsvBLl0IwXhvHsvX5IFlaIQzb1u7MCFZeqKe4+uLHngg5jlFXN51l38hRcqUif3FO+zAu0m+nVeXZW+W3hVFURRFUbJg1+6hjIdlXTxskyfHvJaIrvvvz+67INmLydfrINScZzN+D2WFCsbUqBFb7h04MPYyy/jx/kUPPHksd+OhZKl96dKYGL7zzp1FHyAYEb/ce/XVxpxzTmzPpyNZeqKeY78pHkaE7ksvGfPII/6FFGnQIOZ1xa4s6U+aFPtaIV7M4WUkBCxbDfAakwZFURRFUZQMyVtByRIx+x15CSfR9yc2bBjb/4cHjr2RLC/z8g17/7if5/bfP+ZVcyDGOEe4ePji7+PDSz3HHx/7vspTTokJpyAs9V51lTElSsSE2owZMUGH55Rw3FcbsUcRMcj+xTPOMObZZ//6yzy8HNSrV8zTh/hECHIv4ZC2ZOmJeq5jR2Pq1Yt5KXlLHOFN+vCccg8fZwOItwN7PrEt4ZK33r1jnlc8new/5TmeJ7ygfRVFURRFUdIkn/Xw/9994C17//3Yvka+XgjvXTawNE14eOjwCu6TRDdzH19fhNcu/qUWcN9/ybIxXk32IyYLi5ddeKOar0BC1AUJS0/Yc9iDr/RBCJLGTMC2vBCEt5M4EJ2KoiiKoii5SN4KSuc9U/Z89oB5haIoiqIof0927x5KRVEURVEU5W/PnrHkrSiKoiiKovxtUQ+loiiKoiiKkhUqKBVFURRFUZSsUEGpKIqiKIqiZIUKSkVRFEVRFCUrVFAqiqIoiqIoWaGCUlEURVEURckKFZSKoiiKoihKVqigVBRFURRFUbJCBaWiKIqiKIqSFSooFUVRFEVRlKxQQakoiqIoiqJkhQpKRVEURVEUJStUUCqKoiiKoihZoYJSURRFURRFyQoVlIqiKIqiKEpWqKBUFCUjNmzYYL799lv/SFEy45NPPjFff/21f6Qoyt+VXSYoGXxWrVrlH6XOH3/8YV5//XXz9ttv+2eSM3z4cHP++ef7R+nx9NNPm8cff9w/CufDDz80999/v3+0a8kmj6mwbt06scUzzzwjdv/ll1/8K39/XnjhBdOsWTP/KJyhQ4eavn37+ke7FgbX1q1b+0d5Q7b1aNGiRaZDhw7m/fff98/sOWSTt3Ta9o8//mgmTZqUUt+UF6TTZ2VKbvc38e1q5cqVpl27dubNN9/0zyRmd9taUZRo8lxQ/vrrr+buu+82DRo0MJdffrn5+eef/SupgQhl4OrcubNZv369fzYx3333nfnmm2/8o9T5888/zdy5c80TTzzhnwmHTm3ixIn+UXJuvvlmc9ttt/lHuUOmeUwFyuaSSy4xvXr1MkOGDDFt27Y1Rx99tHn55Zf9O/7ebN++3Xz55Zf+UTjYeXd5337//fc899hkU4++//57M3r0aHPFFVeYRo0a+Wf3HLLJW6ptG6gfDzzwQKQYyo1+ID6MdPusTMnt/ibYruhvyNO//vUv06pVKzmXjFRtrSjK7iNPBSXexcsuu8zMmDHDHHfccf7Z9Jg/f7454ogjTIECBcQrEs9PP/1kPvroo1BP2meffWY+//xz/yjWqW3dutU/8oywzz7mnnvuMQ8++KB/ZgdffPGFfIKceuqpZvny5f5RDDpH0kF6HO+++6557733/KOdIT2ky0GH+cEHH+z0vCMqj1zHs5JMrHMdDzHlEQbXGaguuOAC89Zbb0mYtWrVMtdff7354Ycf5B6ub9q0SZapEoXHuY8//lg8Co6wvMUTlZcgzi7x97o0fPXVV/6Z5GBT4kt2L/klrEQCLyqeeFtE2Y468emnnxprrX9mZ6iHPEs4iUhk+yDOXonqUVTagmDvq666ypx11ln+mZ2Jr9sIZOqfq0NB0ok3mzYC2CUYD5NdjkmfI1HbBp6hbIJxH3zwwebVV1815513nn8m7/qB+DDC+qxEpGPnMFumEw73Jms7kD9/fjNmzBhxNARJ1daQqE2kk0ZFUXIRb/DKM7zGbJctW2a9jtx6A5A94YQT7Pbt2/2r0XgzY9u8eXP70EMP2f79+9tOnTpZr8P2r1rrzdCt19HYokWL2qOPPtq2bt1a7oHnn3/etmnTRp4rXbq0LVy4sB0+fLidOHGiPeSQQ6wnUG2XLl0kDrj66qttnz595H/37KWXXmrLlCljCxYsaD2RZb0BUa4vWLDAegJZ/odJkyZJmEceeaQ99NBDJc+dO3e2XocpnwMPPNB6Haf1Bg/btm1bO2TIEFu+fHnbsGFD6w0UtmvXrhJPpUqVbMmSJe348eP9kMPz+Ntvv9lx48ZJ/rh+wAEHSJq3bdsm17F57969baNGjWy5cuXsvHnz7JYtWyTtd9xxh9wThPy1aNHCXnPNNf4ZK+FXr17dbty40S5ZssQeddRRtkKFCrZs2bKS35UrV8p9zmbdu3e3xYsXtwMGDLDeQBKatyBReQlCHRgxYoTYlbhIz7PPPivXSGPdunWlvCm3Zs2a2bfffluuPfnkk1I+jtGjR0s5VK5cWcLq1q2b9QZ0uXbxxReLnaizXCNNY8eOtZ74kOth8SSyRZjtyM+wYcMkz9zfoUMHW7VqVbkGnuCwPXr0sIUKFbJFihSR+jBt2jRpX5AovnjC6lFY2oKElWeiuk26PRFg69WrZ2vUqCHn+/bta7///nt5JjfihbC8uXR5kyKpx9gQWy1cuNA2btxY7EnaVqxYIffHt23aEP3CSSedJLblM3nyZLn25Zdf2pYtW9onnnhCjvOiH/BEXcIwwPVZ1EnK3pu8y3nwJjlSd+k7U7Uz5EY9gfnz54u9XdsZOnSo1FfalTcRkXvi7ZeOrT2hKu2ENkP4XNu8eXNoGqlHjAezZs2SY0VRcpc8FZRBMhGUdO4M2uvXrxfBQAf15ptvyrWtW7faOnXqSLh0unSEiCbX+SEe6GgQJQxg999/v3Q+7du3t97sVQY6On/XQQU7Ovdsv379RNDQOdLJPvfccznXnTCho2Ngmjp1qhzTaSHMyOfZZ59te/bsKSIFwUSa6ewOP/xwu27dOhkIuIbQc2IVkUO+GIyj8oiQIA/Tp0+XznrRokUijhBmQJ6KFSsmnTJxcQ8CmoHnsccek3uCxAtKnkGQIuqx4TvvvGMXL14s4WAXOn7sC9gE+55//vkSTlTe4onKSxAGBO7lGe5FHDB4UxYMzpdcconESTwnn3yy7dixo5RHvKDkeQYmWL58uYg40gvOdogEyo5BnIF+1apVKcUTb4so25Ef4mbyxeCLeHAgPOrXry+ig7SMGjVK0kpaIFF8QaLqUVjagkTV1fi6jZ2aNm0q9xE27Zj7sSnkVrxheeM6ooJJFfGtWbNGbEdfQnumPdAvXXjhhXJ/fB2hHpQqVUoEPOEPHjxYygJRSNi1a9eWOpuX/UCiMCDYZ02YMMEedthh9pNPPpFj8kYeV69enbKdo2yZajikgbwh4knrhg0b7MyZM+W5YJqD9oNUbY29mOAff/zxMkGmzXCee8LSyL30ZXfeeaccK4qSu+zRb3n/73//M56gNN5ALnswvVm74WUR8DpK43UYsgSy//77m1NOOcV4M3y55vBmqbLPq0iRIvIyxkEHHWRYXuG81+HJMsrGjRv9u3eGe7wOzXjC0tSrV8+ULl064b0sxXuDuXnqqadkmaVEiRJyXLBgQbPffvvJx5uly1+HN0s2Xudv9t13X7nGpnSus0eUY29QkeW5qDwSpzcwyf5SlsC8DtaceOKJxhtM/DuM5NsbjCQu7vFm/Wbs2LHyTDLYWjBo0CDjiW/jDbDm6quvFht6A63xBILsocMW2DNok7Jly5orr7xS8h+Vt3hSyYvDm1xImbRs2VLu5a83mMsGf5afvYFJ0kB6LrroIrFjorJr3bq18YScbH/wBjApS08Y+FeNadOmjbyQQPpPP/10WaJjT28q8cTbIsx2vCzkiR5JT+HChc2AAQOkfgJLetiAbQhsPyAtPXr0kPqwYsUKuQfi4wsSVY+iytWRSnkG6zbbJjwxIFtWSANbTapVq2aWLFki9+ZGvFF5A+rIwIEDJT4+pM8TSVK/aA9sx2Fp1hMq/hM7Q7l069ZNwvfEp6SXvATJy34gLAwHbcATb2bp0qVy7IlT4wkwqTOp2jm36gn7HD0RbM4991xJqzcxlHAohyhSsTV1ijpEOyANtBm2X3jiNzSN/P/SSy/JGKAoSu6zxwpKOuUFCxbIYI8ovPHGG2XP05w5c6SDYaM4AzwdrCN+IIV8+fLJXzoorrtjOjqepxNOhruX+/ggOuJBaN1xxx3SySGIGLi+/Tb5yxyE6c3C/aPYHj7epKxatars3/Jmz3LOE/uReWSfEaKYvDk4DsaPIGawSwdvdi+dP4MuHTfCEhh0O3bsKAKhe/fuUj7BvUukg/gcYXmLJ5W8OBBZCKj48uY8eWXi4eA+wJbxOBGL6GaQYeAJpo064gZBxAF5o+6lEk+8LcJsRx3neZd36oiLF0HB4IgtHNQ54v4ssPcuPr4gUfUoqlwdUeUZX7exE3m79tprRXDz2bx5s4gcyI14U+0HnD25xv1BcYPtqPN8EuH6AUDcQXy/kZf9QCpUr15dXpCif6ReIJxOO+00yVuqds6teoIopX0UK1bMP5M6qdiafap8mOTHk2oaFUXJffZYQfnKK6/ILBfPJB0vnxYtWsjsHQ8Rs1IEZtA7srs6DryoeJlmz54tX+Px0EMP+VeiIZ9Tpkwxs2bNEu8X3sNChQrJtag8IirwlAUHQgZsvCPZwBuXvH3JG99VqlTxzxrD2/qkZc2aNeIdwysQRlje4kknL2XKlJHBL768GdTj7UWYDFJB8QecZwDHG8PLDrz8VbNmTf/qX+EFAT7EnU48jjDbMfB+/fXXOR4yRITLGwMzH647CAexUr58ef9MOFH1KNVyTac8gXzhFeKlvGXLlskHDxqef8iNePeGfiAVEH5493mhiFUFBBdefkjVzrlVTyh32jH9d16A0MQ2CNd4Uk2joii5T54LSmbZDH7MMulk8PBwDvjKixEjRsj/QRhY6ZRZ8sAzed1118nnhhtukOUTZuEsFeFBmjt3rjzDTJRndjUIGwYAYNmV5XnXkSI88NIkW0oDOkXygYcK+zDgMhhAVB4R2HSaeCOAwWThwoWyVJUMvF0IKbd1IB0QNQh78oUnhiXNMMLyFk86eWFJi3sRKEBe8DaybEx806ZNk/iod3x3HZMSlraDkA4EIp4/vFVr1641W7Zs8a/GQBxQR4G/hEkc6cTjCLPdscceK3WI7/1kQL/vvvvk+0ABAcvy/tSpU+U5BngEGvEec8wxck8UUfUo1XJNpzwBLxEeMuLifnCrC5Ab8e4N/QCkEgaedux96623ShroKyFVO+dWPWHZGRDH1Fe8huPGjZO6nRuQBtrgww8/LHbHTnx3KN/WEJZGxh1sw/ihKEruk6eCks7knHPOES8Ty0GIBTwWLEUAosEN2EH4ugf287DkGlyaYr8T30lJOCwNsdfspptuElHAEhPigw4RmLEzk3XP85flHHcdbxLHfICOGE8QxD/LvVx397rrgJggP3SiDPwI5y5dusg1lor5DkfSevvtt+eE49IAiAkGH/ZPsWTFzJqlHOKOyiNLY+ztY4kHIcOeP86xZxKCeXIgKB977DERZPGQr6BN4sGbx0DXpEkTyRsdN3FAvM0gLG/xROUlCJ4YBCj3cG+fPn3Eu8L+PCYgEyZMkD2w2I/yGTlypNghWG7UQ8rpqquuEmE2atQoCcvZFhuQT65je0Q4y+IMuqnGE8xnmO3IM+fxDBM2wgRBAKSHJWMG4xo1akga+aoVvpeQtECi+IJE1aOwtAUJK89EdRtBQ5x8vY1rH6T5xRdflOu5EW9U3hKli7INtguu8+HeYB0BzgfvJRyej89zXvYDEB8GxKeNukibwLN/xhln5Dybqp1zq56wpYE92LfccovkiYkWe5MJJ5jmeDvE54fziWzNX74gnS0qtAnqGcIXERmWRjyXiNw33nhDjhVFyV3y2VQ36eyhMPtlnxb7ltjntjtghswXItNxMWC6DgzYG0gHH5Y+xAIeKa7TQcYTlUc8F8zOGQQqVqzon80b8Ajw6yikM9nybpCovMWTal6YrDDxwAuBJ4zBxEF5vPPOOyIOuMbfZLCFAjGAxyNYbg4EOIM7aSFNQdKJB8Jsh+cJLylhUIfiwyK/pJWBmbiS7ZcMI6wepVqu6ZYnYCe+RxEPES8bBdOeW/HuDf1AKmEkI512mxv1BLiX7SS0HcRubkN9ol7Ft5lkaeR7LPv16yfe/jp16vhnFUXJLf72glJRFEVRwmDCxrcyICR5u15RlNxHBaWiKIryj4fVBjyubiuAoii5iwpKRVEURVEUJSt0qqYoiqIoiqJkhQpKRVEURVEUJStUUCqKoiiKoihZoYJSURRFURRFyQoVlIqiKIqiKEpWqKBUFEVRFEVRskIFpaIoiqIoipIVKigVRVEURVGUrFBBqSiKoiiKomSFCkpFURRFURQlK1RQKoqiKIqiKFmhglJRFEVRFEXJChWUiqIoiqIoSlaooFQURVEURVGyQgWloiiKoiiKkhUqKBVFURRFUZSs+McKyh9++MF89NFH5s8///TPKIqSm3z99dfmk08+8Y/2Hj7++GPzzTff+EeKoigK5Lmg/P77783s2bPN7bffbh5//HHz008/+VfC+fXXX83ixYvNypUrzR9//OGf3QFC8c033zRLlizxz+yAZ/v3729uu+028/vvv/tnd4bBsHXr1v6RMU8//bSkb1ewdu1ac88995jRo0ebl19+OWH+4vnqq6/MCSecYObMmeOfSc4LL7xgmjVrZjZv3uyf2bUMHz7cnH/++f6R8k+E+njGGWeYGTNm+Gd2LfHtd1exdOlS06FDB7NmzRr/zF9ZtGiRadq0qX+kKIqyd5CngvKzzz6TTv+OO+4wr732mrngggtMt27dxHsYBR32qaeeapo3b27mzZvnn90BnTYC6/TTT/fP7GD+/Plm48aNZsSIEWb//ff3z+4MQpNBCRCnc+fONU888YQc5xUI3RtuuCEnT9ikR48e5pJLLvHvSA7pZRDfvn27fyY53PPll1+a3377zT+za/nuu+/Ug+NBHe3Zs2dOPfsnMWnSJHPIIYekVHfzgmD73VX8+OOPMgns27evTNiS8fPPP0tbVRRF2ZvIU0FZpEgRM3HiRPHCzZw5U4Qlg+yKFSv8O5LDgFGsWDFz+OGHm2nTpu3kacSj99BDD5natWtLHPHUqlVLPIAHHXSQf2YHn3/+ufn000+NtdY/4xlhn33k/gcffNA/EwNvKsvmDBBBiJ9lr3QHjSeffFLiGTt2rHnqqafEu4OXtWvXrv4dMb744gtZSoxaruf6pk2b5N5kXk7CIr+JwoqKB1sxKXB8++235oMPPkjoZXa2+uWXX/wzOxNlM3edQdvBxGPDhg07lb2DcLg/Wb6BNH344YdJ0xRFWPxBCJ944vOG/fCwx9efKMLsDNgoWOZMVDiOSifwDPUhUdhR8TrI7/HHH29GjRplChcu7J/dQaKyJG3YMtFkMpn9EpGo/TpSDYf6jr2o/0Gi2lPBggXNXXfdZS6++GL/zA5cnpNNpMLyryiK8o/A65h3Gc8995wtU6aM/I1i+fLltnr16vaWW26Rv57w8q9Y+/bbb9ujjjrK3nnnnbZmzZr+WWs98WO7detmDznkEFulShXbpEkTuRe8Qd0OGzbMHnDAAbZ48eK2Q4cOtmrVqnINrr76atunTx/5n3tHjBhhDzzwQLm3QoUK9tlnn5VrS5YssXXr1rXeQGq9AcY2a9YsJw4YOHCg7dSpk/3+++/9MzF+++0327lzZ4l3+/bt/tmdIf09evSwhQoVsp5QtgcffLD1xLT1Biu7detW6wloO336dLmXdGAD0la2bFl75JFHWk+8yDVPuErezjvvPFuqVCm7//772zPPPNN6A61cD4vHG7Bt27Zt7ZAhQ2z58uVtw4YN7bvvvms90StlV6lSJVuyZEk7fvx4CQvmzp0rYRQtWtQeffTRtnXr1mIDR5jNnn/+edumTRvbvXt3sfWAAQPEVp7olnL0JgcS55QpU+R+7NqrVy9bsWJFuXbqqaf+xdYQTJM3KbH9+vWTPIMn5iUNW7ZskWPs0qpVK/kfwuKPZ/To0WKnypUrS32h/nnCzE6YMEHq2r777itpaNeundx/6aWX2ssuu0z+hxdffFHqKXz99ddJ7ezK5frrr5f2QNlht4ULF9rGjRtLOdaoUcN6kzW5P56rrrpK6vdJJ50kduYzefJkuRYWbzzJ8guJyhJeffVVW69ePUkfz/bt2zenzMLCCxLVflMNZ/Xq1bZBgwY55UofAmHtKaq+eEJRjimTcuXK2bPOOstWq1bNvxqe/9dee03q8/vvvy/HiqIof1d26Us5eCpLlChhDj30UP9MNF7nL57G4P7Gxx57zHiCUTyUQfCA4mXxBg3zzjvvyHWWvcEb7MzUqVPN//3f/4kXwhM+sizuYJmWZwFPIp5V9n7i7Xj44YeNN0jJ/54gMMcdd5x4SvBI4CEdOnRojheKvNWpU8fkz59fjh086w0axhNW4ulIxJgxY4wntMRriaeD5cTrrrsu4X4t7Hj//feLtwavkieezAMPPOBfjW03IA1ce+mll2Tv1yOPPCLXwuJxXhq2ALAXk+e8QdJ4g55Zv3695Nkb2M19992X48G89tprjSdeZZl95MiRErYjymZ82CvrCS8pD9JGegl/1qxZxhOzsv/21ltvlfC8iYZ8PCEm17jPG8jlmiM+TeylpSxd+bIlgHQ5LxTeo+DyaVj88VCe2AjvkzdRkrzwYXsHYRx22GGytYGwgHrGx0H+SQvgKU9mZ8oF+7CdA+82Xn7Ktnfv3mJz6oEnso0nZCWseLZt2yZpYIsF9rnwwgvF24aXLizeeJLlFxKVJXkbNGiQbHXBllxn3/PMmTPlmbDwgkS131TD8SYGxhPkso+Z9JAuCGtPYfWFcmEZnHt4jjR4k7+c/iAq/9TP119/fac6oSiK8ndklwlKOs3Jkyebfv36ycCXKogP9knyMooTMPx/zjnn7LQ/ko6bQQfhwqCIoDzqqKPMe++9J9cRR0ceeaTs6WSZbsCAAbKcnohnn33W1KtXz7Rs2VIGW/42btxYli+JhyWvAw44wJQtW9ZcdNFFImDd4NanTx9z4403mgIFCsixg+U4lhJLlSrln9kZBnYGQoQIS/b77befDP7kMdEWAYQrG/+///57iRvRHRxg2d+GqCpevLhp1KiR2AURlmo8vNSEGEIcIKbbtWsn9yI6OGbpjiVN8o5YQbwRximnnLLTEn4qNuPclVdeKdeJjxekGNCx4VtvvSU2c4N50aJFJc/UAQZt8s0zQaLSFEVY/PFQn7A1IoIy5hlEAmnif+oPaU60NBxPmJ2BsAYOHChlz4fy6dSpkznxxBOlnF3dT7b0TVoRNtiE/cfYESETFW+QZPl1xJcl9qPdHnHEEVIuxFetWrWcl+miwnNEtd9UwyldurSk6dVXX5WJXZkyZeR8VHtKBnWbsLBrhQoVZKJ71VVX5ZR3VP5PPvlkuYeJs6Ioyt+ZXSIomfUjKBjE8IykS/v27aWjZ/8lotFaKwNIEAZAvAaIVgQLHzyLiEpgoGGwYzCFfPnyyQCdCEQX98YLFc4zUJUsWdI/ExtAIeolFOLFk4YgTgSDN3lEyDgQ08SV6BmEQ8eOHWWg6t69u1mwYIF4Sxzkz6WffDJAOpEQFQ/PBoUvAzRvbletWlVelLrzzjvlHOVAvvGEIkIcQbulYjNsg+hyUF9WrVol4pxyxGOGlxQYeBHseNcQGOylDeYbotIURVj88eAtpI7xksbll18uIgS7ZEKYnR2uzpIf8hisw9gR4ZtM/FKuDucl58WtVOJ1ROU3viwpf9oekxvXLvn2ASYzkKr9otpvquEQf9u2bSWf9CGUM0S1p2TgmaRNBesH6XK2jsq/oijKP4U8F5TMzvGG4T34z3/+k5KnJp6aNWuaY489VsQiS1Z4nOIHeAZIBjKWUpctW5bzQVQCL/ggOJ33hsEm2YCB1wJREn8d4cULEEHPDR4KBo+gYEoE11lqI00IungQXXyCS6/EwzJt+fLl/TM7uPvuu+U6y9R4Fs866yz/yl8hH4hFvDPpxgOvvPKK2J0lUwZgXipyy8yUZ7xNgnbLxGakE28RXhxXjkwmgMGaN6dZsmS5l4E6fktAVJrwxCG6ktWFsPiDkA+EGJ5QPOEsR1NXw0AQIdYcxOuET5id85JU480kv7Q7JjO8gOZsybLw4MGD0wovrP2mEw5L2+SPfFJP8CZCWHsKqy+UJ8I+2J6CZRqWf0VRlH8SeSooWd7hKzboiNlnBAgXN6DyNT1uj2MYeGPOPPNM2YOJkEj0VUF41PBePfroozmdO/G672JEkDKIsPSO2GCP2Lp16+RaPIgJBhU6f3jmmWfEA4JHjMGFt84ZYMgLX59CvAhmYJ8ieSWOIAw8CCH2LbK3zNmAZTCOEbEss7NPDBHOoMQgRDzHHHOM3BuEPJJnBBv3s2wWhH1m48aNk2Vh8o044s3cdOMBlo/JNx4i7mNAdHvEWHblGnsuAc8O+xUdqdgsHr5Wify4ZUHAywPsUyNvTCDwMMULNIhKEwM8niXKgnK69957d6oLYfEHwQZsY8Dbi9Clbm7ZssW/akSUEQ/2c7AkSlzkgQ91xb1VHWbnvCTVeKPymwg8fpQR9idsoF9gwpZOeGHtN9VwqOu0a+5n2w3t3OUzrD2F1RcmH+zVJn/ki/4GD68r07D8A1sMELW8na4oivJ3Jk8FJS9nLFy4UD545/AO8OnVq5dc5+WKZN/9yABHR8xfoPNnIz7L5nTS4Jb9gPtYmqTDZ29Vw4YNZfB2gpXlrCZNmphWrVrJHiYGJ/ZFOogLzx107tzZtGjRwrRp00ZED0ufeDN4juVWXnxgvxRLhAgkXopwz7JPEfEZL3KAZTaeR+jhYWVQIw4GOtKPt43016hRQ+JFaN58880ikPDoBe2BN4aBnzyxJYDBkOuAXdgTxqBIGhFIiEX2EaYbDzCYV6pUSfbZsR8TLw4DKYM34bOf7aabbpIBnT1+eJDd81E2I62IQ8Jy8HyXLl2kzHjBibyQR3jjjTdM/fr1RRSfdtppkqb4l7Pi08T/hOHgfpY92fdG+hAHQTEdFn8QhAb3IQh4nq/RwZ4u76SRZXf24BIWuL2chEudZpnWeYbD7JyoXKj7rt4B1/lwbzycD95LOG7JPCzeIFH5TVSWlStXlnLg67KwIzahntFOosILEtZ+Uw2HdoYQpd5jf4Qhe4UhrD2F1Rfi4KUbhCF9HOfJJ2mCsPwDLxExCU00YVEURfk7kc+6tZl/CAwa7IfCQ0FnjqBw4LHEe8HAR6fO32QQDt9Hh7cCAYvnwoFXg5d+eJ5rYeEkgr2MpIOBn+d5gcFBvAxOvFDAteB+tHjwcvDmOANkouVjPCIuHkR2MJ3pxAMIUAZS0kp88WBzBkUEUjA/jkxsxlIm+WPZ0L1ABJQJnkr3EkQyXD0gTYho8usmMOSf780kX9SFePEEyeKPh3ARyXhjnQhxsL2BMkDguLrobMGkIn6bQZSd84p04g3LbzLIM285M9GiLgbrW6rhRbXfVMKh3Kk7eCQReExwHWHtKaq+4HXEfghz6mU8yfLPhJeJHx78RO1GURTl78I/TlAqSiJ4USMoKBVld4N3kv3lfN0ZHlNFUZS/M391yyjKPxC8TniuFGVPAa81X3+lYlJRlH8C6qFUFEVRFEVRskI9lIqiKIqiKEpWqKBUFEVRFEVRskIFpaIoiqIoipIVKigVRVEURVGUrFBBqSiKoiiKomSFCkpFURRFURQlK1RQKoqiKIqiKFmhglJRFEVRFEXJChWUiqIoiqIoSlaooFQURVEURVGyQgWloiiKoiiKkhUqKBVFURRFUZSsUEGpKIqiKIqiZIUKSkVRFEVRFCUrVFAqiqIoiqIoWaGCUvlH8Mknn5ivv/7aP1IURVEUZVeS54Lyu+++MzNnzjS33367eeyxx8xPP/3kXwnn119/NYsXLzbz5883CxYsMB9++KF/JXMI4/777/eP9jx+//13ySu2Gj9+vPnoo4/k/FdffWVOOOEEM2fOHDl++umnzeOPPy7//x1YtGiRadq0qX+UPS+88IJp1qyZf2TMypUrTbt27cybb77pn0nMjz/+aCZNmmTefvtt/4yiKIqiKLlBngrKzz77zJx00klm7Nix5rXXXjMXXXSROffcc80PP/zg35GcNWvWmM6dO5sBAwaYSy+91NStW9ecccYZEmamICQmTpzoH2UHIqlnz5655hXbvHmzOeWUUyRMBBLiEdE0e/ZsEZqIyu3bt5s///zTzJ071zzxxBP+k9lx8803m9tuu80/yht+/vlnSX9ugR2+/PJL+Z+wSf+//vUv06pVKzmXjG+//dY88MADkcJTURRFUZT0yFNBecABB5j//ve/5uWXXxYvJcJy6dKl5p133vHvSA4iiucRgGvXrhWvFKIUQeD45ZdfxOuYTKx88cUXshSKCINTTz3VLF++XP53EM+GDRuSitw//vjDfPrpp3/xrH7++eci/BA08WzdulU+qUIcI0aMkHjI5yOPPCKe2YULF5oaNWr4d8XYZ599zD333GMefPBB/0wM0k8+yE8iSD/hO1s43n33XfPee+/5RzsIswt5xnsa5m0mTx9//LH55ptv/DM7g7j74IMPIj3WpJdwkgn3/PnzmzFjxpjLL7/cPxMjUbkdfPDB5tVXXzXnnXeefyZGfD0B/t+0aZOcJyxFURRFUZKTp4KySJEi5uijjxYRBAjE/fbbT0RAutSpU8ccccQROWIUEVG1alXTunVrU716dREJLK8DIgBvH9ePOuoouWfLli1/WSplSb1x48amTZs2platWubiiy/OEVBXX3216du3r2nfvr3kATEyZcoUucayea9evUToHnbYYXIPIDJJR6NGjWSJlw+eVkBgEvedd94px0EQxc8884zp16+fpMNx6KGHSr7jGTp0qKQNEH533XWXOfzww03btm3FFlOnTpVrCKWTTz5ZxCrhkNZ69eqZdevWyZaC008/3cyYMUPuL168uLnjjjvkuTC7IOhr1qxpOnXqZOrXry+iOh4EIJ5p0sQH8etEGQLzzDPPlHApl4oVK5r77rtPrsXD0j73kfYqVaqYYcOG/UUQI0y7detmnnrqKTkOK7f4rQPJ6gmTHuLEBpQl/zuvJunHY47nWFEURVGUGHm+h5J9awiv//3vf7K8ihBBZKQLggwB4AQXS+AM/HjRnnvuORFBfBAuN954o/n+++/FA8ZzCAxEbXCpFHExaNAgESN46Xh2yZIl4kmFbdu2mVmzZpkePXrIMvuFF14owg2RdsEFF4gIQqDhNeU+QJAhcFavXi3Ct3bt2iLmoGDBgqZBgwYijOIhnXj9uD8VEM7EAy+99JKkhTSQD/Zf3nrrrXIN8bVx40YRWyyRI1z3339/8fryF08o2wjYhoAIvOyyy0LtwrUJEyaYUaNGyfYBzgcFMBDn6NGjxdbkizKiDJwnl3JAjK9fv17iRCSSfsR4ELyLV1xxhaSDMsOmiOF4ENSki/ggrNyC94bVkxIlSsikgTRwDVHqPON4xd966y25piiKoihKjDwXlCx3sxcSEcayZcOGDXM8llEweCN+8Ajx0gUD/fnnny/X8CYdcsghIgS4r0CBAiI8ECYIHQTFQQcdZAoXLmzOOussU65cOXnOgSjgXryeiBVEWrVq1eRZB3EgaBBfeLYQH9y37777Snzko2jRohIHQuX55583xx13nAglBCVeL7ecjAeQJX9sEQ+iO1++fObAAw/0z6QOXjwED+khT6VKldppiZY0IszIJ/bAa4pIQvghcvEY8yFu/obZhTjwMiNQWQ6mPDgOgh1YVsZuFSpUEAF91VVXiY2AeChL4kJUcoz3ExsEwSOI8EPscm/lypVN165dU6o7ycotSFg9wTOMnXgOQc51/gL/I+Ljl9gVRVEUZW8mzwUlS654uhjAr732WjNkyBBZZk0Fa60szSLGrr/+elkWRjwBogbBxjIygzsDPvfjCeNTunRpuS8ZeKwQo6SJl4X48GJM0OOGyHMgvuC3336Tv/EgihDMkydPzgnv4YcfljRGgZhBBCbbbxgGnrJVq1aZPn36SJx4/OLFc1CEERc2xVaJCLMLWxjwwlKW5GvgwIE5nlIHIhBxGEwD8TtbIv6HDx8uy8zsaWULAOfi04OnEQFbrFgx/0zqpFJuYfWECUHHjh1FVHfv3l3evI9falcURVEUZQd5LigdeJnwzuGxWrZsmX82HMQA+wpvuukm8R4haAAvGKKE/Yp4AHmBhX19wDOFChUSQRIGQgVvE+KW9PBheXbw4MH+HelBvHgr2d/owuODqIyCfY+Ip6B3NFUQRHjTeNbFyRvomRJlF7YasBeVPYR8ddFDDz0k5x14BdkjG3yJBjHmBOMrr7wiexpZlkYI47WlvOIhHYhst5Sd24TVk7vvvltEMftfV6xYIXVPURRFUZTk5KmgZEBGeOCBAgZnPGpuryD7+twew3TAs8Tbu3gr8X6xR5OXKYAl3yOPPFKEHB4/7mU/XPz3WOJ9QvyQPrdEzLJoql5CxAhixwkS4mWP5KOPPpojptizh3cPWD5FBONljQcx3KFDB3l7m/2gwLOIrqiXP5o3by7L1EExiocxVRDpbn8hhNmFDyIQeGGlUqVKfxF8CFzKl+d5jvzjhXRvW2MvJhdly5aV8BGrlFE8LDsDNkCQ4jUcN26ceFdzg7B6QvlxHdvgjcW+Duoye1Tdiz2KoiiKouSxoESksHRavnx5WeLkBRDeLD777LPlOl/hk+z7FPFy8WG/Yjx40Lp06SJ784455hh5SYT9lAgVxBBeQpbA+cod9t4hbhAHhOWWQDmP5xMRh3jhhQ9esnnxxRflOuHgNXQQNulxy8fcz/6/li1byvIo11luRvDw0hF7RfHGOsGMoOSL3RHV8ZAuXljiexR565i9h3xuuOEGEV4s4ZIe4oBg2rgfW5AG3kYmL+6t8/jnID5f3Ms+V8qHF3rC7MLyNkvA7jzLyMQdhLh4qYf9kXheKR/up8zg2GOPFSHKPkreoGbSgQiN3xvJEjvh3HLLLXI/Yp09soQfLMcw2wDnXbkF7+VvsnqC5xuh26RJE7EP4pL7Ac8lIveNN96QY0VRFEVRvPHYJttMl0sgKlmWxjOFaInf35cNiBZEDp4mN+A78CSxdxPxgSBKJEwBzxT3cT9CkGXrVEEk4h1FzLq9nc6bhscUkeLOpwoePb7jEZGF5zJZuuNhG8D7778vS8WIMSewUgGvMfGyL9K9ZJPMLpznDW/sjV3j7e7AO8nXEyEGEcdBEN1cI67479mMB+8h9YevF4oPJzdIVk+IF3uSvpIlS8o54IUjtmFMnTpVBLyiKIqiKLtAUCrKPwUmR3wnJ0Kyf//+/llFURRFUVRQKkoa4JXGsxq/RK8oiqIoezMqKBVFURRFUZSsUDeLoiiKoiiKkhUqKBVFURRFUZSsUEGpKIqiKIqiZIUKSkVRFEVRFCUrVFAqiqIoiqIoWaGCUlEURVEURckKFZSKoiiKoihKVqigVBRFURRFUbJCBaWiKIqiKIqSFSooFUVRFEVRlKxQQakoiqIoiqJkhQpKRVEURVEUJStUUCqKoiiKoihZoYJSURRFURRFyQoVlIqiKIqiKEpWqKBUFEVRFEVRsiJvBeWffxqzYoUx8+fv+CxYYMy33/o35AHr1xvTs6cxI0ca8+uv/sk8YuJEY8qVM2bqVGN++cWYESOM+de/jPnkE/+GAD/9ZMzppxtTt27i61Hce68xBx1kzOzZ/glFURRFUZQ9g7wVlBs3GtOlizHt2+/4dOhgzMsv+zfkAR9/bMz//mfM00/HRF5e8vXXxnz+uTHffGPMjz8a8+STxjz+uDGbNvk3BEBcf/FF7P5MhC5xfPaZMd99559QFEVRFEXZM8h7D+Xvv8c8a7feGvOy3XOPMQ0b+jekyB9/xLx6ePniIQ4EHOIOjj/emHXrYuKuaNHYOeDZDz8MF2SIQuIhvni2bo15P5OJwZIljXnuOWPWrDGmaVP/pAfxffqpMdb6J+LAPoRL+OQlCHFt2GDMzz/7JxKwZUvsE4+z2ebNfw1XURRFURQlF9k1eyiLFTPmvPOMufhiYy64wJjy5Y25++7YcvH//V/snlWrjDn00Nh1QJgddpgxl18eE4lVqhhToYIx//1v7Do88YQxNWsaU7Fi7Nq11xqzdq0xJ55oTL9+MbGGl/K224w5+GBjatQwplQpY04+2ZgPPoiFcf/9xtSqZcx118XCqlzZmDp1jFm9OnZ98eKYAOb5atViaZ8wIXYtCPH07WtMmzbGvPtuTMQRNukmzJYtd/ZcIvj+8x9jKlWKhUv6GzQw5s03Y9dXrjSmUSNjqlaNhfHMM7HzDjyxp50Wyztpw1ZsJwDSXLt2LF6uswwPCNPu3WPL7ohuRVEURVGUXGDXCMoffjBm7lxjHn009hdvIUu4LP9u2xa7h3NuSRi2b48dIzz328+Yc86JnbvrrtjSL6Jt4EBjfvstJjJHjYp5A4mLMLgH0caew+uvjwms6dON6dUrJrwQn8B+TsTlnXca06qVMccdFxOzTjS+9ZYx1asbM21aLJ4CBYy5447YtSCIV+Llg3BD2N5wQ8wziaAjD3gbHQhQRCMCD2FMXoiX/PI8Apdjtgk0b27M8uX+gx54LrmOR/Saa2JpJd9DhsS8lQho/o4fb8zkyTEBCaQRIYrn0tldURRFURQlS3aNoGTZFe/duefGPJAffeRfSAG8g+yJHDcu5jlEZCJGX3wxJtBcmFdcsUN8OvASIig5N2yYMWedFROXeASXLfNv8kD04Qnl5Rpe5sGjyjI04FWdMcOYdu2Madw45i1MZR/jG2/ERB1CmJd3EI1HH+1f9Chc2JgpU2JCGE9ks2bGFCkSsxWeTDyVeB15FiHcp4//oAfXFy0y5vDDY95W0lW/fizNLOvnyxcTpe+/b0yLFrG8AeEj6BGqxxwTO6coiqIoipIlu0ZQsiSLd2/mzJjHDEGXKuyDPOAAYwoVigkiRCJeSfYcIgRZgk4GeyIRoDzL8joQHvsd8XYGKVPGs4ZnDsRk/vw79kq+/nrMa1m6dEzQLlmSfD9kEJc+ltGBtAf3dAaXxFnu5g1whDLn+YsgJM0HHmjMvvsaU7as/6AHecIjSdqOPTbmgUQoch9pv+qqmFcVT+pRRxlz++3+gx6EF2YzRVEURVGUNNk1ghJByNJt166xv3jn9t8/du3772N/EVEIxVRxAivo7WRJNwhCEhHH8jLhAyKTZW4EXhSEd+ONseVrxDBpPekk/2IExYvH/vJCDiBggy8VvfdeLGxeWGL5nqV1lyfshTDkRSOEIwS/agnRy9I7S+EsXSNc+SA08Tw2aRL7uiaW6bl37Fj/QQ/ylOjlJkVRFEVRlAzZNYIyEYccEluKxnN59dWxJXEnnlKhXr2Yp/Ghh4wZPDj2Es6ZZ8Y8ew7C52UYBBTeuuefj3nrWBbmfBSILwQoezFZvmZJ3L00EwV7NhGViDry163bzs+STrygiF0EJfsdnejFY8kLRCxNs7cS23DdgceX5W48lLzYs3RpbFsA+0DZO4o9WCbHw8lLSHhegbywdM+LPjyrKIqiKIqSC+StoGQJFm9kwYKx/4PwNjSiDu8fYo9lZZZnuRfwYPLBy8ieQD5c4xxCkX2HCDW8mqNHx4QpS7l494LPsb+SF1+efTYWJ3sx8ZKylxK4D2+gi5ewed6lm+dJe//+xtx0U2yvIvdD8FnucenjHG9ss++R/ZZ8ZRIv6/BWNte4l/2RnTvH3rY+9dTYCzqISDyPLEuzbF2ihDGPPBLbw8leTAQq4eN1/fe/Y2EMHx77mqIzzojlkTx/9VUs3eQXD+4ll8TSyzXSTBwuD4qiKIqiKFmSz3r4/+968NCx9IsQQ0xlAl49PHwsF4ftzcRzh7hiryT3Oa9dKrCUzLPsh8Qrmg7kD1GJx9KJVgf7JQmXpfQjj4yJxSDEyxvo7IcM7qF04DnlxST2a+LV5GuCyJcLl+exK3lWFEVRFEXJI/JWUOIRU/YcduPcQVEURVGUfy67bw+loiiKoiiK8o9g9y55K4qiKIqiKH971EOpKIqiKIqiZIUKSkVRFEVRFCUrVFAqiqIoiqIoWaGCUlEURVEURckKFZSKoiiKoihKVqigVBRFURRFUbJCBaWiKIqiKIqSFSooFUVRFEVRlKxQQakoiqIoiqJkhQpKRVEURVEUJStUUCqKoiiKoihZoYJSURRFURRFyQoVlIqiKIqiKEpWqKBUFEVRFEVRskIFpaIoiqIoipIVKiiVvYYNGzaYb7/91j9SFCUdvv76a/PJJ5/4R3kP8W3dutU/UhRlT2eXCUoG81WrVvlHmbF27Vozfvx48+9//9tMnz7dfPPNN/6V3GP48OHm/PPP94/S48cffzSTJk0yb7/9tn8mOencm9ssWrTING3a1D/ac2FAad26tX+UHeS5Q4cO5v333/fP5C1/FxvvKoYOHWr69u3rH+257I52mZv1PK/46quvzBlnnGFmzJjhn0nMhx9+aO6//37/KHN+/fVXc+GFF5qpU6f6Z1In27b39NNPm8cff9w/Ciede3OTv0OdCWN32U3JW/JcUNIx3H333aZBgwbm8ssvNz///LN/JXV++eUXc+2115pmzZqZuXPnirAcMWKEadiwoXn55Zf9u3KH7777LmOhivfrgQceMG+++aZ/Jjmp3nvzzTeb2267zT/KHSgDBog9nd9//106zmz5/vvvzejRo80VV1xhGjVq5J/NW3LDxgyMPXv2zBUb7G5oV3uidzi+faXThnOL3KrneQki+5BDDjGXXHKJfyYxCPGJEyf6R5mD/d977z1zyimn+GdSJ5u29+eff8oY88QTT/hnkpPqvXnRjv8OdSYZ6dg4is8//9x0797dvPrqq/4ZZXeSp4Lyjz/+MJdddpnMao877jj/bPo89thj5r///a+59957zbx582TWSgWqXbu2GTRoUEqdBwPFBx98YH766Sf/zA4499FHH4lwTQaeC5Z7yBMglDmmYTsOPvhgSdd5553nn4nBM59++ulOcSe6l46QdATve/fdd6VjTQSN6bPPPvOPwvNIGj7++ONQsfzFF19InmjwiYiPLwzygreCv/G4tCQrN+LBXtZa/8zO/PDDD+LxDto+SHw6ScNVV11lzjrrLP9MNNiANMZ32tQR8pUo7VE2DnuW+LA9ZeAgHytXrkxoQ8oYG7j6GBY2xN8fhrN/snoQRlQ6gmQTD2VPfqgLiUg1v/HtK1kbdvUhrNxTyXOQbOt5JpBG0ppKPXBQpscff7wZNWqUKVy4sH92B0Fbn3rqqWb58uX+lR1E9S3xPP/88yJgq1ev7p/Jru2BuyfYP27ZskUmnI599tnH3HPPPebBBx/0z+yAPATbZ6J787odR9UZwuP5RHFBqu0iEYSZKGzyvGnTJsl3onCJk3HNPZfMxlH1nXDi+wvCfOONN8yXX37pn9lBJu3H1ZF027Li41XMPMMrHLts2TLriTHrDej2hBNOsNu3b/evpsZvv/1mO3XqZDt37my9xuafjfHcc8/ZcuXKyd9keILAdu3a1ZYpU8ZWqlTJlixZ0o4fP96/aq03U7LeIGKLFi1qjz76aNu6dWuJD7zGa9u2bWuvv/5663VstlChQrZNmzZ24cKFtnHjxrZIkSK2Ro0adsWKFXK/V6lty5YtrTfzkmPy3KdPH3vSSSfZ4sWLy2fy5MlyLf7eSZMmWa8DtUceeaQ99NBDxW7kOX/+/PI58MAD7ZgxY3LSNGTIEFu+fHnbsGFD6w2KoXn0GpVt1aqVpB97ecLKVqtWzb9qrSe+bI8ePeQ6ecIe06ZNk/JLFB/3J4J727VrZ6+99loJ3xt8xG6LFy/277B2yZIltm7dunKtYMGCtlmzZvbtt9+Wa17nYIcNG2YPOOAAsVWHDh1s1apV5RpQF8aOHSt2qlWrluR1ypQpci0TuyRj/vz5km5sTr0YOnSo2GL06NESduXKleVat27drCfi5ZkoG4c9u3r1atugQYOcPN155512woQJYod9991X0oBdgTrVu3dv26hRI4nHm2CFhp3o/mQE7U841D/qu+Opp56S8vIGYTn2Ol3JsyMsHRdffLHYBKLiufTSS603EfWPrH3xxRdtkyZN/CNrPcFn69WrJ22P+Pr27Ws9USDXUs0vfUmi9pWoDRM+fRf30D64zxuk5HpYfU5GNvU8jDC7YZ9evXrZihUrSpie8JNz2ZRpIlsvWLDAHnfccXIdwvqWZFA2J598svQjjmzaHumkH6aOFStWTNIwZ84ce+GFF9oSJUpI+8LejquvvlruB0/YynPYln6EMr7gggusJ1bkevDevGzHqdSZcePG2dKlS0s83Eeat23bJtdTbRfxRPXp1P+jjjrKVqhQwZYtW1bGL088yzXSPGLECMkLaeaeZ599Vq4F7ZZKvz58+HBp78TPOL127Vq7Zs0aSRO25Tx2g0zbT1hbpn1Qr4N2Qxf07NnTP1IgTwVlECp0JoJy69atUmFHjhzpn9mBN+uRDvKBBx7wz/wVGiSVwHUANNo6depIR0fY/E/a6MQQlzQ2Jyi5TgOhEb7zzjtSgWnENChErDcbljzRMbn7a9eubadPny7HDKKlSpWSDpTwBw8ebOvXry+NJHgvgxgCderUqfIcIpj0Yquzzz5bKi35oKE4exx++OF23bp1MrCF5ZGOu3///rZp06bWm0Xa9evX2xYtWkjjdiDCSBcCjDhGjRol+Vy1alXC+JLBvUcccYTc/+abb4p9sCWDA3khnwi9Sy65RNJK+rjWsWNHuf7kk09KJ0BemIQg5BjsHQxWpGPp0qVyPGPGDIkP0rVLMrxZtoRBZ4EtGKxmzpwpdmRw8Wavct/y5cvFRoSfio2TPQuDBg2yZ555pqQZO1A/+P+hhx6S+kfdwx5AnWJQZGLCPWHpgkT3JyPK/rNmzRLbbNy4UY6xIx2wIyodTlBGxYMACXbUTz/9tK1Zs6b8Tx3CzpQlecHWlCkTMkgnv8naV3wbJryJEydKG0YkMEC99dZbkfU5GdnU8zDC7EaY1KUPP/xQjhkgsU+2ZRpva/LGhNgR1rckY/PmzZKmoAjIpu2RToQWZUo5denSRUTODTfcIOXE2IJtiNfdH6yrCLR+/fqJOGOyiSB1TozgvXnZjqPqDM9ynTwS1qJFi0RgITIhUXypENWnkyfEJeFhH5wnCFmgbpEm0sZ1HDE4SiBot6h+HdvRzhh/qbf8f8UVV8h14j/ssMPso48+miOeM2k/UW2Z9kG9nj17tv+EtQMGDMjRCkqMPf4tb6/yyzKA1wH4Z3aw//77G28mkdS9DzznzbDMfvvtZ7zORo69CiNL2N6M0niVUJa3CIv9Ol27dvWfjIF7fuDAgcarTPLxKq/xKpE58cQTjTfrkqV8rxNI6lZn47Q305TwPfEpyyvsJwtSoEAB480ozVNPPSVLB96sWY7JG+nmQ7r56/A6UUmLNzsLzSOue5bwSIPXyZoqVarI8q83C5NwWJrxOkfjzbqNN5uTMLyBSdK7YsUKuQeC8YWBvQjfG+TFPueee67xGr28rcmyD+nxOhPJnzejNRdddJGUg9dgzQsvvGC8zkNsRvq8Bmu8jsEPObaR2+vMxV7egG48sf6XJZZU7ZIM9m55HYikm+e8TlnqBPkiXV4HKXmhTpIOryOKtDEkexa8wU7yQxiUeZkyZST93EO83oC2U1jezNl4QkjuCUuXI/7+ZETZP4qodDiyiQc7eQO18QYIqTe0pWrVqpklS5b4d6Se37D2FaRNmzamV69e0iY6d+5svIFc4o6qz8nIjXqeLtQh+p45c+ZIf3nQQQeJfaLIpm6l2rfEQ/vjQ5k4kqUjlbYHrVq1ki0vlBPlSZ2h3KgD5IEtTMn2JBLu4MGDxYb16tWT9pqofPOyHUfVGcYOT/RJ/SQstigwRmF/R6rtIh7uTdanMybyAhR1C5tQr5xtnn32WbFXy5YtJQz+Nm7cWK4FiarvPMv+d9o84RMfW7tY+i5UqJBc5y/2hUzaT6ZtWdmZPV5Q0gnROBM1diox+ypKlizpn/krNEze3PZme7K/584775RznpiW/TYMDsGOK1En6xof17jfHQOdI5U1WYXNly+f/19sAANvpi5/HUWKFDF33HGHDJR0CgjYb0NeYCBMGokjLI90zAiocuXK+XfH8uPSxTXsSAN0kB5s6s3S5Dg+vjC4Fxs53HPEwwBDIw+WFw0XKAs6KI6xKRBW0Nbsn+GbAvr06SONfdiwYTvlKx27JIMJBmn0ZvP+mR24TpuOmRfM6GhSsTEkexbIS9u2bSWNDBhR34ZAx0kaHWFhQ/z9yYiyfxRR6XBkEw91iOd5SQ+78dm8ebMIFkeq+U0V+iCXPgZzwkfIRtXnZGRbzzOBlyJvvPFGc9ddd4kweeihh1Laz5hN3Uqlb0kE/SNxBG2STduD4DHpDR7TX3GczCkA7n7u5UM/Ek9etuNU6gx2dteB4+A4kmm7IK5kfTrOlI4dO4rY4+WYBQsW5NQr2gdpTjSmBkmlvgfzShtkApCob4FM2k+mbVnZmR2ltIeCt45ZJx6IeE+k80qEeTdeeeUVM2XKFDNr1iypZGPHjpXZDLiKScNwpNLJ5gV169aVWejs2bPl6xTo8FMlLI90MHQGQUFOHl1jpBHxCV7HHnRE5cuX98+kR7ChM8MmDQg0BpN4ezMrpMOiIXMP6XAdO+EEywMPALNTyn3ZsmXy4Q3KZITZJRmkgckBA1UQ0ok4xZvNSxzz5883NWvWlGtRNg57FqjjpI00UifxBqRKVNjpEGV/hBW2SXQ9nXRExYM9gwN20JY8i5eCF/1cHVi6dKl4kPIKFzdQd5nE4n2Kqs/JyO167gizGwNyz5495RsyevfuLYJ8zZo1uVamici0b2HiTXqxM4SlI6rt7Urysh1H1RnqG2EEHRtMtEhTbhC0Z7BP5xtcKFPqEl5nvMAO2ghiLJjORGRa35ORSXhRbZn6iDAOOoOSOZH2ZvJcUNLB0YFQEBQAM3vX6fG1AXz9TxhUXFzsDBq8GeYaFJWE76PkuwWZHSUDjxOdJrMN4iccJ0xZGuUaX2EAzK4QdLsaGh2dELAkUKlSpRxBQ0Vn9uTynYiwPNK4eBuefGF7Ohk8da6zptGzLDF16lTxkNL4GawJ55hjjpF70oHn6GR4uw7vxMMPPyweEWaI/CWd06ZNk/uoF3wdCd4TlnqOPfZYscPrr78ujfu+++4z69at80M2pnnz5rKE4SYSwMw9GWF2SQZLOIAIxRbMwMeNGydhYTNm/XQuDMxbtmyRe6NsTJzJniUOOmLuqVixonSELo2IX+oBcScjLOx0ibI/Qo70sC2A63zrgrueTjqi4mECyTHbP/iMHj06x5a0dfoEbE2ZAjbP1IuQSvtiokdfRVkx2SNePElR9TkZuV3PHWF2Y4mQc4g1vGdOfOZWmSYi076FFSOeZZsKhKUjqu3tKvK6HUfVmRYtWkj8L730khwvX77cLFy4MPRrl+gP8d5FQXkl69MRuXgsaUeUMfXWgQ1IE2M1PPPMM+KFjSfT+g7UY4QecTsyCS+qLePdJZ84Kegr2EqwO7TCnk6eCkoa2TnnnCOzJJZ0qex0YLjGgUpPRx1Fly5dzHXXXWduueUWKVz2v5x00kmyJ4NzVIRk0BARaOyla9Sokcyk6IRotCyFshflpptukobMUjMN0IXH7IQKGwyf2TCzbgfX+XBv/P38H7yX8zxP3MF7qbzYBDFDB4z4Js/Qvn17+a5N0nr77bcnTFNYHrmPr1aic65evbp05MRDOQDX8VbQSdWoUUPsO2bMGPl+PgR3ovjCIE46F9JEmplt02kRBuXGstuECRNkXxLXyfvIkSPFTiydNGnSRPY7cS8daHDPDWWDXbiP/TzkA/tAunZJBkun2It6xbN0KMzIsQtx43XAhnyFCueIL8rG/E32LG2EwQHbkycGdPaBAnWBwZV6Tp6BPAbrVFjYEH9/GPH2p/MkLAcDN0t67FfjOgMacUI66YiKx+1jxh4MSog359FiTyvtlcmlay/U0xdffFGup5NfSKV9UVepwwgFJsAsRxJ3VH1ORjb1PIwwu/HVKvXr1xd7nXbaadImKM/cKlMHg7vb2sN9YX1LMtinR9oRubSPsHTwCWt7EJ9OnuGcW4rlL/2yOw7e7/Lj+gxXP7gf3L153Y6j6gzL7Keffrrcx3PsE+UceyYhPj5AdM2cOdM/Sk5Yn45HFWFK2qijiC7OA/s5EbqkhTSxBI3nFoLpSbdfDz7LxAO7UgcQhZBJ+4lqy+SfH2ZAcNIHDRkyRN6lcPVAiZHP7o61gQzBHU2Hh+Bi4A/ulwuDDo3n2GxLg48HLxQzGDox7tkdMEPlS4FpLHS2rlECe0KYeYelLyqPzN65jkiiwcRDh0injHjCC8SMLF3YF0Xncc0110jnkyzN5JVN3XTWxOU6cmD2x+ycc9gheM3BUgS/eMOSi9vsn4wouyQDjxcdJyIiaC9sREdD5xUsI4iycbJnsT0eJGb7dH7BZSo8AtiDDplJTzLC0pUOzv505HTWCA82rDtIK98ph10pn3hxnmo6ouJxdQQvSKLlUa7zHZJ42djykkl9dYS1r379+km58GXdtM9EZRtWn5OR2/XcEWY3vDjUM9KPN9ORW2WajEz6FlYIbrjhBvFqOXuHpSOq7e0K8rodp1Jn8LbzXZHEQd+VDNoNYhARzkpfMlLp0+krqaf0r/FbPbAJ309J3aPsEWbJyKS+Ax5Fyh5ImyOb9oNtE7Vl8kF+6HPi+wrlbyYolT2bYOcT3Euj/D2h88R7FRR6ecGuiicTnKCcPn26f0bZFVAn8DRdeeWV2pfkAXj0EZLsMQ97YUX7dCUd8nTJW9m7YEbNslpYB6X8fWCph+W6vGZXxZMJeF3CXvpT8gb2PbPNSZcU8waWqNkPHNVXa5+upIN6KBVFURRFUZSsUA+loiiKoiiKkhUqKBVFURRFUZSsUEGpKIqiKIqiZIUKSkVRFEVRFCUrVFAqiqIoiqIoWbFHC0p+eorvwdqV8KWlP/zwg3+kKIqiKIqiRLHHCkp+uYHf6eZn0ZLBD77zE2PAr+jw25v8mkWm8I37119/vfzsnqIoiqIoipIae6SgRNjxA//8Xje/B5oMfiaJn1cCfq7qgQcekN9/zRR+ZunMM8+Un/vatGmTf1ZRFEVRFEUJY5cJSjyILCcjFoHfjeWY3yeNh3u6desmP8Ae/1uaXOO3t/n90CD8dumrr74qv08ahN82JR5+UzTITz/9JL95iigNUrduXUnT8uXL/TOKoiiKoihKGHkqKBFzJ598shk+fLipU6eO/KB9u3bt5HdEmzdvLj+Az8+avf766/4TxixevFh+Fqp79+7yQ+8XX3xxzp5GhCReS57h8+CDD+YIVDyVJ5xwgpkzZ44cIyL5LdiqVatKOK1bt5Y9mYjFe+65x1SuXFl+7q106dLmsssukx/vB35iimuvvPKKHCNcL730UjN79mw5VhRFURRFUXYmTwUlXsGNGzea+fPnm6eeesqsWLHCfPDBB6Z3795m5MiR5tNPPzUVK1Y0EyZMkPsRhYMGDRLv5LvvvivicsmSJWbmzJkS1ujRo8327dsljKVLl5qtW7fmeBgRijzPdUTmjTfeKCKRe7mvb9++Zp999pF9l/wo/rhx42SZfN68eSJCp06dKuHgEa1Vq5ZZu3atHP/yyy/mrbfekrQqiqIoiqIofyXPl7wRcQMHDjSHHnqofPBSdurUyZx44ommePHi5rjjjhPPI4IQ4fb555+bI444wqxevdp89913plq1aiIqEYssaSM2K1SoYKpUqWKuuuoqU7hwYT+mHRAGz/To0cMcdNBBcs9ZZ50l3keELR5L9maStuOPP17S8txzz/lPG1OyZEmJG3j+pZdeMpdffrkcK4qiKIqiKDuzS/ZQItwA71/+/PlzjmH//fcXjyIflsjxJl577bXmoosuks/mzZvFY4jnkX2YiEIH4eTLl88/2gFeSz4sZ8eDp5H9lsTr4BhvpYM0uqV0RVEURVEUJZxdIihTpVixYuIRnDFjhlm2bJl8WNoePHiwCECE3tdff+3fHVtSt9b6RzsoWLCgKVSokNm2bZt/Zgd4H/F2BgUjorVEiRL+kZHnDjjgAP9IURRFURRFCWOPEpQsdSMceQHGCT6WnnkxBm9j7dq15RrnEIF8tRBva8dTqlQpeeHn4YcflmfxVt5///3yVneLFi1kLyfL2MDb3AsXLpQXeBzcd8ghh8j/7KG89dZbc172URRFURRFUXYmTwUly9EIxP32288/E1tOLlCggH8UW/Lmw728XX3TTTfJW9jst+QtbPZc8lY4YfDCzvr160316tXNMcccI/fg0YRgXPwdOnSovBBUo0YNCRchWqRIEXPqqaea008/3XTs2FFEY5s2beTc2WefLeEgQBGUjRo1kmOW2WfNmmXeeOMNOVYURVEURVF2Jp9NtGa8m8GjyFveeAf5eqCiRYv6V2Iey3Xr1plKlSrJyzlh8DzhsHcTYRr8Tkv2ayIc2T/Jm+aO1157TV7meeSRR0TQ8iJQv3795C1wvvpIURRFURRF2Zk9UlDuTm644QazatUqEZQIUL4HEyHZv39//w5FURRFURQliArKAOzbnDhxomnQoIFp2LChnOO7LHlBJ/hmuqIoiqIoirIDFZSKoiiKoihKVqjbTVEURVEURckKFZSKoiiKoihKVqigVBRFURRFUbJCBaWiKIqiKIqSFSooFUVRFEVRlKxQQakoiqIoiqJkhQpKRVEURVEUJStUUCqKoiiKoihZoYJSURRFURRFyQoVlIqiKIqiKEpWqKBUFEVRFEVRskIFpaIoiqIoipIVKigVRVEURVGUrFBBqSiKoiiKomSFCkpFURRFURQlK1RQKv9oNmzYYL799lv/SFGUbMir9vTVV1+Zjz76yD9SFOXvSJ4Lyu+//97Mnj3b3H777ebxxx83P/30k38lPdauXWvGjx9v/v3vf5vp06ebb775xr+SOyxatMg0bdrUP0qPH3/80UyaNMm8/fbb/pnkpHNvbpNNHncVX3/9tWndurV/lB3kt0OHDub999/3z+y55Ga+lb/ywgsvmGbNmvlHez57Yn1ItT09/fTT0tenyrhx40ytWrX22Po/fPhwc/755/tHf18+/PBDc//99/tHez67uw1on5w+eSooP/vsMymQO+64w7z22mvmggsuMN26dTM//PCDf0c0v/zyi7n22mtlMJg7d64IyxEjRpiGDRual19+2b8re37++WeZJWcCM/YHHnjAvPnmm/6Z5KR6780332xuu+02/yh3yCaPu4rff/9dGnK2MJEZPXq0ueKKK0yjRo38s3suuZVvJTHbt283X375pX+UN+0rN9nT6kOq7enPP/+UfvqJJ57wz4RDf/jII49IH79+/Xr/7J7Fd999l+sOjN0BToyJEyf6R9nx+eefm+7du5tXX33VP5P7pNMG8iI92ienT54KyiJFikgFRvjNnDlThCWz3BUrVvh3RPPYY4+Z//73v+bee+818+bNM1OnTpVKU7t2bTNo0KBIgUSH9cEHHyT0jP7xxx/m448/Du0s8Ch+8sknci/8+uuvckxlcxx88MGSpvPOO88/E4NnPv30053iTnQvQo/lnuB97777rnnvvff8o52h8SDWHdnm8YsvvpA8MRgkIj6+ZPA8cSUqE5eOZOVFHNjKWuuf2RkmISy3Be0eJD6N2PSqq64yZ511ln8mHCYuzOATpY84iTvZRGjr1q3ySQb25ZOIsHyHpQkob9Ll6mamuLIJ1p8tW7aIiIgnKk2JSFa/iI+wKKtEJGo/DuInzZnmPVn7CmtLqRBVzyHT+gBR7SCeZHbKq/a0zz77mHvuucc8+OCD/pkdJMo3Qp8+9pBDDvHPxIiyo7vOs0FS6a+Burhp06ad7g1C+dMnU98TEVV3E5HJM2F9alRbjG93p556qlm+fLn8HySqLpBu6mSw/ZKHN954Y6dJmiPdOhpPWBtIVm7J0hNVzomIaoOZlONeg2e0XcZzzz1ny5QpI39T4bfffrOdOnWynTt3tl7j8c/GIIxy5colDcubWdiuXbtKfJUqVbIlS5a048eP969a61V426pVK1uoUCEJx+sobbVq1eSaV6Fs27Zt7fXXX2+rV68u97Rp08YuXLjQNm7c2HpC2daoUcN6wlju9yqxbdmypfVm5XLsdby2T58+9qSTTrLFixeXz+TJk+Va/L2TJk2yXmdqjzzySHvooYfaZcuWSX7z588vnwMPPNCOGTMmJ01Dhgyx5cuXtw0bNrTeoJhxHsEbMGyPHj3kOnnyxK6dNm2a9Rpewvi4PxHkt2/fvvaEE06Q9BIWafY6FLm+ZMkSW7duXVu4cGFbsGBB26xZM+vNluWa1yjtsGHD7AEHHCB26tChg61atapcA+rA2LFjxUa1atWSfE6ZMkWuZWKTRIwePVqer1y5sqS/W7du1hMWco0yP+ywwyRuwipWrJg98cQT5Rr24F7SVqVKFdukSZOcfD3//PNSZy699FJJC/m+4IILrNfZyvWofIelCXv37t3bNmrUSMrVm2jJ+XiI+7LLLvOPrH3xxRcljQ5XT0kn+aL858yZYy+88EJbokQJW7RoUbG9IyxNifAGQskXeSQs6v3mzZulTMeNG2dLly4t57lOWrdt2ybPhbUfT+TaXr162YoVK0qZeIOknHvqqaekXnlCWO7zBlmp+44nn3xS2hf9SKL2FdVfpEJYPc+2PoS1g0Qks9OuaE9XX321lB+E5Zuwa9asaffdd1+xWYMGDeSZVOzYvXt3sdOAAQPS7q8J/6ijjrIVKlSwZcuWlb535cqVcg3mzp0rbYG6efTRR9vWrVvLOARRdTcRmTwT1aeGtcVk7W7BggX2uOOOk3sglbowfPhwsR1lgS3Wrl1r16xZI+OIKzfSAOnW0Xii2kCyckuWnqhyjieVNphuOe5t7FJBSYOnonmzBf9MOFu3bpUKMXLkSP/MDrzZo3SWDzzwgH9mZ2hcDLSuw6YB1qlTR0QAgql///62adOm1pu92PXr19sWLVpIxQPipfIxYL/zzjtSYalYdFYI2G+++UYaOgOvu7927dp2+vTpcnzxxRfbUqVKiThjABs8eLCtX7++NNLgvYhLOrypU6fKcwxqpNebtduzzz7b9uzZU/JBRXa2OPzww+26deukY8kmj8DAQbro2Ilj1KhRks9Vq1YljC8Z5BdBMnHiRMnvnXfeKZ3JW2+9JXlkYLrkkksknaTt5JNPth07dpR8MtDTAZGPH3/80Q4dOlQGegedIGlYunSpHM+YMcMeccQR8n+6NkkGgxSdMHgzeLGBSw8D0w033CD2JK2ERZ0AOn06HeoDnRH1oUuXLnKNe+l0+vXrJx3O/PnzZZByE6CofCdLEzh7I7LIM2lLBJMF6pDj6aeflgHcQTh0jtRF7EXaGZzIL2VDu6MdMBhBWJriIV0Ih+OPP15EHnkkHsqMcMg7x6R90aJFMgjQWUNY+6E+kKYPP/xQ7iVs4po1a5bUg40bN8p5yhtR4nCCEhK1r0zqTZBU6nk29SGsHSQimZ12RXui/Ji8QlS+P/jgA0knfSBxpGJHBvLzzz9frpNG0p1Of809ixcvlrpHmpi4IAyAsMgfbZu6h7hk0uYEZVTdTUQmz4T1qZCsLYa1u2AbgKi6gE0pC+xJWPx/xRVXyHVsyET70UcfzRFU6dbReKLaQFi5JUpP2P2JiIo/k3Lc29hlb3m//vrrxhsAjdexGE8I+mfD8RqHuPW9Qc4/s4P999/feLPXpG5nnmnXrp3Zb7/9ZG8Ox14HJEsiLBGw7OzN6ownsEyVKlVkOceb3fhPx5ZuBg4caLwGKB+vshqvUzEnnnii8WYvxpvpyVIEaUwEe0cJn3R6nZksH7IXJ0iBAgWM1zmap556StzyJUqUkGPyRbr5kG7+OjyRKGnxZmNZ5ZHlEK+zlX2tnsiXMDwBIukNbkkIxheGJ7xMr1695PnOnTsbryGa1atXG29GKGnxOkjJmzdTNBdddJFc8wZ/eVnC67jEXqRtwIABxuuU/FBjG/y9AUhs5XWmxhMaf1m6SNUmySBur6OQZWvqG3F5A5s8w1YB0kN9wIae+JDwyJPXweTUA6/zMt5gvNMyKnb3xJDxBlRTr14944k3yTNE5TtZmhzsKfZEkeSZtGVKq1atZBmTsqEMvZm+lBV1kDhYMnT7iKLSFMQTf2bJkiVSpw466CDJI/F4g7PUd2xFPSHt3uAn7Yr66CCuRO0HW/L/nDlzpO0TdlTdjCdR+8qk3gSJqueQTX1IpR0ESWanXdGe4gnLd6FChaQOUCbYLRU7cu7KK6+U667s0+mvuc7LidiHMLGNC5t4PPEhW5Koe6eccorp2rWrXINU6m48mTwDyfpUSNYWw9pdPFF1gbSyZ9YThRIWNmM7CMvIrtz4S7lCunU0nqg2EFZuidITdn8iouLPtBz3JnaJoGQ/Ah0EA4M3S/TPRkMnRkeTaGMslYS9DCVLlvTP7AyNjLfzvJmb7B3xZnhyzhPROft2go2MCpIvXz7/KAbngE6LxuyOgUZOY0nWYIJhkQdAjAQpUqSI7CulE6Ci0iF++23yr+QgTBqpI5s8cg0b0gE4SA/2/MzfOxUfXxiUlbMPjZFGjQBAuNLBBMuJAQEQa3SIHGNPIM6gnak7q1atMn369JGBZdiwYTvlKR2bJMN1FAioyy+/XDod7ifN7NX1ZqCyB5iXOEgrootBlXrJJIl08Xn44YclnCDO3tQfPqQFovKdLE0O7Itds8WlDwgveEx6OXaTpqg0BUHE8EE8xEOZUu9c3oHjYN0PpiPYfho0aGBuvPFGc9ddd0nn/9BDD+20tytTMqk3QaLqucPlK936ENUO4klmp13RnhKRLN/xpGJHbOREQxBnr6j+GmHZsWNHEUq8yLFgwYKcOkQcPItwdjjRCqnU3XgyeQaS9amQrC2Gtbt4UqlTQRuSBiaYyco+3ToaT1QbCCu3RKR7fyptMJNy3JvYYa08ArGEF4zZ1H/+8x+plKmCxw6vEDMuGkkQzkFwBhHklVdeMVOmTDGzZs2SSj527FiZvQAVgk4jKFSpaOl2krlB3bp1ZWY0e/Zs+aoNOv5UySaPdNp8gtcRmTSO8uXL+2dSJ2g7wkHslylTRkQqnRDnHHggaKwMGsWKFZM0ONFCOMFGT8fILJPyXrZsmXx4sSsZYTZJBGlhwMQjgXdx/vz5pmbNmnINW7Axnw6J8qFz5GUD6iUihw5+6NChOenig6hMhbB8h6UpHagDwYE7mzqebpqwD3bH2xMP5U54wcnY5s2bxa5R0MH37NlTvu2hd+/e8nbwmjVrZPAlvGT1KIp06008UfU8itxuB8nslNftKVuytWMq3H333RI+9mA1Bg+ew4mmYPzBcsik7mZa34NtlfS4PpWwkrXFsHYXT7p1IYpsw4tqA2Hlloh074+KP5t+a28hTwUls6m+fftKAY0ePVrOMUi7QY6vluArgJLBgHjuueeapUuXypuDrqCpqHwfZYcOHWSwTwQNikGGGQcVgDCcKKXi43lCJJBGKgUzbxrsroTZMJ00NG7c2FSqVEk8i0DHymzd5TkR2eSRjonlp6lTp4rop+HMmDFDwjnmmGPknnRAFFOehIMwJhxm0HhHSOO0adPkHOXP93DiQWGSceyxx4oN2BJBR37fffeZdevW+aEa07x5c1k+oZNyMJNMRphNEsE1bMJMk0GYAXjLli1yjfOuA2Fpg69LcXUXLw55ePTRR6UTAsoKO6dCWL7D0pQOTMYIk+0UfGiDmdbxdNOEfSh7BDb1nOf5DjzejmzRooV08C+99JLcy5unCxculOXFKFhyIy8MnCxNOdHMchZth6/jwp58K0SwHsUT376i6s348eNDv3Ilqp5HkdvtIJmd8ro9ZUu2dkwF2iv1kzpA34c9HCyVE//cuXPlGK8Wfagjk7qbaX1P1qeGtcWwdhdPunUhCPUJzy32c0SFF9WGotpAWLklSk/Y/YmIij+bfmtvIU8FJd97hcH5VK9eXZQ8H/aFAAVCgwmjS5cu5rrrrjO33HKLdCgsN5500kmmZcuWco7GnwgqBwKN/T8IATc7pwHyDF85xJ4g0oWAYr8FgxIwG6aCBsPG24dHz8F1Ptwbfz//B+/lvFuCCd5LZ4krnrgRdyzpkV9o3769fN0SS018KXyiNGWTR67jtaDh1KhRQ2w7ZswY+X4+OtVE8YXBPimWONgfyySBZRjio7xYepswYYLcQ37I98iRI8VGLEk0adJE9vJxLw0ace2gsWIT7qtTp46EiW0gXZskAnsQPvtLsdGoUaPEFoSJ6EaUs6+Lzp0OkfCxE9fJL/bDS96wYUMRcG6CROfGYO7idWmlHkBYvsPSBIQTrF/JcHu/sBueAwajoPc5PhzC55xb4uMv6eVvVJriIRy8tyzFUb8qV64sAzOdO0unp59+utiAMNgrxjn2hLpnk7Ufvhqkfv360l5OO+00KWfKiE/btm1l3yX2ZCAgnQ5XHo749hVWbxjI2YsY5m2JqufZ1AcIaweJSGanvG5PECy/qHxzPnicrh0hUboJL1iHuM6He/HsIYyxN3lHdHANiI+9czfddJMINrYhYTMXdlTdTUQmz0CyPjWsLZKPZO0uvg2kWxc4djalb2QMZoxBwEJYeKm0IZ4LawNh5ZYoPWH3JyIq/kzLcW8inw361fdgcF0zSCC6eImEyhEFgz3PsHmbxhUPnjuu02HSeHcHzCAR3lR0hFywwrNnA48XQoA8JCLbPDL7RXSyoRtvb6K9SVHwohWzQWaf5CVRXOSTF1fo1IiHvw68RMyyOYcNgtcceAr5hQ6WJdxLRMmIskkisAEDF52RK4NnnnlGNv/jHXDh0LEvXrzYPPvss3KM/dirg4eAzptBKFWi8p0oTeni7M5yfSZbGeJJN014xd59992EecRDiOcEm6X6oh7gbcADRx1DxDsoC7YoUP7EFSZ6IL59Jas32O/MM8+U/c54qsMIq+dR5HY7SGYnyOv2lC3Z2DEV8N6Rf/KTaCmdNo13LVnfm0ndTeeZVPrUsLYY1u7iSacuBEEkUi8AOzkShZdqG4pqA2Hllig9UeUcTyptMNN+a2/gbyMolT0X1/lNnz7dP/PPgKUNZrm89cobfXw5Ll5xZqVhWzWUfxZ48hms8JJFiVRFyQ3+aX2qtqG9AxWUStYw6+SNcTaK/5PA48WWDDp1vD1s12BZh329waUj5Z8NdZuXNcK8PIqSm/zT+lRtQ3sHKigVRVEURVGUrFDfs6IoiqIoipIVKigVRVEURVGUrFBBqSiKoiiKomSFCkpFURRFURQlK1RQKn97+A5I9/vjf0c2bNgg3yenKGHw3YLUld3J372t7SlQlnxHKN97qCj/FPYKQcm38/NLIcquhV+XadasmX+UN/BF1vwEJ796koxg+fMF+fyUG18WnFc8/fTT8mXoqUDaSD9fvruno+0onLyu7/xMap8+ffyjXU+6bQ3SaQt/d1LNK19Hxvcx8os89Ed7Ont6u+dLxvl5ybxA+7z02CsEJb+6wLf372nwM4e33Xabf/TPg99W5hd48gq+KJffJ+enODt37uyf/SvB8scT+MADD8hvPucFDBb8DnDUT4oC383G72tfccUV8rN22ZLX9WlPbUd7CvH1PTfL44cffpDfjeen33YHmbS1dNrC35108srvQfMb4fzk54EHHuif3XNJp93zfb38nPCrr77qn8l7cA6E/UZ4Nmiflx67RFAyiOPe5wft48HlzzIOHWYi+PmrsB+s52eQ+MRDB8jPZ/HTS4kISxMwc+SXUQgH+PkxjhMtUUTlgTD4mbf4uPhprPfee88/2oFLeyYVmTSQlnSXUlyc/DpDutCZbtq0aSd7ZUo6ducefrt5yJAhf/nCXJef+PLn57Lo7PgFnCDUIeIhL0EoM2bAdCypwK9A3HPPPebBBx/0z+yAzja4XEiY/B7vWWed5Z9JjWR1N1l9yrR+QjI7OqLCJkyuu/IMg2VAbJ1JvU9Wfi79YWEm60MoH7xyieySCsnKI6rvSQS/oU0/yG9rByGMdOpnEGebYDpY0maiEw/3ptvWkrUF4sOu8WlOpazCSFYHIMxOycqZdJAe0hVFsry6PDlPJGnjJwm5l9+6Tod00uPItE0lK1NHsnaPLfkd+USOhKixKb5/hFTGA365bPny5f7RDngmWb8W1gaj8p5J+91r4IvN8wpPnNiuXbvaMmXK2EqVKtmSJUva8ePH+1etXbhwoT3ssMNsrVq15JrX0OyJJ54o17yKZb0OzB5yyCG2SpUqtkmTJtabici1559/3rZp08ZeeumlEnbBggXtBRdcYL0KK9e9SmtbtWplCxUqZMuVK2e9AdtWq1ZNroWlyavQtm3btvb666+31atXl+eJh3Q2btzYFilSxNaoUcN6M0y5HzxxYuvVqyfny5cvb/v27Wu9DlmueWLB9unTx3qzelu8eHH5TJ482XqN3HqzfJs/f375eLNUO2bMGHlmyZIltm7durZw4cKSr2bNmuXkO4zffvvNjh07VuyFPcnblClT/KvhBO2FXS655BLbokULueYNMPa4446z8+bNk2PAPj179pT/Se9RRx1lK1SoYMuWLWuPPPJIu3LlSrn25JNPWq/TlP/DyG27h5W/19HZli1b2ieeeEKOvY7DdujQwR5wwAG2aNGicm3z5s1iz3HjxtnSpUvLea5T37Zt2ybPhXH11VdLuYPLmzcQSzobNmxoPaER2i6SkazuhtWnTOqnI8yOEBV27969baNGjeTZYP1JxOjRoyWMypUrS/pp+17H7V9NTrLyg7C2FNWHTJo0SdoS9Zk67A2SkW3B1fdk5RHVH4bhCRDpAwkDsqmfrtzJP32uN8myc+bMsRdeeKEtUaKEhEdf4si0rUGwLXhiw44YMULsQV2jz3j22WflWqb9HuVI+yJN2GL//fcX29POIcpOicqZvPXq1ctWrFhR+lJPsMi5p556StJFPQBPpEneHcG8uvrVvXt3yeuAAQNC+8owMk1Ppm0q03bvTXrkPm/CIeVIvBA2NiXqHwknnfFgwYIF0i4dYf1aVBsMy3s27XdvIU8FJZWXztd10lTwOnXqiFj0Zh5SSW644QbrzQikM+baO++8I/dSKRgovFmCdER0dl26dJFr3Evn0K9fP+kY5s+fL53ic889J2H179/fNm3a1G7atMmuX79exBGNGMLStHXrVmnkDIKkg4pdtWpVqdSETVpOOOEESQvQaREPYRAvcREWnRRcfPHFtlSpUnbatGkyyAwePNjWr19fGtH27dvt2WefLYMRaaLRER4NCkFH+kjTySefbDt27Cj3h0GjOvzww+3SpUvleMaMGfaII46Q/8OIstfGjRulo509e7YcA51jp06d5H/stHjxYgmHsqAR02FDqoIyN+0elR/iql27tp0+fbr1ZrkiIo4//njplKmTnOceBgQ6QI4Jc9GiRdJBMjhFQbnTEQFhMYhQNuvWrZM4w+pgGGHPJatPmdbPKDumEjZihY6cPHNPGNgbcQjLly+X8g8Kt0SElV9UWwrrQ3iWgWvq1KkSDwMJYUS1hWB9T1QemZY7UPcRSs6O2dZPBBbPkhb6VQQHfTHpHjlypLRHhHk2bQ2CbWHWrFmSZtLOswiEZcuWRZZVGNgc8XL++edLOVF3cEA4QRxmp2TlTF9K/j/88EM5T92irpF+2jH1AEgnItgRzCvpQrySLsLk+bC+MoxM05NJm4oq07D6AOQRJ9Gjjz6aI9rDxqZE/SPn0hkP4seZsH4trA1G5T2b9ru3kKdL3l4nZdq1a2f2228/4xWOHHuFIW5sPriUvYokywVeJ2C8Tleu4573GoPxZh3ievYqlfEq3U7LR14hG6+iGG9QMN5syXgdpPEaljzrzaBkeYZ7CNcTp/I7ohCWJiAtAwcOlOUIPl7jMN6AYU488UTjzXRy0uRVfPPWW2+Jm95rHGb16tXmu+++M95sxngzUQkLWrduLWnxZs7GawSynMR93ixc0sCHNPDXm61K+r0GYbzOyHizWHPRRRdJ2OQtDDaEs5xboEABSZfXoFJaGomyVxTYyGuAki/SeNBBB0WmNRG5Zfd08kMYPNOjRw9JN/d4A4LxZqbGm/1LnfMGcUmbJ1okLV6H5j+dHl5HJXliuTCqDiYj7LlE9Smb+hllx1TCbtasmfFEleQZG4ZBOryBX5Z1vUFA6rE3ePlXExNWfqm0pWR9CHHzDHXAG1jkN9w5TodE5RFWflGwnFuyZMkcO2ZbP1u1aiW2Il/exF7KDluRbsqNpUVPYOVaW4Nnn31W7NyyZUtJM389QZdVvwfUm+uuu07KqUGDBrIt4KWXXpJrYXZKVs7UB9rBnDlzZAmXuhW/zJ8K5OPKK6+UMHk+074y0/Rk0qaybfeFChUSO/OXdEMqY1OwfwTCSHU8SESyfi2sDUblPZv2u7eQp4KSSsyP23uzC9nnwKZuznlCVjrH2rVrG2+maGbOnCmb12mAVE4Kic5s8uTJ0rHwefjhh6VjCJIvXz75mz9/fvkQtjejlQJmUHFQOd29YWlycD9QuQnXHQMVlMbAh06exnrttdfmpNOb1ZtatWr5d+9II9BZA8I5EYRHo8M2DmwCiO8w2CuyatUqeQuUdAwbNmwnGyQjyl5R0Kg7duwoHQybsb3ZaMI9TKmQG3ZPJz90znwQEvFgTzpB4nVw7M1S/aPUIW46UUcqdTAR6T6XTf2MsmMqYTOgUJ9TwQ38iJnLL79cBtooe4SVX6ptyeUn2IcUKVLE3HHHHTJwkiYGtkzKPZ5My506T5kERUS29TNY7tgpeIwdOGawzq22BoRFGcSLoVTLKhnEFxQipIcxBMLslKycEaU33nijueuuu8yRRx5pHnrooYz6NOJ0ogoy7SszTU8mbSo32n08UWMTYQf7RwfxQtR4kIhgHQz2a2FtMCrvmbbfvYkdJZQHvPLKK2bKlClm1qxZUqHGjh0rMxeg4bIRmsY1e/ZsKUQ2NDNLpALQEIcOHWqWLVuW80FURkFFo/IhSB00PlfoYWlKFzZXM1ucMWNGThqXLl0qXo9MoIPDM0CldjBrokIHO9tEMKgy+2Wm6NLCVx5EEWUvGhQNOiiCg4347rvvlvSuWbNG3l7E65HXhNk9Kj9BqGeU/bZt2/wzO8De2D6YVzpO6me2ZFoH030um/oZZcfcrPvYmY6aF6VYhZg/f76pWbOmfzU5YeWXTVuCunXrytcA0TfxVTAM4lFtIYpMy504yU8wn3lZP4PkVluDMmXKiEDkniDZllUQwv7ss89yJhlRdkpWzj179jRr1641vXv3FvFE/4ZninCcV4x8xucljEz7ykzSk2mbyot2n+nYlBeEtcGovOemdvinkqeCkg6QSs9sk4pPxcOjALwh5Ro6bmy+NgW1D8xWmJXxNRmucGk0dARRUHnxfNJB4OLmGWYS7o2ssDSlC2KYSkhchAXEmcqsGuhImfG5DoHZJ2mbNm2ahIfonjRpktiCpYswmjdvLssJbukBmElGEWUvhD3lQWMinSwVca+D8uE6eWGmTxrymjC7R+UnCOnG5kxUeJZ6wPeZ8VZkixYtpNN3S2e8Rbhw4UJzyimnyHE2ZFoHo56Lr0/Z1M8oO2Zb94OQB8LFc8TgycC5ZcsW/2pywsovm7ZEWAwYwJJspUqVxHsR1RbiiS+PbPoexAA2cZ63vKyfQXKrrQGigjQjKOCZZ54RL1o2ZQUsV7PShS1ZPl+8eLEsp0OYnZKVM2/wEiYTFpZOyT9jE0KK63zlGAL43nvvNevWrZPnUyHTvjKT9GTaprJt91xjAkT+HJmOTXlBWBuMyntuaod/KnkqKNnLQiNl3wGCkVkVhUYFZ7ZK4dEBMEMcP3683D9mzBgpNNziNBL2WDZs2FD2M4wYMULCpcLSuAgHmMlSkZld8OygQYNkj0P16tXNMcccI3swaHwQliYXDmE4CDO4bMd1PtxbuXJlc9NNN+V8BQT7g9jr8eKLL+bcG3yWcAnPpbt9+/byJcG40PlOMpb7WdqYMGGC7OHgPJ0rX4IbDCcRdJBdunSRJZU6depIegg/inh70bHS4bmZF//37dtXOnvyy9eGsJeFfAAzYBpWkyZNJD46TPINrpyiyE27R5V/MC7+4gVnKahGjRoSLp0JeWZJg+/8w54Mauwz4xx7AqMgXJf2RHkLq4NhRD0XX5+yqZ9Rdkw37DAIk7rLfiXiGTVqlNg8aLNEhJVfVFsK60O4jyVJly88kqQvqi3E1/f48si03IF0IAgQqJBb9RNcWyD9wF/yxN+wco6qIxCMi32MCDzSSppZAmV/Wjb9HrCnDqFIOIRPX3TGGWfItTA7JStnvvamfv36cu60006T8mKs4tO2bVvDHjviQryRZ0cwr/H1C8L6yjAySU+mbSrbds+4jpgnDCYKEDY2JeofE50LGw/i2x3n4+u369fC2mBU3rNpv3sL+azz5+YRiEIqOhuT6fQdzE7ZsMwygzuPYGR2yeZtwN3MvhM6Uioys61UYYZBvFQAOqkgydKUKcxS+M45Zo0I4OC+mSjYX8JMiL0upAcIjxeRaCjMCPmbKnh9+dUVlibY1xJslGFgL2ax2Isvir300kt3egmKGSff/0X+XDodzE6JE1umu0SVDWF2Dyv/eHiecLAznWPQ3gzgeLyoexUrVvTPZk+mdTDquWT1KdP6GWXHbMKOh46cQZ6BiEEhVcLKL9O2xHO0A9JBmMH0hLWFeOLLI9NyJz5+pQbhhTBz5FX9jCe32hp9OnnBhpQHIt2RSVnh4WQcYUkX7y2De3wdgGR2SlbOpA/PIPnBmeEg/WzVohy5P10xkWlfmWl6Mm1T2bR7vHc8C9R7R6ZjU24T1QbD8p5p+91byHNBmQyWIJix8XYXb97Rydxyyy0ye3SeSGX3gNiPF5SKouxeeGmEZVP2cSkxnKCkz8LpoCjK7mO3+Wp584xNra+//rosW02fPl1EzNVXX+3foewuWIph/5KiKHsOl1xyiSx9Kjugr2JLlL4coSi7n93moVQURVEURVH+GehuUkVRFEVRFCUrVFAqiqIoiqIoWaGCUlEURVEURckKFZSKoiiKoihKVqigVBRFURRFUbJCBeXfAL4MN5WfzVIURVEURdkd7DWCkl9J4Hd+o+Db/E844QQzZ84cOY56jh/gP//88/2j1OELivld1lTgN4PPOuusnN9LVRRFURRF2ZPYawQlP681ceJE/yg5v//+u4hKfnQfop7jZ5oyEXrEg6hMBX5JiJ+6cr+XqiiKoiiKsiexSwQl4mnDhg3yW6vxIJT4LdKffvrJP7MD91veCLx4wsIEfruVn3MkDOAnHZcvXy7/O/iNU34fNVHcjkTPcT9p5ndM4yG+TZs2Sdz8pmk8/CYrv++b7Pvkt27dKp8g/Dg9P6rPz4wpiqIoiqLsaeS5oFy8eLFp3LixadOmjfwg/MUXX5wjAh944AFTs2ZN06lTJ/lJsZUrV8p5fn6R+0488UQRUvwY/h133JEj0MLCRMidcsoppmrVqvLD9Cwrs//whRdekJ97BDyKZ555pjzL9YoVK5r77rtPrsUTfA6efPJJea5u3bqSBjyYjqVLl0p6Od+oUSP5/80335RriM9rrrnGVKtWzRx99NHmggsuEO+mA6HJb5vzXNOmTeWzZs0a/6qRY2cfIL3XXnutCHJFURRFUZTdSZ4KSjyLgwYNMt26dTPvvvuuCMElS5aYmTNnyrUJEyaYUaNGiSjjPEINtm3bZh555BF5DqF10003ye9+I7DCwkRw3njjjeb7778XzyOevr59+5p99tlHlrC//PJLCZ/jXr16mfXr14sHdNiwYSLQiCue4HOfffaZiDiEH+dGjhy5k6AsUaKE7LfEA0n8Bx98sIhmeP75583UqVPN//3f/4kHE1G5ceNGuQYIZjymq1evNu+8846pXbu2GTFihH/VmMqVK+8kQAmfuPHUKoqiKIqi7E7yVFC+9dZbItKOOOIIEUoIIjx0CMACBQqYAw44QJZxEViIMY4deB8Rffvvv7/p3LmzyZ8/v4QRFibn+dujRw9ZJi5cuLC8zFKuXDk/1BgHHnigadeundlvv/1EVHKMh/PHH3/070gM8SF2EZSkC09o165d/avGHHrooeJJRNAiFkmDE414Oo888kjxiJKuAQMGmMMPP1yuIZIRnMcdd5wIXAQl3tX33ntPrkPRokVzlu9h9OjR5vHHHzdFihTxzyiKoiiKouwe8lRQso8RLyFevYsuukg+mzdvFk8kQgivHCIQ8TRw4EDx0DkQe3gSAQGGoEI8hoXJ8i+f0qVLy3PJYPmZt7NZFmeP5J133innku1rdLBUjrBFgDr23Xdf/z8jYrBjx44idrt3724WLFiQIwJJc9myZUWIQr58+XLyh5jlBZ3Jkyfn5Onhhx8WuziC8SiKoiiKouxJ5KmgLFasmHjpZsyYYZYtWyYf9hkOHjxYrrMPEc/d7Nmzxdv20EMPyXkIijs8h7wIU6ZMmdAwCxYsaAoVKiRexDBeeeUVM2XKFDNr1iyzatUqWU7nuSgQtr/++utOnsyg1/Duu++WayzNr1ixQryjDtKNaHRL1OTPPUu6EcxDhw7NyRMfRKWD/CNCFUVRFEVR9jTyVFDiqcMjh2B0L9TgZcTTxwcxB7zEUqlSpZyv6gGE5hNPPCGiC7HJ83jswsIsVaqULCsjxDjGW8meRr5LMgiCEw8oHkPCQJCm8nLLYYcdJs/NnTtXjvFAkg4HgpE04H3F88ryvOPYY4+V/L7++usiStmzuW7dOrnGMw0aNDCPPvpozlcJITzxvDp4sQjvqIOtAuw/1ZdyFEVRFEXZ3eSpoORFEl6oueeee2R/Yb169USU8X2KLG+zLOzO//bbb6ZLly7+k8ZUqFBBXpbhDWxeTrn88svl3rAwEZp4+di3WKNGDbkXwYfAY8kYTyAg7hCw7KPkrWo8iiyTswSNF5BwEI4QfI4lcvY+Ej8v3LBMzz5Kdy97KxGnTZo0Me3btxeh6Ja4WQrnfKtWrWTPJ+ISIQ08T14RmuyrbNiwobzZHnwph/s553j55ZfljfNEX12kKIqiKIqyK8lnozYO5gJ40XgjG/GDYGJ5153nTWVEF6LQia9+/fqJp44vFOc64g+BGSRZmMA5riEGCTfR/kPEGx5CXgRCfKYDeyXZE4nHNPgiEeAZff/99yXMkiVL+mdj4HVcu3Zt0nThjSVsvJGIYUQrsIyOIEW8XnHFFeKRPe2008wZZ5xh+vfvL/coiqIoiqLsLnaJoEwXJyinT5/un9m74auR+K5N7IF4Zv8ontcHH3zwL4JWURRFURRlV5OnS96ZgnfPfaWOEvNs4plkiR/wVk6bNk3FpKIoiqIoewR7pIdSURRFURRF+fuwR3ooFUVRFEVRlL8PKigVRVEURVGUrFBBqSiKoiiKomSFCkpFURRFURQlK1RQKoqiKIqiKFmhglJRFEVRFEXJChWUiqIoiqIoSlaooFQURVEURVGyQgWloiiKoiiKkhUqKBVFURRFUZSsUEGpKIqiKIqiZIUKSkVRFEVRFCUrVFAqiqIoiqIoWaGCUlEURVEURckKFZSKoiiKoihKVqigVP4R/PLLL+aDDz4wv//+u39GURRFUZRdRZ4Lyu+++87MnDnT3H777eaxxx4zP/30k38lNb766ivz6KOPmn//+9/mvvvuM++8845/JTu+/vpr07p1a/8ofZ5++mnz+OOP+0fhpHNvbpJtHvOa4cOHm/PPP98/ypw///zTjBw50gwYMMD8+OOP/tk9E+rzCSecYObMmeOf2bvIrTJXFEVR9izyVFB+9tln5qSTTjJjx441r732mrnooovMueeea3744Qf/jnDmzZtn6tevb0aPHm3effddM336dNO0aVMRl3/88Yd/V2bgyUJwZQICZu7cueaJJ57wzyQn1XsXLVpkevbsmXGaEpFNHncFTDa++eYb/yhzVqxYYRYsWCCTlgMPPNA/u2dCmSAqt2/f7p/Zu8itMs9NPv/8c9O9e3fz6quv+mcURVGUdMlTQXnAAQeY//73v+bll18WLyXCcunSpSl5GdevX2+uuOIK0759e3n+wQcfFNFw3XXXmTvvvNO89NJL/p07g4DbtGmT+eSTTxKKTgaPTz/91Fhr/TM7wzMff/zxTp7ULVu2mO+//94/8oy2zz7mnnvukTTF88UXX8jHkehe0kj6gveRrpUrV5qff/7ZP7MD0rJhw4ac/LC8++GHH4owSURUHgmP5xPFBfHxJYK0kwfyEk/YNcL+6KOPJA+JQHARd7JJhysf54kkjmLFiomNDz30UDmXDO7l2XiRHWVP4sSewTrhSBYmkAfyErUMHxV/VHlElaeDtIa1DZfeRNdSKZdkNgor86g0ARNT6rQDUbp161b/aGeibE5aSCfxOrDbG2+8Yb788kv/zA5Sta2iKMpejyc6dhn/+9//7MEHH2zffPNN/0xy7r//flu5cmW7bt06/0wMb2Cx9evXt57Y9M/sYMmSJfaoo46yFSpUsGXLlrVHHnmk9USaXPMGBDts2DDriVxbvHhx26FDB1u1alW5BldddZXt06ePbdOmjfUEiqRzzpw59sILL7QlSpSwRYsWtZ4g9u+29uqrr5b74fnnn5fnLr30UlumTBlbsGBBe8EFF1hvcJPrwXtXr15tGzRoYGvVqmUrVapkPXFsJ0yYIOnad999JZ527drJvaSpd+/etlGjRrZcuXJ23rx5dvTo0bZ8+fJimwMPPNB269bNfvvtt3J/VB5/++03O27cOFu6dGmJh/tI87Zt2+R6oviCkM+2bdvavn37Shj777+/7dy5s/UGYrnuDfy2R48etlChQrZIkSJiw2nTpllPKMj1uXPnyjniPvroo23r1q1tp06d5Bq8+uqrtl69erZGjRqSR+LxhLxcczbu3r275G3AgAGh5R3P/PnzbfXq1cVmxD906FBJV5g9XZ046aSTJE4+kydPlmuQLEzsTF055JBDcsp5ypQp8ownhGzt2rXt9OnT5Tgq/rDyiCrPIGG28sSXHTlypJRNzZo1pf6TFs5BWLlE2SiszMPS5Mq7f//+kr/ChQvb4cOH24kTJ4pdCxQoYLt06WK/+eYbuT/M5vQZ1FueJw+ERVrWrl1r16xZY6tVqyZtj/OUA0TZ9rXXXrO9evWy77//vhwriqLs7eS5oERU0Wk/9thjIqQuvvhi+8svv/hXk3PJJZfY5s2b5wxcQc444wzbsWNH/2gH77zzjl28eLEM6nT8DHIMAvDkk0/KYMOg/OOPP8rgnz9/frkGpIvBg4GeNDNYMajecMMNdvv27TK4MuBt3rw55/6zzjpL/idsBp1+/fpJvAgNBtHnnntOrgfvHTRokD3zzDNlECdcBjv+f+ihhyR88kD6gOcY3BmguYd8MdB+/PHHcn358uUiGJ3QiMojz3KdPBLWokWLZABl4IRE8QUhfAbd888/33799dcSf5UqVXKE9pAhQ0Tsv/vuuzIgjxo1StK3atUqEVJ16tQRAUL5IzQQSU5cIEqbNm0qAot4169fL/dPmjRJrhM3gzpxUz6kL6y8g3zyySf28MMPt9dff72ka8OGDXbmzJmR9sQepUqVElFMmgcPHiz5o8zCwlywYIFcW7p0qYQzY8YMe8QRR8j/8YIyKv6w8ogqzyBhtkLEIcJeeeUViQexfs4558gEJapcwmwUVeZR7ZU2xTF9ABNMyr99+/Z206ZNInLJ+xNPPCH3R9mcttWwYUPpi7Zs2SL/u0kp6TjssMPso48+KumAKNvSxhGlK1askGNFUZS9nTx/KYfl6s6dO5sLLrhAlgW9jlyWgaNg6apQoUJm//3398/swBtojDeI+0c7YMmTPZYsT2/cuNEcdNBB8hdeeOEF4w0q8pKKJ4rkBQ5vAJJrjlatWhlP+MlSfZs2bUy1atWMN2CaggULmmbNmplff/016Z7EChUqGG8wlbTVq1fPeOI0J+4gnH/rrbdkvxbhlilTxuy7776mQIECYheeJ30O4j377LPlHq6Tfm+gkyU/b5CW59xSXVQen3rqKXPUUUdJeRDW8ccfb0488UTjCV//jr/GFw9xs+2gRIkSxpsgmGOPPVa2H7DMTTiUsydOzH777Wd69Ogh5ccex9WrVxtvsDbnnXeenDvllFNM165d/VCN2MQTIcYTAXIvy5rYf8mSJf4dxpQtW9ZceeWVUj6kL6y8g7z55puyZ5H9u6TLEwYSd5Q9gevdunWTNPMyDXGRtrAweQnLm1BIWOTLE1xJl3Oj4g8rj1TK0xFmK+Ijf5UqVZJ4KD/SQ5pTKZdkNooq86jyo02x7aVIkSJiB65ffvnlcp56jY3d/VE2xz6ERT4Ih3j5VgCWvulnuM5f2h9E2fbkk0+WeGgDiqIoSh7voQQ6Xl6oYVC69tprzZAhQ8yMGTP8q8mhY2efHINsEAYJxAuCJh72snXs2FEGDTbZs+fS7ZVigESQMLBBvnz5/jJAc87BwBQ8zp8/vxz/HrIfzt3PvXzi0w68mNS2bVtz6qmnykC8atUq/0pisANpcbiBjgGWwZUB1ZsYyLWoPLJ3jEHXXQeOv/32W//or/HFQ5iIDiDscuXKifinrBAGhOdACJQsWVL2wPEiBjY5MPDSjAsHKFPSTx3BRnw2b94s4sZBut2AD2HlHQRRQ56KFSvmn9lBmD0hWAeYAACTmbAwsTPl2qdPH8nHsGHDxE6JiIo/rDxSKU9HmK2wMXHyUhPfqDBx4kQRUExKUimXZDaKKvNUys+FTR551h0j4gnbTSxTsXmwLZA3JohBWwdJx7aKoijKLhCUDgYAZvtVqlQxy5Yt888mp3bt2rK5npdzguBVWLNmjXgY4rn77rtF2HAdrxjeRgcDP95FJwgZSBKJj7wGIczLSQx+DGpXXXWVfyUaXtrga1fw+Lz33ntm/vz5pmbNmv7V6Dwi7ggj6LlBHCQS56lA2IhFvK6IHj5BDy5lwQBcvnz5nAGcc45g2kg7niMmG9QPPrzAhdc3GWHlHYSwyXP8m9VR9gwjWZiAPaifePFcXniLP55s4od0yjPMVrQphCDlwddb9e7dWyZ+kEm5OKLKPNXyS4VUbZ4qud1WFEVR/unkqaBkoJg9e3aOp45Bg5k/YhH4Kp0RI0bI//Gw5IyHi+t4N4EOnuVWznfq1EnOBUHMsNTFdZ5hScrB0iwi7vXXX5dBju+0XLdunX9118Bgig14Y7RixYoyALq3R1luQ5zg+UoG9/LWKZ4SvC1r166VN9AdUXls0aKFxO/ekF++fLlZuHChLEWmCm/kjhs3TtKycuVKs3jxYtOyZUtZumepf+rUqWJ78ooIYUA+5phjzGGHHSaTirlz50o4eKOoGw68VHiDOOcGcZZNw75iJqy8g7C0CrNmzZJ04RkjD9g6zJ5hJAsTuzdv3lzSElwWxssXT1R5RpFOeYbZChvTthCOrCiwfO+Ecibl4ogq81TLLxVStXkinPeTNDiibMtEl8kgb4AriqIoeSwo8ZSxVIaHqmrVquaMM84wp59+uuwJAzrpZN/PyP185RAddo0aNWSJjb8I0smTJ8ugFw+eHrwnTZo0ka8bYrByS1YsrXGefZLsAUN4NW7cWK4B9wWXFhkI3UAD/GWJzR0H7+ccHh63pMayHNe5H9y9CA9EHvmoU6eOuffee03//v3lHsQYS4OIM9IK8WliwO/SpYsMZIi0UaNGyf470gpReWSZHftzH88h2jnnyiM+vkQUL15cyo3wGXSJj3IlDZQ1gor8Ef6YMWPMzTffLMKC8mRP50033SQCauDAgTI4u7RTnlxzX/+DPXjuxRdflOvxNoaw8g5C3Rk0aJC55ZZbZJ8g+97YN0gaw+wZbw/OU6akIVmY3EO+CBc7U87kh/SBqxvcF1WeUeURVZ5BwmzFvlu8iXj15s2bZ6655hrJD4IqqlzCbBRV5mFpii9v/hKuexY7cuzaWKo2dwTTzWSIdkd5YguIsi2rJ4888kjKolVRFOWfTj6bbBNRLoGoZDkPbxADTLK9ZMnAK/L+++/LYO2EaVBUxIPnhPsRNSxbBSEteIEYrBgUnTjclSAqWWLEO8OgF1xCYw8i6WMAYwBOBt4RlpIZ/NwA7Eglj+yLQ6gTB57SVGG/Hy/FsDTLvknKIT4O8kf6KC+8W8E9j4Anj0GYfYO8XBMPXjv23OLV5sWL+OfjCSvveLiXukieebHDEWbPKJKFCXj9SBvLxgjQoKAJkk38kGp5JrMVQg/PMwKJNOKBbNeunYinyy67TO5Jt1yChJV5OuWXCqnaPB76GefNJ52OZLZl5QSP6LRp0xLWY0VRlL2NPBeUyj8HJyifeeaZhB5i5e8J20j+97//mRtvvFEmbew9ZHWA7QvHHXecf5fiwDvJtxnccccd4g1VFEVRVFAqacDyJPsEGUh5m1z5Z4B3dMKECbJfkL2TrAL06tVL3jxX/gqrAHhq1TOpKIqyAxWUiqIoiqIoSlbk6Us5iqIoiqIoyj8fFZSKoiiKoihKVqigVBRFURRFUbJCBaWiKIqiKIqSFSooFUVRFEVRlKxQQakoiqIoiqJkhQpKRVEURVEUJStUUCqKoiiKoihZoYJSURRFURRFyQoVlIqiKIqiKEpWqKBUFEVRFEVRskIFpaIoiqIoipIVKigVRVEURVGUrFBBqSiKoiiKomSFCkpFURRFURQlK1RQKorHL7/8Yj744APz+++/+2fyjq+++sp89NFH/pGi5C7UYerynsbXX39ttm7d6h8pSnJ2ZX+s5B67TFBSQRYvXmzWrVvnn8kOBuVHH33U/Pvf/zb33Xefeeedd/wreQOdYevWrf2j9Hn66afN448/7h+Fk869uUm2ecyURYsWmaZNm/pHu54///zTjBw50gwYMMD8+OOP/tlouHfSpEnm7bff9s9EM27cOFOrVq3dYue/K8OHDzfnn3++f5Qe2TybDbuyTg8dOtT07dvXPzLmrrvuMr179/aPkvPhhx+a+++/3z/KW3799Vdz4YUXmqlTp/pn9k52d1+XWzD+tmzZ0syZM8c/k3uk2h/vivq7u/qPvyu7TFD+5z//kQp46aWXirjMhnnz5pn69eub0aNHm3fffddMnz5dGini8o8//vDvyl2YKSG4MoEGMnfuXPPEE0/4Z5KT6r10TD179sw4TYnIJo/Z8PPPP0sHtbtYsWKFWbBggbn99tvNgQce6J+N5ttvvzUPPPCAefPNN/0z4XD/I488Yq699lqzfv16/6wSxXfffWe++eYb/yg9snk2G3ZlnSaP1C1Yu3atmT17ttTlKJgITZw40T/KW2gj7733njnllFP8M3snu7uvyy3cWLF9+3b/TO6Ran+8K+rv7uo//q7sEkFJwSP62rdv75/JHAbiK664QsJ6+eWXzYMPPiiV77rrrjN33nmneemll/w7UwMBt2nTJvPJJ58kFKOff/65+fTTT4211j+zMzzz8ccfm59++sk/Y8yWLVvM999/7x95Rt5nH3PPPfdIWuP54osv5ONIdC9pJH3B+0jXypUrpYOKh7Rs2LAhJz8IeGZzyTqyqDwSL/GTjkTw/GeffeYfpYazW1hjZXkskyWysOdcvG7mS56KFSsmNj/00EPlXKocfPDB5tVXXzXnnXeef2YH8eUKdL7Ee8ghh/hnYrg0JSuf+DQ7sDm2d9D5Jcp3VPknCz8VwuoG8REu4acLdZhtAYkmn1FtNuxZ4Dr2SNR2OMezwfacKs6Oyeo0oo9lvEzCdpB34kg28atcubJ57LHHTKNGjfwzMYiTNh4sp1NPPdUsX77cP4qRLPyoOhTF888/L/W+evXq/pkYyepPWBmBs3XQlvH9rsPdm2naHVH9UaI2D1H1AnFGf/3DDz/4Z3aGPAb7c+BeziVaEsaW2NRNMoKEtddMIX3Jwoyyvbuean8cvD9R/Y2KLxXIT1j/EVVeezWeiMhTvEKxPXr0sIMGDbLXX3+9bd26tfU6Cf9q+tx///3W6zTtunXr/DMxvIHV1q9f33pi0z8TzZIlS+xRRx1lK1SoYMuWLWuPPPJI64k0uUYahw0bZg844ABbvHhx26FDB1u1alW5BldddZXt06ePbdOmjfUagPXEhZ0zZ4698MILbYkSJWzRokXt2LFj/butvfrqq+V+8DpXee7SSy+1ZcqUsQULFrQXXHCB9SqoXA/eu3r1atugQQNbq1YtW6lSJeuJZjthwgRJ17777ivxtGvXTu4lTb1797beYGLLlStn582bZ0ePHm3Lly8vNvNme7Zbt27W62jk/qg8eoJFyq5QoUK2SJEiksdp06ZZr9GKvdu2bWuHDBki4Tds2FDuTwWvMdpWrVpJuKTzrLPOstWqVfOvxuIlnd4AZKtUqWKbNGlivUmJ9QYYscWTTz7p32ntiy++KPmFZM+Bs3n37t0lrwMGDAgt/1T48ssvbcuWLe0TTzwhx2Hl+u6779qaNWtKmRUuXFjyAaShbt26co77mzVrFppmd65///62dOnS8tzw4cOtN1OXfBcoUMB26dLFeoOXhBFW/onCT5WwuuEN6rZXr162YsWKUm+9jl/OpcrcuXMlPOr20UcfLX1Gp06d5FpUmYU9+9tvv9lx48aJ3bhOvaestm3bJtcnTZokNiRMbzCzb7zxhpxPhbA67Ykz27VrV6kTtOGSJUva8ePHy7V0mD9/vvUEmZQj6R86dKjY++KLL5b4wJtc2+OOO856gjunjVI/atSoIXUFm6xdu3anex3Jwg+rQ6nAGHDyySfba6+91j9jrTfoS39DGRAX7Wjz5s2RZZRuvxvWvlIllX4lWV8e1dd5E1Jbr149KR9s3Ldv35y2kqg/xz7kj7S4MWHKlClyP7gyxDaU1c033yxlGNZeM8ET1rZ27drSdzBmxNctSLdvC2vbie6Pr7+5UdZh/QeElZdibZ4LSgZbGoQ3g8kVQXnJJZfY5s2bJyzEM844w3bs2NE/iuadd96xixcvlkZFh3XSSSdJxwCIFhotjdibDUnnmj9/frkGdOJ0etOnT5fOg0GcBnzDDTfY7du325EjR0qDoJN097tOn7CpsP369ZN46QSoxM8995xcD96LED/zzDOtNyuScBkk+P+hhx6S8MkD6QOeoyOZPHmy3EO+aIh03uDN5qTxkyeIyiNiEZGOGKIjGzVqlDy/atUq6VBo/IcffriIe+JLBdKEGGratKkMeuvXr7ctWrSQTsRBR8pggyiirjBYYF/+p3EjVlxHOHDgQNu+fXv5P9lzQF4ZnM4//3wpL9IbVv6p4DpV6gBElesHH3wgZTZ16lRJA4IUIU6d5phOn4GXOkxZJ0qzi4N00gaYYHEPNsCedHiUaVDkhpV/fPipElY36OjJJxMA2LJlS8phY9M6depIWSJE6OAZTF2nHlZmUc9iC2xDefH8okWLRCQhYCiLxo0bS9kAIhCbpEJUnUZ8YXMXHgKNdFLeqUL/SVujD8XeCJWZM2dK3PF9C2KY69iDcqCOrVmzRsqB/92k290LYeGH1aFUoA8kbCd8qAuIruOPP17SRN9DmZDesDKCdPrdqPaVKlH9SrI2H1UvSB/XqA/cy3XqBRMbSNSf07aw5dKlS+WeGTNm2COOOEL+jy9D2sp9990nz4a110ygrIiXiXGiupVJ3xY1HifqC139zY2yjuo/ospLsTZPl7xxO3vGN14hm4oVK/pns8OrLMabZZn999/fP7MDr2Ebr7H4R9F4lVH2XnoDs9m4caM56KCD5C+88MILxuuY5OUJb8YjG4S9xirXHN7M03gdufEquvFmT8abeRqvEzDe7Mh4syPZiJ5sacrrVMzgwYMlzd6Mx3idZE7cQTj/1ltvydIq4XqzYLPvvvuaAgUKyPI4z5M+B/GeffbZcg/XSb/XQctSjddI5DmvYci9YXlkacTrFI3X8ctLJPvtt5/xZrhid/a4OLwO0xx22GESXypQJ8iLN+MXG3gzfuM14Jw8cN0bVIw385SlC6+TMZ5wlf1XpP20004z3kxUlu9Y7mWLA+fCnnN4s15z5ZVXSnmR3rDyz5SwcqXeUiaUI2lgywLpps5wTPouuugis3r16pxn4tMMxMG2jyJFikh5k+7LL79czlN+3oCW83xY+UOi8KOIqhvkHZuyYd8bgCV9qYZN3r3BRLYREB577rp27epfDW+zUc8+9dRTUic6d+4s5eAJGnPiiSdKXrALNuAeb/A3JUqUkONUiKrTnuAx7dq1Ezt5g5Ac04+xbJcq7EH0BkZz7rnnSjieyJK8kY8wuE5d8QZ/sRW2Y9k9fnkyLPyoOhQF4fIh30C7pQ1TZ0gTdqIf9Qbv0DJypNrvptK+okilX0nW5qPqBf06tqBsSBNbVsgLtnHE9+e8sEn7pgx4vlSpUjlL4fFlSFvp06eP2CKVvjxdSBN9R6K6lUnfFtUfh/VVuVHWUf1HKuW1t5OngpIXFvLly2fq1q0rL89QAAwwiAHXCNKFRktHTMcWhPAY6BgIUoUOwpvBSAXp3r277MV0HS2dJ5WSigXkI77z5pyDBh48zp8/vxx7Myn/zF9x93Mvn/g8AY2ibdu2sl+Ejt2bUfpXEoN9SIvDddB0TIgOGpc3kZBrYXnExjRsOi8HAqZkyZI5+yW5nw4tHejwCJvBw0GczhYMtHSA3qxc8s7n4YcfljyAN8OXMqIR04mw3+WEE06IfA7IJ/ZxhJV/NqRSrkB9paywqYPyALffKj7NDhcH1+lc3TGDBXG6iVVY+UOy8MOIqhsNGjQwN954o7xtzITloYceStmu5Jv0O/EBwcEjrMyinqXfIc2uvgPH7DUj/XfccYcMGNhr4MCBCfegJSKqTlP+vC1atWpVacfs9eZcsByiYKCjrhQrVsw/kzrBfgsxg+CKjzss/Kg6FAV1kftdOhgD+CC84gkrI4ezK4T1u6m0ryhS6VfApYH4+VC+UfWC9NEH85KeC3vz5s0i+hzx/Tn2YQxAKHL/sGHDcsJPVoap9OWZkqxuZdK3RfXHYX1VbpR1VP+RSnnt7eyskHIZZnEoeQZ8Zh7//e9/ZRMtnSqbeDOhdu3asiGWmX4QZkZr1qyReFLl7rvvlsbGc8zUmPU6aJR0JE4Q0khyQ2ykCwJ57Nix0onQYJnhpgozNgYyZlyUxfz5803NmjX9q+F5pHHy4boDW9Gxly9f3j+TPnQKNNpguMTpBii8DHQafBXKsmXLcj504sAsv0mTJuL9mjt3rngEGKijnktEWPnvCujU6YBJg4MyY8AJdoyZElX+mRJVNxhk+AYC3jjm62vogLFxKrhBKWiTYLsLK7OoZ7EpNglOZhkQ3CSUiS9ee96S5mu7EMKpEFWnX3nlFTNlyhQza9Ysace0Z7zV6UBbJd2IlLwgWfi5UYdom9QJ9wINx+QfARRPVBmlQ260r0z6FUdUvcDmeOFmzJiRE+7SpUvF25kMRDhjHBNq9wzf+AHFixdPWIZ51ZeHkYnts+mPc6Oso/qPTMprbyNPBSUCkkrsPoMGDZIljDfeeENEAF+NM2LECP/u1GCJg8rDc3gTgIrDW96c79Spk5xLBdKEh43nCAuXtuPYY4+Vzv/111+XSsZ3XebWd2imCpWZhsVsni0DdCT8D3TIdByJOmUH99KJMzOlQ2eA501IR1geWVpHrE2dOlVsQ1poSHRYxxxzjNyTCXSITAoYtPFYM1jgsXGDDeWBh4vvGHUdIIKX+4B8sBxGJ4qo5H9mkVHPJSKs/HcFeO/wKE6bNk3sSgfP91qSD5YYsyWq/DMlqm4wuWPZmMEYrzoDazIvbTxsn8AmTBYALwV1xRFWZlHP4t2mPblvgmByu3DhQlnawjtBW4DGjRubSpUqpSzeouo0bZR04THBRgxCrh2nCsuBgCjF3nhz+E5T2m1ukCx80p5tHcLjQ51xTgDKj7qPKMPu2ILvE+St7rAySpfcaF+Z9CuOqHqBJ462wXXSB9wX5lFr3ry51PngMiteM2BMpZ25MqScyDtiPKovHz9+fK5+BU8mts+mP86Nso7qPzIpr72NPBWU8TBb4+Nc/nQWUd+3GA+NBqFK51OjRg1xN/OXpQCWJdj7kyrMuunc8XjxNURUZioM4HrnPPt12CfBYMNA4+A+Zn0OKiLnnIucv+TVHQfv55ybtQP24Dr3g7uXho/II3916tQx9957r+xZBDoIOmq+25O0QnyamE116dJFvJp0HKNGjZLGRVohLI/cg2eJAYv4eW7MmDHm5ptvlobn0uzCShXuZ2LB4MJXiJAuBjPS6q6zjEO87Ads2LCheCWDEw+ENTNrZuTsbYKo5+JtDmHlnwrxNogqV84Hj7E5S8MTJkyQPVbUbTrCkSNHSjkmSnP8Of4SnksDcXLMJ6r8E4WfCjwfVjeYMPI9sdRR9reyf5CBNRWwAXt5b7rpJhExLD0jJlyaw8os6llWRk4//XSp96SZySnn2KOG3Vlmoy6SbpZpsV0qEH5YnWbihkDFDnydDx4YxEY6dqefI45bbrlFwmKgZB8jcZP/RH1Lojaa6F5IFj52CqtDqUA7ZYmYPX70aaQBjx9L59Qf+mwGaYREWBlBMP3g8k9egL/Uff5Gta9UIPx0+pVgm+fZsHpBvqmr7ityqHe0nxdffFGux+cVqM+UB/ZhTOA52gHwLFsSaIeUISILUUZawtor4ojJufN0pkJU3cqkbwtr24nud+cgN8o6qv+IKi/FqxfW+d//ZtAI3n//fen0EBdUhnQ6aAezC8KhocW7xpmJMiOn4lJx+LuroQPG48PsjUocXPphXwzpo4OgASSDDo3GRQfjGqgjKo/Ez/PYmRlasj0s6cLMDm8oHR8dQDzEi5eEWTYNOSx/QdJ9Lqz8dxV4aNjsj+2xcW7Xs7Dyz4awuoGHgXpL2TIApwtliOcFIcIm+yBRZRb2LLAXigkpdSP4siDl8Pbbb4uNaAvp2iqsTjOYc430kO5MIe8sPZPuRO0mW5KFn20dwmt2ww03mGeeeSYnXLxp7K1P1PckK6NMyI32lWl/BFF9HenDDtgD0ZpKH8uqHG2AZVgmA0Fhh3BncsSeYAS5I1l7xTZnnnmm3M8LULlJurbPtj/OjbKO6j8yKa+9hb+toFQURVH+HjDBwNvDW7q7eq/y3gT7/xBkfLMKb3X/61//8q8kB+8lDhq8eZk4ZRTFoYJSURRFyXPYm8ZWApa0lbyBJW6W6PGasaSdijeclS5eSMnEm6coQVRQKoqiKIqiKFmh/m1FURRFURQlK1RQKoqiKIqiKFmhglJRFEVRFEXJChWUiqIoiqIoSlaooFQURVEURVGyYpcISr4IlC/LDf5GpqLs6fDlwR999JF/pOytfPLJJ+aHH37wjxRFUZRE5Lmg5Huxjj76aPl5P34WKq94+umnzeOPP+4fKcngl3H4jdLbb79dfr81KJj4NQd++op7HHzhLb/1jbgC/j7//PNib35v150Pwk84Mgj/neF3jPkFCn6Lek+AXw3h947/DixevFjaPD8LSl3r06eP/ELK7iZVG1KnTzjhBPk5Our/9ddfLz9JqCiKoiQnzwXlY489Jj85xc+w8RvceQE/KcWX5qb7u+B7Onwx7W233eYfZc/mzZvl1yp69uxpVq5cKQNms2bN5Hd08SLz6wrHH3+8CE0Hgyu/uICIBH4vnd9nHjx4sITDF+ciTp0IJRwmDvzu+N8VfmLukUcekV+Q4KfKsiU3ypGfBJw4caJ/tGfDROOiiy4yF154obniiivMpk2b5GfMdjep2pC6TL3fvn27fNkzP0uHICYfiqIoSmLyXFDy26f8GL77EfdUwTPw6aefmp9++sk/swP3u6r8vjXwc1H8YPuDDz4oxw6exSuByElEWByICkRwomvA8j1eOMIAfquX46B3z8G5DRs2JF02S5YOfi+UrQLxcD/5T+QdTAbPjBgxQuJ54YUXRDDNnz/fLFy4UEQh17Erv02KGEwmpMgL4gDRgG3x3tx5553mjTfe8O/IDPJO2khDPKmUI/YI2o96xy9AxBNVFoCQoHz5jfQgUXUi3XIMC4+yJU+ECaeeeqpZvny5/O+ISk8QfpuWTyo4e7otKpQJYipY38O4+uqrRUw2adJE6tqTTz75l98+5reaCS9ReQfhOvdxfzzkO6xexMeRqQ3r1q0r9Sb+WUVRFCUAv5STF3gdsO3atavNnz+/fEqXLm29gcVeeuml9rLLLvPvsvbFF1+03sDjH1l71VVX2T59+tiTTjrJFi9eXD6TJ0/2r1rriSBbvXp1e+CBB9qiRYvaoUOHWm+Qs94gJs/Bb7/9ZseNGydxcs8BBxwg8W7btk2uh8XhiVRJd5kyZWylSpVsyZIl7fjx4+Xa559/btu2bWs9ESVpKFSokG3Tpo31RJlt3LixLVKkiPXEmV2xYoXcD6+++qqtV6+enC9fvrzt27ev9YSOXEuWjl9++cV27tw5x3bkdcyYMfLMkiVLrDfA2cKFC1tPpNtmzZrZt99+W66F4YkayQ92SYQnsGyLFi3sNddcI+kdMmSI2PWzzz6zderUsdOnT5f7/v3vf9tjjjlG7ASrV6+2nliws2bNkmNPjNkTTjhB8haFs+fw4cPFPuTp6KOPtmvXrpXrqZYjZVCsWDFJx5w5c6wnZmyJEiXkmbFjx8q9EFYWDuxUs2ZNu++++0p6GjRoEFonIN1yDAuP9PTq1ctWrFjR1qpVy3oiSM4tWLDAHnfccXJPVHqCUH7dunWznji2VapUkbaWrL48//zzYsvu3btLHgYMGCD1zZtA2AoVKtiyZcvaI4880q5cuVLuv+KKK8Tu7nP22WfL+dGjR4t9K1euLHkmfk+4yTXS06NHD2k7tBfKbNq0aVLX4qFuYX/sQD69iYucj6oXnhi2HTp0kPNcb9mypd28eXPKNvSEt61du3ZOnacv69Spk+QXeLZ///45dV5RFEWxNs8EJSAuevbsKQMNAwodM4MJ5xxPP/20DOCOiy++2JYqVUoGGQbkwYMH2/r164v4+OSTT+zhhx8ugo5BZcOGDXbmzJkyGPHcWWedJWEwMDKAMiBwbdGiRTK4OTEVFgfpnDdvnggsYHBEUDEQMtAwoDZq1Mi+8847ds2aNbZq1aoiLp977jn7zTffiJhC0MCXX35pmzZtKmGQjvXr10tYkyZNkuth6cB22A1bkSbyS3gNGza0l1xyiaSPNJ188sm2Y8eOcn8YTz31lAgCbJEIJyhvv/12EUMImjfeeCNSUDKoIgoQHpCOoHT2JE/YcsuWLfK/G7hTKUdEBddJf5cuXUTA3HDDDZKOkSNHSviIiaiyCPLBBx/Ic1OnTpVww+oEpFuOYeEheoj7ww8/lGvYhHbDZOzQQw+Vc1HpCUI5IK6omz///LPUTeyUCOJAhJ1//vkSNvFSzxcvXiw2Q7AhmhFvQDpI52uvvSaTnBtvvFHOU26IOli+fLm0EdILTFSwDcIdW4waNUqur1q1Sq4HGTRokD3zzDMlHdgRe0JYveDeCy64wB5//PFiux9//FHuo66lasN4QQmkhbYGhNu8efMcgasoiqJYm6dL3ixz77fffvLxBvqUf3yeFyG6detm9t9/f9kcz9Lld999Z958801Zjjz33HMlTG8QMV27dpUl7yCeeJJl2c6dO8s19gWeeOKJxhN9/h3J4yCd7dq1k/BZ9uXYG3Rylv8Ib+DAgcYbmORz2GGHmU6dOkn4xYsXN8cdd5wsF3oDm7yQ5A2C5ogjjjCrV6+W8KtVq2Y88SVhQbJ0xNuOv+x7ZCnUEzDGG/iNJxBlrxphb9y40Q8xMaQ/X758ElYYXp0wZ5xxhuTtjjvukHzEQ1yeeDDe5MD069fPnHPOOcYTgv7V9MCe7LPDRmyN8ESfLEGyTJlKOfKylzeREHu0adNG7It9sB/7Q9mK4InflMrCUahQIYmPMAg3qk5AOuUYFl7RokXlWfa3spSLTeLbTSrpAeqKJ75y6qQnDsWeiZbfHdSpK6+8UvJNvNQDyoQ0Ue6kx9U14sWGLGkXKVLE9O3bV85jC7YLeMLMeALbFChQwHiCXpagKTv25PLCE+mnDmGzFStWyLNBvMmClNurr74qdixTpoycD6sXlDFlSriktXDhwlI/ypUrJ886UrWho2TJklKeQLhs+cjLlwwVRVH+buT5HspMQPg4GEjgt99+M9u2bZPBqVixYnIuGexjY88WA5WD42+//dY/Sh4HA+Dw4cNN1apVZc8V+wM5h9ByMIgBA27+/PlzjoE4//jjD/kwgDKo8nIHwo8PL8YwmDqSpSMRhEf+GdwcCAD45ptv5G8yGFhJU9R9gDgYNGiQ7K9kMI8HW5BG9lvyQs+tt94qA3OmBO1HOhGBxJFuOWKb4DFlwzGiOJWySEYqdSKdcgwLr0GDBiLW77rrLnPkkUeahx566C/7DFNJDyCQENOTJ0/OyfPDDz8sYiwZ2BpR60CIduzYUYR49+7d5a3tYHoQb+4FpnjBh6BHdCFASRtiDWFKGTqoa9Tnzz77zD+zA9Lbtm1bySMilW8PgLB6gQjngxgNI1UbOqhLtB9FURQlMbtcUDII0HE7GJySdeLxICTp1PFShsEAhXcmOAAgHkqUKOEfJeeVV14xU6ZMMbNmzZIBbOzYseKxygTSizdjxowZZtmyZfLha3l4QzoTGHwRW0EvCvlEzARFZiKqV68ugiuRRy4ReNn4kP9geUHFihXNTTfdZIYOHSqiISgIndgICqxMyaYc48mmLHKzTkBYeNiSt+fXrl1revfuLUJtzZo1cs2RanoQtohDysnlmQ+iMlXuvvtuqW+kAS8i3j4H4vCGG24wHTp0EA8hUF4ItfPOO088obz4VbNmTblG/eODyHUQNkKwfPny/pkdUM7kjTwy0bjqqqvkfFi9IM/YgslnGOmWKeHhtVUURVESs8sFZZUqVeT7DnlrlM/o0aNTeksVWH4DBgGEC96TcePGicgK0qJFCxn8WJYC3s7E28ZX5kTBwIG3Dc8fAxaiI9lbpFHg1UFA48Vzgx/LZql4CQEBiWfNLTvjsSJt06ZNk/AYiCdNmiReLZYYYfz48Qm/GoVBnYGft+HdkjHhYkvSFw/pZima5UDepI2CMuDNagQCgsF5qxj4ees3E7Ipx3iyKYts60R8OYaFx3I/7QJhhFcufgIGqaanVKlSUjceffTRHBFHGhBfqcJzhEMeWE5mCdrBtypQ5rzRjbikHZMO/uIxRBwjjLkHqBP16tUzU6dOlbBowwh88nDMMcfIPQ6uUfaExwSGZXeXx7B6QVppJ4hmypZn+O7J+DqcbpnyvGtjlAdeebYlKIqiKDHyXFAyIOKVcLDnEerUqSODBEtjQe9E/P10+m5ZmeVJlmL5kuFKlSrJYMneLO4JPscS1umnny5LdQwC7K3j3Nlnny3Xw+I49thjJWz2VzVq1Eg8MyyfcQ2vG89yv4PngmFxnQ/3sscTTx4iDjHMYMqeyxdffDHn3mTpgPbt25uXX35ZluX4rkf2q7EcOmHCBFOhQgU5j6gcOXKkhMPAyCC3aNEieT4Iy/N8HyJ7Dhl4eZ4PHiYGVbd8T5ocpJd9cYgbPEQQzF8QxBlly1es4EFmqRIQDgjgRCSyZ9AmmZQj59yeQ5cn/kaVRRDsTzg8C2F1AhKlI6wcw8Lj65fq168v6eP7Prmndu3akge3lB6VHgfpGDZsmIh9tiewz5UJHV8flQgXRzAcPI2ILb4CiHwg2Mgvgg9Bh3cPAYd3kHThBe7SpYt4ExGJo0aNkrIjLXzwuJIevqqK82PGjJF6SVkEIfz77rtP7qOv4Kus+vfvL9fC6gVpwyPLMjvPUu5MIhDEqdowvl4iTBGU3AdMmpiIZftVWYqiKP8k8tlU15tzETwBvCDARvlES11R0MGznIbnAlGUDLxCDAR4S7g3VRjw8KKyxMWglC3kl+8ixLPBwB7coxYF+8XwKCG83ZKbsx8DJJ43/gLn+BJmXqZxS5CJIDx+IYcBFM+lez5bKBc8bAh/XnIAvKUsLSKoMiXTckxEpmWRbZ2IL8ew8BDh2JG6jQBMRDrpcd58PIUILOyYDpTr+++/L/FEba1w4NlmsoPYRJwFIT1cZzJI/U1WBtyHHfCSMgmI3+oQVi8oX8qZuo1YTVTHU7Xha6+9Ji/5sFcUoc++Yl5Gw9OK2FUURVF2k6BU8ga8P3gp8VjGe6t2BwgB3sjHqxwmcBVlTwYvPp5YBCXClG8RQEg6j6miKIqigvIfBfvYWJrOLY9jtiBu2U+XjkdWUfYkqMN42dle474ai3aGV3NPmLQpiqLsKaigVBRFURRFUbJCp9iKoiiKoihKVqigVBRFURRFUbJCBaWiKIqiKIqSFSooFUVRFEVRlKxQQakoiqIoiqJkhQpKRVEURVEUJStUUCqKoiiKoihZoYJSURRFURRFyQoVlIqiKIqiKEpWqKBUFEVRFEVRskIFpaIoiqIoipIVKigVRVEURVGUrFBBqSiKoiiKomSFCkpFURRFURQlK1RQKoqiKIqiKFmhgtLnhx9+MB999JH5888//TNKkA0bNphvv/3WP1KUaD755BP/v38+v/76q1m/fr35448//DOKoih7F3kuKFevXm3mz5+f83nppZfML7/84l+N5quvvjKPPvqo+fe//23uu+8+88477/hXcg8Gg/79+5vbbrvN/P777/7Znfn6669N69at/SNjPvzwQ3P//ff7R3se8enNhkWLFpkOHTqY999/3z+jpAs2bNq0qX/0z2fdunWmc+fO/tGexdChQ03fvn39o9xhy5YtpmvXruaVV17xz+x5PP300+bxxx/3j9Jj+PDh5vzzz/eP9gwYG0444QQzZ84c/4yiKLuTPBWU33//vbn44ovNJZdcIp04n5EjR5ovv/zSvyOcefPmmfr165vRo0ebd99910yfPl0GZcRlbnoCELobN240I0aMMPvvv79/dmcQmog0x9tvv20mTpzoH+15xKc3UyhD7H/FFVeYRo0a+WeVdPn5559lANzTuPnmm2Uildv873//MxUrVvSP9iy+++67HG/7559/brp3725effVVOc6UypUrS9/00EMP7ZGrHKRp7ty55oknnvDPpAc2++abb/yjPQP6ONrU9u3b/TOKouxO8txDuc8++5hbb73VvPnmm/J55plnzMEHH+xfTQ7LR4iY9u3bm5dfftk8+OCDZsGCBea6664zd955p3g6w/jss89ksHDQIW7dutU/2platWqZe+65xxx00EH+mR0Qxqeffmqstf6ZGKeeeqpZvny5fxSDTvvjjz9OKOS++OILWQJMZbBx4SQSIAjpZNcgWXodLO2zfJ3ME8vz2M6BELrqqqvMWWed5Z9JH+IiTuJOxE8//STXk00SovLMea6HTTIQEB988IHEFY+zSaLno9LOM9g7Ubgu3ckG4rA0wY8//ih1xqULTzrHicouqlyJg3TG1z8mau+9955/tAOX9kQ2JwzSQZ1OBJOQZ5991px44on+mRjZtI8wO6dS/smgfr/xxht/meSSjk2bNu1k/yCJ4iS/9Al4KxMRFmYym5I+tuIkyneYzTgXtDX9MH0c/WiQsDrIOeJOtqLEdVZqSGM8Yel2EC7PJ2vXQaLqd5B07lUUJRfxhEeesW3bNtu8eXM7c+ZM/0zq3H///dab9dt169b5Z2J4gsfWr1/femLTP7OD559/3rZp08b279/fli5d2hYuXNgOHz7cTpw40R5yyCG2QIECtkuXLtYb4OV+TzjZbt26ybUqVarYJk2a2LfffluueR2iHTZsmD3ggANs8eLFbYcOHWzVqlXlGnji1h533HH+kbXz58+31atXtwceeKAtWrSoHTp0qPUGDYmjR48etlChQrZIkSLWE9N22rRpci0eT7jZvn372hNOOEHC4f4xY8ZYr2OU60uWLLF169aVfBUsWNA2a9Ys5fT+9ttvduzYsZJXT0DbSpUq2SlTpsg1bNq2bVs7ZMgQW758eduwYUPrCQ3btWtXW6ZMGbm3ZMmSdvz48XJ/kIcfftgee+yx1hso/TPWeqJf7AqvvvqqrVevnq1Ro4aETf48wSHXyG/v3r1to0aNbLly5ey8efPkfJCwPBNOr169bMWKFSVPnsjPCdvhDahJ84FdR44cKWVSs2ZNW6xYMbE75yAq7X369LEnnXSS2JvP5MmT5Rp4A5pt1aqVlDt58wS5rVatmlwLS5Mri+uvv17qE89TpxcuXGgbN24sdYL0rFixQu5PpVxpAzyDDY8++mi7du1a6w3mtnPnzjZ//vzyId/UNQiz+erVq22DBg1y4vImd3I+CPdyfdGiRf6ZzNtHmJ2Tlf9TTz0lafaEndznCRYpC8fFF18s5bFmzRopk3333VfySn8D5P+oo46yFSpUsGXLlrVHHnmkXblypVwLq3O0GerRc889J8dBwsJMZtNJkyZJuXLvoYceaj3hK+ejbJbM1ldffbXYEsLqIMydO1fC5XnqTOvWrW2nTp3kGnVu3Lhx0sdynT7n0ksvlf4ekqU7yOjRo6VNYXPSSX/hiVv/6g7C6vfWrVtt7dq17fTp0+U47F4gf9dcc43dvn27f0ZRlNwkzwUloosBEeFw6623ykCbCpdccomIUddZBznjjDNsx44d/aMdPPnkk9LB0bnxHKKUzq59+/YieBAIdDZPPPGE3M9ghfBCYCLILrzwQhGcQFjci8j58ccfpVNm4HVwnc4SPvnkE3v44YeLCKBTI4+IaDpxRBoCmMGGa6NGjRKht2rVKnk2CAMdogYBzIDPwEKn+NZbb9kvv/xShB528WbgMqicfPLJYgc6yKj0IoBJ49KlS+V4xowZ9ogjjpD/6ZgZ7LiOgEdo0bkTFnEBA0CdOnUk3iBuUJ41a5YcI2IYHO+55x5Jc9OmTeVZbLF+/XoJgwEHXH4RCMTpBkRHVJ7JE4PWhx9+KPcjIJz4doTlgwGdgeeVV16R5wYMGGDPOeccqQuppL1UqVIykFNWgwcPlnIm/9zPpIbnqXc826JFCxETEJYmyoI8IbLfeecdsS/1BYGAUKGuMuGgrkJUuRIWNiQc7MP/bjKGDc8++2zbs2dPSRP1M8rmgwYNsmeeeabYi2PyGw/ti/R+8MEHcpxN+wizc7Lypy4S38aNG+U8eUAgO5ygBGx82GGH2UcffTRHEHFu8eLFkj7OIWbpUyCszmE70kbdjycszEQ2JSwmEFOnTpV7EICuvoTZLMzWwXxH1UH+p3/E5ohLJkVOUDJxp69ByBEuEweEISIzLN1BCOPjjz+W/5cvXy7pJz3xRNXvoKAMuxeuvPLKhJNORVFyhzxd8vZm/bJ/sl27drLHiD08zZo1MytWrPDvSI7XCRlvBp5wT6MnGo3XWfpHO+MN2rJU7s3cJS6WsS+//HI573U2stzOfkmWWbxOzXiCV5aGeNnHE1U5y38vvPCC8QYOebGFfHhiQ55PBEv53kBgzj33XLPffvtJXtmgTxyeCDAXXHCBLKtzrUePHpKnZDbwxLfp1auX3MNLDZ4olBebPPEj4XmDgvFEsilbtqy56KKL5Br5iUovG/LJe4ECBYwnUI03SP9l2Y0Xk7zB1ey7777mwAMPlHIjzWw/4JgyYRk2CPmqV6+elC3LbCwfch+b5YnHGxyN16lLOtl24IlPs2TJEv9pI2XkiRqJk2W5IFF5ph54g4NsymeJjbImnCBh+fAGP7GzJ9rlOfLiDVJil1TSjq27desmYZBf0sJ9pJk9eVyj3lWpUkW2DVAuEGVb7DBw4EDjTVjkQ5l4g7ksqRYvXjynznoCJLJcCYv2QD6wD/v8WOKkrAoWLChp4EMa+Btl89KlS0s85I/ny5Qp48e0A5b4CYv2C9m2j2R2TqX8oyCN2Ii/hAfYHDsRNnkmXP5CWJzYA5t5okyOg4SFmcimlCdhPfXUU7JMXqJECTlmmTvMZslsHd+2wuogZe2JXnPeeedJuKeccoqE4SBN9JX0T4R7/PHHS90kXcnSHQ9l6olSaW+eaJXnaI/xpNJvOaLu9USzvJTE2KAoSu6Tp4KSjvacc86RwfHaa681s2fPls7Smzn6dySHjpvOjc4mCB0EnSodVTLy5csnf+kMSYM7pvNEoCFG6Ty92bOZPHmyDJh8Hn74YekogY6OwZQwgDDiO2UHnS+dWLFixfwzMUg/AwidnIPOrGTJkgkHHSCNLh4ECHZg8CTPxMGzDtIHDOBR6WX/2apVq0yfPn0kr8OGDTPlypXzr8bupwN2YHfe7KxatarsF2XfKue8SYh/RwzSe9ppp5lly5bJfi5ecDr66KNNzZo1Jc2ki7J3Nt68ebMMhA7yR74SEZXnBg0amBtvvNHcddddIqYTvRARlg/Swd/bb79dvkmAl6wYHLF7Kml39QoQAkDdYkCn7IP2pSzc/anY1pUd9Zc6GyxLyph2wCeqXCH4LHljL2Z8OTqibE4cbdu2lXQjCog7HmwQzG+27SOZnVMp/0xArHfs2FFEOC/sLFiwICfcsDhJJ+0BoR9PWJiJbIod7rjjDpnU0CfRh3777beRNktm63jC6iDlTJ1DZDqCQp06R/yurwGOSV+ydMfjRCkTSib8iOtEdTKV+u1I515FUXKfHSPNLoDOBg8LM/soateuLRurmT0HwbuyZs0ame1nAwMTYmbo0KEihtwHUQl0yAhONzjQ2SUbrLiXwR0hEYSOnQ/hOBgQ6GDLly/vn9mZYKfKvWxqR4RjO4QA5xx4eBjEGEyi0osXBJvhYXN55atsksHXn0yZMsXMmjVLOumxY8fmeJziad68uaTjySeflOcQmAyspAlPDBMIF+fSpUvN4MGD/SfDicozoqVnz55m7dq1pnfv3iL+qBtBwvJBXaIeYCc8F4QxZMgQuZZN2hloGZCD5U4crmzTsW0U6ZZrFFE2ZyJHekk34hTPazwuDD6Qm+0jSLLyp+4RXyptNxF33323pIOw8PoFX0gLq3Pkl/ZKHxdPWJjJbFq3bl1ZeWAiTv1EvEbZLJmt4wmrg27SEawDQftRD6gTxONgsuUm+YnSHYRnEbN4QFkRYhLKBDQR6dTv3G4LiqKkR54KSpY86HgdLImwtMysFPgKC76qJxEs/TIwcZ3ZLtAR8ZY351kCzAa8cXgb8Ey5zpkBiI4Rjj32WOloX3/9delc+Q5MvlsvESxnAZ0zHS/eiHHjxskMn+XgqVOnSh64hkChIz7mmGPkmXjoiLEL99IZcy8zebwhDJTTpk2TcwwgkyZNkjywdBSVXkQfy0DBJVs8cMnA00F8eKeIDzGVbCLA18OwDMuSEve68sUbg7hiYOE84G3FA5IKUXlGEFLHEIV4dogLL0uQsHyQDuoUwvHkk0+W5UE3EGeTdgY2JkQ8yzPUKTxA7o3XdGwbRbrlGg9tCa+kE19hNmf5HjFEWilzBu9E6eY+6q/zMuZm+wiSrPwpT8qR5V/awr333pu07fIM3jfXxwD9Af0DtuE89nWE1TnKlfqB1y+eZGGS50Q2JRzaMzRu3Fi2ZZAnJpdhNktma+wQJKwOssWCa2xjAbyp1GVHixYtJM3umzZ4s33hwoWyNJ4s3UGIh7aAVxOBzhixJcmb8enU76h78YqOGjUqYZ1VFCV78lRQ8rURdLoM/nQsvXr1kuUI94XHdETJvheNTvm///2vfK1EjRo1ZKmRvyxrsEzN4B8PAwMdPZ0U8BdPEZ0j4GXh2J1jSYSOlr2GDRs2lL1uTuCyPNWkSRPTqlUr2TtHJ0kH6XBxAWkbNGiQueWWWySfDL7sB+I6HgziIO3YYcyYMfLdf3TaiWAwJl0MLqSF5SAGCdLAUtuECRPkHuzDYM/3euKxiEovnX2XLl3kvjp16kiYfCUTYBcGRmcnQKCSF/ZZ8f2TeFYQSs62QTh3xhlnyGDingPK6KabbjJ8XQnxMRCS7xdffFGuEydpT0ZUntmvWb9+fQkXryhpRcgFCcsH4glvDJ6MefPmmWuuuUbKjsEy3bRjO+oV4fI/9QHvevXq1XMGeoQOhKUpUVkQbjAurvPh3nTLNT7d7mu5sC1L/2E2Jx1MVKjLxIVQY99tPOQZb5f7Ivxs2kd8eoN2Tlb+fFhCZt8l+UFMBgVqMEwEWsuWLSV91AfAc4bAoj1hH4Qgz0BYnWNFBRFHGcSTLEzu///2zgRcq2n/4ytDklKiqJShwVRKiSg0UEhSuv96aBBRMisioYh7L8XNdE25aSBu7lVUpEyRTJlKMo8lY8hY7P/+/Nr7tHu97373Ofu8XSffz/O8zzl7WnsNv7XWd/3W2ntny1PynKnx0PaY4qecSX9cnuXKa66LpjvOBilz1mBj/4g+pq2xs9COmCLv1q2b2Rz3Z/DPPtZC54p3FOoB+/DEUi6IPMKJ2mlIcew77lzAzplFyRx0CiFKh3JedI61ADASDb2UTGtE1+UkgdEzHRONIlM6NHY0eqVFOIpnhIyIiK5NwmtD3BGPNNbRdUTZQFAxhYMYpDMO4R6IC9KA54up9mwMGjTIPBms5Vu0aJE1+NFwgNE1Xl7iQljROCWJLx458pOpMTqfbI14CJ0WnTGL6um8SgpxXrp0qTXkiPdc6c9FXJrx0uA1Ip8YEGQjVzroKPE23XXXXZYPeBPpYOkYzzzzTDsnTdwJj/tmK8fSytuQ4pRrJgzS8KLiCQ8foMiV59gy+Y2d0mFnW8vMOSeeeKLFIfry/7T1Ixu5yp8wGdCSz9SFuDaDNoayAPIAiCv5SdkwxRsl1z15QTyzMAySGahkkivMXHlKGdAOIJpIQyhqIV+e5crrKPlskHYRD1/ULqLg2WbAT5vJfULi4h2F+CNAEfK5zgkpjn1nO5e6yACAgW+2QZAQIj0FF5QiOaGg5ItAovCwfIIvuuCRY7DCeiu84kwnMoUvSg5P3LI+mafG/wzwoAyeMTyRrK0UfyxYFsC0PS92zyaOhRDp2XRErkWMYoODJ4xRNVNwovAwdcmUHGtV+YITXp+RI0cWrQEVJSf0iiVZC7kxwEAQjx+v6ynpA1aicLD0gelwlY0QhUMeSiGEEEIIkYqCPpQjhBBCCCE2fiQohRBCCCFEKiQohRBCCCFEKiQohRBCCCFEKiQohRBCCCFEKiQohRBCCCFEKiQohRBCCCFEKiQohRBCCCFEKiQohRBCCCFEKiQohRBCCCFEKiQohRBCCCFEKiQohRBCCCFEKiQohRBCCCFEKiQohRBCCCFEKiQohRBCCCFEKiQoS8Dy5cvdihUrgi2RhPfff9+tXLky2BJCiA3DV1995T788MNgSwhRKDaIoPzhhx/cjBkz3OjRo91tt93mPv300+BIyfjll1/co48+auGNGTPGPf74427NmjXB0cLy7rvvuk6dOrl58+YFe37PE0884Q444IBgy7mHHnrI3X///cFW2eHSSy91J5xwQrBVcsgP8uytt94K9uTnnXfecbfeemuwVXIuvPBCN3DgwGArnj9iOWXaUqFJmu/z5893e++9t2vTpo2bO3euGzBggHv44YeDo6ULgqB9+/bB1sYF7Vjr1q2DLVHafPnll+7YY49199xzT7AnHd9//70bN26cW7RoUbCnMBSn3YqyMdeVJJRWvyFKRsEF5QcffOA6duzoRowYYV6q2bNn26+kMNI88sgjXZ8+fdzChQutY+vevbvr1q2b++yzz4KzCsOvv/7qrr32WtehQwfXtWvXYO/v+emnn6whg99++8098MADbtq0abZdlvjmm2/c119/HWyVjO+++86E/7nnnutatGgR7M0PDfbtt98ebJUc0pDEM/pHLaeoLW0Ikub7k08+6U455RR38sknW9l+8sknrlGjRsHR0oXBIh3lxsiPP/7ovvjii2DLuVGjRrmrrroq2PpzwiCqb9++pVLmiL8dd9zRnXbaacGedNCW3HHHHe7ll18O9hSGpO1WJhtzXUlCafUbUJp2+KfBKyC+APNOOukkr3Pnzp5fOYK9JWf16tWeX8BekyZNvLfffjvY63nPPPOMV7duXc8f1QV7kuNXQM8Xup4/8gz2eN6yZcu8b7/9Nthax88//2z38jv4YM86wnB84/Meeughr0GDBsGR7HA/fzTl+R1KsGctYTh+JxPsKT7ke1wYvvD2fKFv52USxssXMt5ZZ53lHX300cGRtfgC0XvvvfesLLKxYsUK79NPPw221t5r3rx5dl1pQP74g4r1yiskTHe0fE499VSvR48ewVbxCctj1apVwZ78kHfYZ0nLMJ8tkfeUQbY8xZ4ov8z8yZY3IZxLeNw3G1yLvfiDi2DPWvKlM87OkoAtUdbYU9OmTYO9ayHMjz/+2MLPFe985Iof+UG6MutmSJwNkhfkc9I4Pfjgg95uu+0WbHler169rM3MhLx/6623st4zCWFelqQs4uwtKcuXL7dfJqFtURYh9957r9e4cWPPH6QEe9aSz94y7Zjzaa9Jd6GJswnSmKvu5SKz3cqX9ri6krY9irM90k3aShp2SK66WBptTD77zVV2uewQctnzn52CCkoMbffdd/emT58e7EnHkiVLvDp16nj+CCTYs47BgwdbRUpq2EOHDvUGDBjgHXbYYd7WW2/t1a5d2+J58skne9tss41XuXJlb+zYscHZnvf00097++yzj1e/fn2vZs2a3sCBA4sMlHS2a9fO23LLLb3tt9/eGoJdd93VjsEFF1xg9wIqyIgRI7wqVap4VatW9WrVquXNnj3bjtH4kYaKFSt6FSpU8Fq3bu35Iy47lgTSRLzatm1r4VeqVMkbM2ZMUQNLo9OnTx+LJ8dI86RJk4oq4wMPPGD7SPvee+/ttW/fvkhQUinJD3+07zVs2NAE/J133mnHqNQdO3b0zj//fMubfffd11u6dKn3l7/8xatevbqdW61aNe+f//ynnZ+EuXPneq1atQq21pVXhw4dLN/4jR8/PjjqebNmzfLq1atn6Sb+DC5IV7RhnjFjhuVp2BDQwFNuIdFymjNnjtlG79697V6I6ySMHj3a8mCnnXayuBx//PHFGkzls6U4Oxw3bpyVz1577WUiZeHChbY/V96Qp/379/datGhh95o5c+bv8j28ljrC9aNGjbJr49KZz87yQR0ZNmyYt9VWW1ned+rUydtll12Co2vrSaNGjazu1KhRw9L70ksvBUfzQwdEmIRPfrRp08YGkdj4DTfc4G233Xa2n+NnnHFG0eAyzgYpg379+ln7RP3o0qWL7ctnc6GgZLDatWtXb/PNN7cfeUrdZVCRph5F85IwuQd2HUL6zjzzzGDL8x5//HGvZcuWwVa8vSUBW8A2sMudd97Zwg7btNdee81r3rx5UXty7bXXerfccovFddNNN7UyOOKII+zcOHvLZsdp6uHkyZO9Aw88cD0hcfHFF1sY9C/Yy7Rp02x/SdulfPkebbfi0pKvrqTJh3y2l7a/oo2l38CmqHPly5c3+wz78Li456rDme1XnP3GlV0uO4yzZ1FgQfnEE09YA3vOOed4Rx55pAkUxBSGWhJoKOhEnn322WDPOuiwOMZIKglUWIx4ypQp5n3q3r27Ge3IkSPNM3HFFVdYR4WRYuAHHHCAGTiNAaMdvKR04GyffvrpdpwGiGOHHHKIxSUk2jhMnTrVjJHKxLWPPfaYpYd7IMROO+00iw+Ge/jhh5t3N5enJBPuQ8eP4KaDooGmIXjllVfsOIKvWbNmJvboPK+88kprfF599VUb2ZImKhnXIi5pnENBSUXdY489vAULFtj2Pffc4+255572P9fSwXMc0Y+ApeJTXqFnj7wjfNKVhEzPDWnbdtttrZyJ33nnnWdpQcwyuuTel1xyiaULUcbokvzNzHvOw7MFxCU6mo+ey/1pUE444QRLQyjK80G50tjBc889Z/lLPiQhny3F2SHH9ttvP2/ChAl2LnWMeOfLG+yFRpT0sS+a75nXvvHGG97NN99s58alM87OkkAcqCOEh9eAThiRFUI85s+fb/FF7NEh0EEngbjjATz44INN5BE+bQA2TJq4L9uETftFZ4bIhDgbpH7QXuAdBsLmXvlsLprf1POePXvaLAz1h7wrjXoUl5cIf+4XEvWIx9lbUmhP6PjxciF+GLDT1sKQIUO8//u//7N8Iu3kI/9PnDjR8pJyDr1GcfaWzY7T1MPFixfbII6yA+KF8L3xxhvNTvBaYSMQZxNxdS8u3yHaFsWlJV/5psmHONsrjf6KuCNGaWNpr4gfIi105OSKe1wdjtanfPYbV3a57DDOnoXnFXQNpW9ozm/wbQ0C661Y9+gXnvNHe7Zmrbj4hurKlSvn/I4+2LMO3zDtGA/sJKVdu3bOr7QWnj9qd34j4nwjc/5oyxbKExZx9wWZrc/0BZTzR9W2voVz/RGa+/LLL50/CnL+qMX5Hb/zK4Tzjc7ikw3Wj/ojJnuYYZNNNrG/vhBwL730koXF/YlPjRo1LM+4n98ZBVfnh3T069fP+aM9W+fpNy4Wxueff+4eeeQR51dE17BhQ7fZZptZeXDeCy+8YOdQVr169bJ9Rx11lPNHp0Goax9YqV27tttiiy0sP/yKaGtKo/hiyO2+++7OH9U5X5w7f1Rn9/Ersm1jD37FDM4uPiw2J5+JX9u2bW19JmXBeiZs47jjjrP7+SLA4k7+poEyGDx4sJUHaUoCcfQbeHvwzG+kLL/8hi04Gk8+W4qzQ+5DPHn4zRejbptttrHtfHmDnfsixtKXmV+Z1/oNtT18w7m50pnPzpLAgyp+Q273IO1nnXWW8zvm4KizePgdhZU/dWOHHXZIXEfIP/KLOHEd4dMG+IMnyzvWgVJvyAu/w3KHHnqopScklw1WrlzZ/p8+fbqteyXspDYTQrtDfvGjvoR/09SjfHkZR5y9JQF79kWBa9Wqla2l9ztmy98333zTjvsDersHNk/aq1evbnmGLZH/5Glo+/nqVaYd5zs/DuyWNpo11fRTrNUnzynvbOSyidJql+LSkq980+RDnO2VVn9F3NADtFe+aHcHHnigrc+GXHGPq8NRkthvrrLLZof57FkU+KEcCqVq1arOV/6uS5cuZgD9+/d3CxYsKNGC4y233NIqOIWeCYaGeKpUqVKwJz8I0BCMJ7pNWGz7IxXrJDHq4cOHW6Xht2zZMmt4aDCoYFFjxgijYUUhLCpfZmfDfuJQrVq1YM9aQQP+aMj+JoHKHzZYVAIqAxWEOJJviMIQ8or7+aNLuwdpptEIicbxo48+cq+++qoJCtI/bNiw9dJMehGZITQAPCXujyqt7HmYiX3+ICY4o/hE85QOCPyRvwlh8m7rrbe2faUFjQz5VxxCUUIHd/bZZ1vjmjTN+Wwpzg4py2uuucYaUO5/zjnnWB3Llzekj+PZiLs2Vzrz2VkSSCO2T/4D6Y92wjTmnTt3to6id+/e9pR50gEqYo8fYiYTbJx4h/cFtqNtVS4bpDO87LLL3HXXXWcd/MSJE0s0aM4kbT3Kl5dxxNlbEhAfDMjHjx9fdP3kyZPNboBtHtgkXXTstC+5yFevMu04TT2kDT3mmGPcs88+aw+Bzpo1y95o0KBBg+CM9Sl0uxSXlnzlmyYf4myvtPor4hv2M8Sbtg+7gVxxj6vDUZLYb66yy0Y+exYFFpQYGAYQ7Ugw/GgnWRzw2HDt888/H+xZC6KPV5bguQiNujShQWAkxKsnaGT4IYoRyqQHIYahhdCR5Kq0jMKpcJmdDZ0uHlE65BBGRORTtNLmI3pfwuKVTdyTys8vGk+O01nWrFnTxGfm/aNxpPLiFWJ0F+YBT8Hl4qmnnnJ33nmnmzp1qnUUY8eOtQFBIaB88JYiyOKgo+A87AXIq9Lo9EMoLxpgvLyMWumIcnVC2chnS3F2CE2bNjWPxX333WevP0LUJM2bbDAYzHZtXDrz2VkSiDPX5yqn66+/3sJcvHixeT3xTiSFTgM7pLPPhHpG2qKedzogvCf5oF3iidDXX3/dBs10YsQvrc2lrUf58hKbQySEFMfe8kFeI/QuvPDCouv50QkD+Up6SBftD974bBS3XqWth3DQQQdZ2/vggw9aGSAwKcviEFf34vI9Sr60xJVv2nyIs73S6q+iEG+0An1NXNzj6nCUtPabST57FgUWlAhABB4FSuVhtPDvf//b7b///uYJ4xUtvE4oKRhUhw4d3D/+8Q+bJgEq7E033WTihleYhKOM0gRPCA0AHXXY2eD1Qxhi/I0bN7Zj7KMDYiSHkMsGooxOEEMEhDAjMbwaNFgsCeAedMDjxo0zzwdu/6QgKMhXKieigrAYQSEqmcaZMGGCebE4TrlwnPJgqpr7M80DeH1IUwgNLFMI0ekCyjMXVHbCo/y5BxWZUWUhYCABNHykCw/WDTfc8LvlDzQuNO5MRXEMu1myZElwND2kj3LHq4XAQFwsX748OJqffLYUZ4f8Qg8PSyjq1q1raU2aN9nAM0G9Da8lLdgnI/Vc6cxnZ0lg2ou0vPjiixbPm2++eb1yogPFG06nxj2wy6RwHXWNToA8o8x4bx3vrzvkkEOsboZTbs8995x77LHHbPlHPt5++21bakD7g7ctFAzFtTnShGclFAhp61G+vKSNZpu48xs9enQie0sCeU37dffddxcNMEgXdo1dkNekpU6dOtYuhulCLJBnoWAobr0q7vnZIE5MbZIfpB0vWXGJq3tx+R4lX1riyjdtPsTZXmn1V6SdPCFcptF5DSDLwOLiHleHo6S130w7jLNnsZaCCkpGoJdccomJFCoQazvYd/7555uR0GAX571/GPBf//pX65hYK0iHR8XnvW3sZ+1TUjA0PCkhhM2+0P3OX7xF/GXty+WXX+5uvPFGayToMBFgvFCd64YMGWJrTOrVq2dx4xw6kpDovYgjHRfxp+IxhczonLUdTJndcssttn6OtFFJr7jiivXimQ+uZTqafEGsM1VAfIgnXhManfr169u9eSk8770jLdyP9Tekk0rMlCkdKdcB//O+T6YamzRpYmHyPlBgVEoaw3OBhg5Rwxoc3j+JtwbBRLkngXyPDg6ylRflQ3hMYVAG2AD3pNKzBIJzotch1phiY80M+U3DGxU50XPD+yeNL1Dm5BGeFsK98sorLZ+j+RIH58XZUpwdYitM/4b7mbYhLknzJiSa74SN/WAjXEsjjnjD05grnfzi7CwJ2FjLli1tjTPlRIeJSA7Ba0HnxjnYIA09aUkC5+FhYPqM+JGndDgIOab1eJ8t9yfe1FH2sTYvvDaXDbLOrlmzZpb3eLOwe+wtn81l2jnp4aMJ1Merr746dT3KzEu8TqQtJFwnTZ1G1DH4DD3JcfaWBPKHtghboO3fd999rR+gXUJgIX4oA+6N0GYNNnAfHA4IC+Kfr15llkvaegjkLy9ER3yEZQCZbV2cTcTVvbh8hzDcfGmJqytp8yHO9rhXafRXzIKgAwiPfpG0kO9xcSdvctXhaH3KZ79xZQeZdsjxXPYs1lLOy+ZnL2UYFbCAFRc0BZu0MYwD7xgjEhYEU7jFMeKSwkho6dKl5nngntH1daSRzoIKSAWLg8aUtTnhgmEqQgj3IK+oGBzjb1IGDRpkIyde7MoLXrPFhXsjWGjYCD+aBmAUTd7SwJG3mTAVwRdvKEsazLjGiYpHnhAOFb/Q0PgzPYKYzlUGpJ+vHRE3GpfSsMVMyF8aVwQYjVZxyWdLueyQ/ZQ79yRt0XsnyZtc4F1DrLJGE5EVEpfOfHaWD0b+eCWwf9KSWQ9ID3aIXZVkio28Iw+zhY+HkLaFgRX5lRTqM55K8peOJqS4NsdaTrweYR1MW4/CvEQM4UFGIOANCgnbHNavZVuWENfuJYH0067gYaKTJ1/D/eQXbRb9QnRpAetwiTMiIjy/uPUqbT0sLXLVvXz5HiUuLfnqSpp8yGd7YRq4Z3H7K2bmeOiR6WxmPagXmfGPi3tcHY6Sxn6z2WEuexYbSFCKDUMoKKdMmRLsESIdrJFCuPGlEZ7cPvHEE4MjoiyC6MVjGhWUQvwvCAUly74QZqLsU/ruGfE/gxEkIzAhSgs8SBdddJF5V3iNjijbMJPDVJ4Q/2tYqsK0cXEeMhN/bOShFEIIIYQQqZCHUgghhBBCpEKCUgghhBBCpEKCUgghhBBCpEKCUgghhBBCpEKCUgghhBBCpGKDCErejRj3mb4/MsSdl5CXFrwolpe1hp+CEkIIIYQo6xRcUCKg+MY23/Yta/BVGD4DxbeI4+CrGnxLNAm8XZ/PbvEJNCGEEEKIjYGCC0o+28Znp/gW9P8CvgzBZ+OefvrpYE9y+Ng9n1ziKyFx8Lk7PneYBL4IwLdbJ06caJ9wEkIIIYQo6xRcUM6ZM8dEWb169YI9awm/h4kXMBs//PCDe//999ebGuYbu0w/5xJiXMN3cKPH+Y7nwoUL7ZvCxYHvfvJlED5KX7FixWDvOogX8efTdF26dLEP3GeSK76HHnqonY+3UgghhBCirFNQQcl097x58+zzSnzyCy644AJ36qmnmqhq0qSJ23nnnd0111xTJBw5zhR5mzZtXMuWLd3s2bPNy9i3b1/z7vGR+Lp167rJkyebUEO0HX744W7EiBEWHh+J59NifNCej7q3bdvWPgx/3HHH2b1g5syZ7qCDDipa18k6yfbt29v/MGbMGLfLLru4nj17usaNG7tevXq5b775xo7NnTvXdejQwfXr1881bdrUPkv36KOPutatW9txiIsv8HlEhC5xhBdeeMG+kcxn7oQQQgghyhoFFZR4H/HiNWjQINjj3Lfffuvuuusud/zxx5vwuvzyy93YsWPd4sWLi47fe++9Ns38ySefuI4dO5rAY1qZ6fOvv/7ajl188cV2DSLt448/tg/NT5s2zdYzli9f3qag99xzTxOP3J/p69dee83u8eOPP1rcQhG7Zs0aE5UhCMUFCxaYh/SRRx5x8+fPtx8gBPl/0003tfsSN8KLekDj4gt8w7Ry5cq2FAC49sUXXywSrUIIIYQQZYmCCkqEFr8qVaoEe9Zy2GGHmYcP4de1a1e3+eabF4k9wNuHdxDRhvBD1J100kmuYcOGbrPNNnN9+vSxa/HswSabbOLOPfdcE5A77LCDrVHE24fY5MPzHOcvIi4JeCuZpseDydQ33tWoYKxRo4YbPHiw22qrrSyOUfCY5otvhQoV7NoVK1bYNh7WV155xTVv3ty2hRBCCCHKEgUVlKtXr3ae55mgi4LICvexPhGhF/XOsR1OkbNG8bvvvnO1a9e2bahUqZKrVq1akSCD6D0Ik+l27l0S8HY2atTIhO3ZZ59tnshoWIjDXOI0SXzLlStneYBnVAghhBCirFNQQYknDqHHwzJRouIMAcbx6tWrB3vWB2HJLzolzTUrV650NWvWDPYUD8Qc092hoCM+4fpGPKKXXnqprZtkSnrWrFnrTdnnI0l8EbukuWrVqrYthBBCCFGWKaigZKobociLvKPwEAvrHRFx999/v4k7PILZ4HoesuE9lqy55BreC8k1+++/f3BWbvAmMi3NtSFMizMVzxpHxN1NN91U9IAMayQRe3gYEcM82FOcp7GTxJd1oqyt5MEfIH+GDh1q6z+FEEIIIcoaBRWUeOAQigi30AMItWrVcsOGDXN16tSxp7OZVt5tt93sGAIwnO4GvInDhw834Ve/fn1b28hDL6NGjbInupk+5hrOC4mGgcDjifEhQ4bYE9fAk9s87MODQbvuuquJyVDsITa7d+9uAo99vDaIe4bhI05Dz2tIuA/yxRd42If8CNPMNg8qldWvCQkhhBDiz005r6QLDRMydepUN3LkSPfwww+bkBw0aJBNB/MUNk9C80od9ucDAYYnj4djePgm6QM2gHcw9ECGnlDCe/fdd034IfSiAhG4F9PUiFAEanGJi+9VV11lD+7gpWW9J6Kah3ImTZpkD+sIIYQQQpQlCi4omfblKzk8Fd2jR48iQTllypTgjD8XPLDTuXNnW6PZv39/807yRDjv4uQ9mkIIIYQQZY2CTnkDr9jhHYy8GgiYBubF3n9WVq1aZYKyW7duts2U+PTp0yUmhRBCCFFmKbiHUgghhBBCbNwU3EMphBBCCCE2biQohRBCCCFEKiQohRBCCCFEKiQohRBCCCFEKiQohRBCCCFEKiQohRBCCCFEKiQohRBCCCFEKiQohRBCCCFEKiQohRBCCCFEKiQohRBCCCFEKiQohRBCCCFEKiQohRBCCCFEKiQohRBCCCFEKiQohRBCCCFEKiQohRBCCCFEKiQoRWp+/vln9/bbb7s1a9YEe0RZ48MPP3Rff/11sCWEEEIUj4IKyq+++srNmTPHzZo1a73fiy++GJyRny+//NLdfffd7m9/+5u7+eab3RtvvBEc2TC888477tZbbw22Nh6eeOIJd8ABBwRbJee3335zV1xxhTvrrLPc999/H+xNRqHz9tFHH3WtW7e2/4nbuHHj3KJFi2xbrOO5555zRx55pHv11VeDPSXjoYcecvfff3+wtXFx4YUXuoEDBwZbQgghMimooFy8eLEbNmyYNcbhr3fv3u7cc89NJD5mzpzpmjVr5kaPHu2WLl3qpkyZYiIIcfnrr78GZxUWBMjtt98ebKUDEde3b18T2v9rfvrpJxPraXnhhRfc3Llz3dVXX+2qVKkS7E1GaeZtNn788Uf3xRdf2P8rV650d9xxh3v55ZdtW6zlhx9+sPp18sknu0MOOSTYW3wYWDzwwANu2rRpwZ6Ni2+++cZsCD777DNrx55++mnbFkIIUWBBedBBB5n3g06cH8Jj5513docddpjbaqutgrOy895775nwxHMyb948969//cuuv/jii921117rnnzyyeDM7Hz++ec2jUdHF4XpWTxjucRU5nVdunSxNGTy6aef2i8XhMMvCh3RSy+9ZGIuk3zhReF60pAtHARCrmOI8A8++CB2ajMuHuH14WCAPNp6663djTfe6HbbbTfbVxyy5S3lwj2KM2AgHp988omVW67rateubQKgV69ewZ7c5LMR8vj999/Pei/iQjwyyz4fcfcsTpiZ9hslW7z5H+/ySSedFOxZH8KhPPLlhed5ZgfU05C4ckmaJsJ/9913s9pzXFqBe3700UcWRiYlsbMQ4rJw4cKiwUpIaaRXCCHKLH5HsMGYNGmSt+uuu3pLliwJ9uTm1ltv9XbaaaffneuLMq9Zs2aeLzaDPeuYM2eO17FjR2/gwIHedttt55UvX97r2rWr5zf8dnz06NFezZo1LdwqVap4xx9/vLdy5Uo75ncuXqdOnTxf6HqVK1f22rRp4y1btszzRazXqlUrOwdWrFhh1+24446eL469li1beosWLbJj3N8Xy94ZZ5zhVa9e3atQoYLnd9TeqlWrvFtuucXC3nTTTS38I444wq6JCy8K6eaa4cOHWx5WrFjRq1evnjd//nw7vnr1au+GG26wdBM+9yIe3377rR33O32vXbt23pZbbultv/32Xo8ePSyckCTp6t27t1e1alXPFyDeM8884zVq1MirVauWV6NGDW+vvfbyfLFs54esWbPGrjnzzDODPZ7nd+Re27ZtvYkTJ66Xt999953Xr18/r06dOl7Dhg09X2zavuXLl9s5M2fOtPPgkksu8fr27Wv/x8XjwQcf9Hyha/9jA5TptGnTbBv78cVw0a9nz562P85Ghg4d6vXv399r0aKF5WE0TvDaa695zZs3t/jXrVvX8wc+tn/GjBle69atLS1AHlAWIXH3zBVmlHx2ny3e+eyFawiPsiJOlSpV8saMGWNlGh7PDPOCCy7wBgwYYMfjyiVJmnzR5o0YMcLujc0RzuzZs+0YttqnTx+zZeLlDxasbfFFnB0nbsSjQ4cOdi2/8ePH27FcdpavjE499VSrM4sXL7Z6Qz2mDlJmUJL0Pv/88xaXt956y7aFEKIss8EeysGrxZQj3km/YQ325uaVV15xfuPrfIET7FmLL9TcLrvs4vxGONizDjwHeDP5++abb7qnnnrKPIKTJ0+2402bNnULFiwwj8ojjzzifDFmP7wJl112mfM7Fnu4BA8d66U22WST9aZN4ZprrrGpL7+TsPWcjRs3dn7HZ8e4L+ETHt6m//73v7auzO9szAPEGtDdd9/d+R2Jmzp1ql0TF14UPBx4VFij9p///Mc8IX6nZfHmvkynsxTAFwkWHssFpk+f7iZMmGDXMq1JWkgfcSSNXBeSL13kk9+Juo8//tj5wsJts802tv4RDxBh4gGkfKNwPmsYfSFg5wGeHTw1lEU0b/FU8nv88cdteQN55QsGy0vO4dwQph9DL2uSeAAPDOGVCsPxRanZBl5vXyC4Pffc0/bnshHwxZa799573WmnnWb574s42x9y5513Ol/ku9dff93S4AtD2889uXfotSIu0WUPcffMFWYUyifO7rPFO85ewmvuuusuux+e9csvv9yNHTvWlrGExzPDjE4Lx5VLkjT5gwFbDnHfffdZ3pEWX1zaMeyP5RLMemAHxIGZi2jcqF++6HS++LTp/Ouuu868g7nsLF8ZhWAn5FWDBg1sTS71BUqSXuya9eTkmxBClHU2mKCkk6MxZe0RQi0fq1atsoa+fPnywZ51VK5c2a1evTrYWh8EKJ0LDXzz5s3dgQceWDQ93r59ezuOmGKKcYsttrBGnQ4T0UcHtMMOO7iKFSu6Hj16uO23396uC6HD4SGjVq1ambhDeDVq1Mg68ZBatWq58847z+K4zz77uO22285EGOKK+5F2jnGPJOFF4dqhQ4e6Jk2auKpVq7rjjjvOriE9M2bMsGu7du1q5x188MHu0EMPNYHCfZjupSMjfiw7IBziAEniUaNGDTd48GBbqkBamOJmPSsinPSRb/zNpE2bNlZWCCagM0asZg4qyBPCQtQgjAiP++QjaTwyQZwgJBEulSpVKnrgIpeNhCCQe/bsaXHLtGPKmoEQeV2hQgUb/CQh7p5Jw4yze8iMd5y9hDD469evn9VBztt8882LBBTE5UVcuSRJE4MQ6g/2Q9j83W+//UwUEkcGaNjQZpttZvWWOLKeN4Q8xd7Z37ZtW4sHwq2kdhaFdok48ZfwoCTpPfzww20/5SWEEGWdDSIoGe0zWqfh3HfffYO98dBQ49Wkg42CB4FOhY4zG+XKlSvqIGj0EYWIUwg7UTrCs88+2xp8z/OsY+FHwx8H4eC1GD9+vDvllFPsh+eEMKMQB6AD5peZhpCk4YUQLuGFbLvttvaXfMIzglckKsDZxmOE94VzogKZvAnjmSQehBt2noDw7Ny5s3lsGCTg6cu2lg3PTIsWLawDx1uEyDnmmGPWiydgG3hb8STheZ04cWLW8DJJGo9sMIjACzd8+PCiTj6XjYSQBwi+bJBveOpYG4qgSfrUdNw9k4YZZ/eQGe84ewlBrBEWMPggjKg3LS4v4solSZqo4wxiMsUedoxoI64hDAiqVatm9hUS2jYg4oCBTUntLB9p0yuEEGWdDSIomeZkdM4Tzrk6oEzwYjEFyMM5UZhOYmoLb0A+aNDpZBCKeOEuvfRSeygDzxuvL2LaCuhw8DYwVRYH59GJ8rT6s88+W/QLpxaLS0nCi4obvFgIAh6MoUMljeGUHSxbtsyEN+cgRKNTeORNGFZJ4nH99ddb505Z4BnCo5sNBAHeLaYZ8QYi3PGGZYJwwT6YFuzfv7+JPMJmP2FEPdLRNCaNRyaIkpEjR7pOnTqZZw7ibCQJ5DXTwggGBBheYECYEWcGVkC+h2Ij3z1zhRlH1O5zEWcvIVFbI495uCWp1zWuXJKkifswnR3mUwjtB7+oLXMfhHDNmjWDPbnJZWdxZZSEtOkVQoiyTsEFJY0yXgCm5Nq1axfsXQuvGMm2XhCYbsPzwHGmpIEOkGk99h999NG2LxPWc7EuDOHCOjLWojFdxjYdIp4NOhU6lOXLl9s1ePrwViCg6MQ4l/VQrIOMwnl4OHgvZtih0QHRESchXKsVCtfihkeHR8eF0EYQEV/ijTeKV77QkYXTnAi4xx57zB111FEmLBDorEfDw0T4PCkfPv1aknRxHtdRFpQPU3e5wPOGqP373/9u05Y77bRTcGQdDBQoO8QtXhzOx7OL0OU+LJkgTkx3ko6Q4sQjCk8jU/6sryMvyYs4G8kHdk7+E0adOnVswMP/wPQn5c6av19++cXddNNNbsmSJXYs7p5xYWaSy+5zEWcvIbzHkzpKPFi7i/3l8p5nkqtckqaJ/ZzHwAYefvhh8+QiNJkKnzBhgoVLePfcc4/Fbf/997dz48hlZ3FllAnXMMgJ2yUoSXoZLCMuM9sZIYQoixRcUDIVxHqoE044wdb9RaETy/XeOh68ue2226yxrV+/vq2X4i9TdUzNZhMlwD0Il/VxdJotW7Z0xx57rHUY3bt3twacjufKK680kYtngg4C7xxTjdyDsBEtdA50HHQ+wLm8V5MOZ4899rDpe9YjhqI4PBdhAEy7EXY4TU1HyNo9Onqmx/KFlwnhEifWx5E/eLS4nnswndatWzcLl3QhyNnHGjfuM2TIEOvAmIIm/az5Ik+guOkCPGqsiyR/ebUTnSnxyAbrNokPApWyCMOJ5i1ebN45Sh4xJX7EEUeYCCa9rG+cNGmSlcv5559vg4kwT+PiEQ0/LAvSSiePkMJjhCDHg0SextkIcH0uDzth8oAH9sMaVwTJ6aefbsdIB1OerOnDLhEqofiJu2dcmJnksnvIFu84ewmh3LALhBC2wHQ8dgPZwozuy1UuSdOEV5t0EC/iN2DAAPPukS94FbFVwuAYD+mMGjXKHniDzLhxDfaC3eWys7gygmiYiFrqMHUK+4GSpJeBIUsuWDsrhBBlnXJedF7rDwieB57oZnqXKS2EVFTYRMGDwYMjTBuyfozz6GQQFiGIKqbH6Aho8KPgqeDBIc7PvC4KnQRCGU8SIie6nisfeMPwQtERhtclCY8pTDrXiy66yMQP4gxvEQ/JRGHtGSKcMBACUfBO0lHy9DxiIZPipgtvLmVDZ8kUalrw7OBBCh8cisIxng5H8GamubTjEWcjcZB/xB9vFcIrOn3MMd6niBDCtjJtONc948IMSWL3uchlL4MGDbJ78qQ1T1Tnspk4cpVLkjQB51HmlD1rExlchHCMPKNd4Bie7KTksrN8ZRSFdin0YIZe2+KmF5GOJ5PBUqZNCyFEWeMPLyiLQ9ixMj2GINqYiArKpOsExZ+DQth9KCj5OpUoffBO8qQ6r+vCcymEEGWd3EPwMgjTTEzXslZxYwOvFVN1ma8yEqIQdo+XDW+wKAzMUPDmA4lJIcTGwkbloRRCCCGEEBuejcpDKYQQQgghNjwSlEIIIYQQIhUSlEIIIYQQIhUSlEIIIYQQIhUSlEIIIYQQIhUSlEIIIYQQIhUSlEIIIYQQIhUSlEIIIYQQIhUSlEIIIYQQIhUSlEIIIYQQIhUSlEIIIYQQIhUSlEIIIYQQIhUSlEIIIYQQIhUSlEIIIYQQIhUSlEIIIYQQIhUSlEIIIYQQIhUSlEIIIYQQIhUSlEIIIYQQIhUSlEIIIYQQIhUSlEIIIYQQIhUSlEIIIYQQIhUSlEIIIYQQIhUSlEIIIYQQIhUSlEIIIYQQIhUSlEIIIYQQIhUSlEIIIYQQIhUSlEIIIYQQIhUSlEIIIYQQIhUSlEIIIYQQIhUSlEIIIYQQIhUSlEIIIYQQIhUSlEIIIYQQIhUSlEIIIYQQIhUSlEIIIYQQIhUSlEIIIYQQIhUSlEIIIYQQIhUSlEIIIYQQIgXO/T9ZrJ33FoTy6gAAAABJRU5ErkJggg==;" parent="1" vertex="1">
          <mxGeometry x="-960" y="-710" width="660" height="495" as="geometry" />
        </mxCell>
        <mxCell id="yDUD_mWYsvDWhnTY4AmZ-3" value="Administrador" style="whiteSpace=wrap;html=1;" parent="1" vertex="1">
          <mxGeometry x="70" y="790" width="120" height="60" as="geometry" />
        </mxCell>
        <mxCell id="yDUD_mWYsvDWhnTY4AmZ-39" style="edgeStyle=orthogonalEdgeStyle;shape=connector;rounded=0;orthogonalLoop=1;jettySize=auto;html=1;exitX=1;exitY=0.5;exitDx=0;exitDy=0;entryX=0;entryY=0.5;entryDx=0;entryDy=0;labelBackgroundColor=default;strokeColor=default;fontFamily=Helvetica;fontSize=11;fontColor=default;endArrow=none;endFill=0;" parent="1" source="yDUD_mWYsvDWhnTY4AmZ-4" target="yDUD_mWYsvDWhnTY4AmZ-17" edge="1">
          <mxGeometry relative="1" as="geometry" />
        </mxCell>
        <mxCell id="yDUD_mWYsvDWhnTY4AmZ-4" value="MÃ©dico" style="rounded=0;whiteSpace=wrap;html=1;" parent="1" vertex="1">
          <mxGeometry x="-788" y="850" width="120" height="60" as="geometry" />
        </mxCell>
        <mxCell id="yDUD_mWYsvDWhnTY4AmZ-40" style="edgeStyle=orthogonalEdgeStyle;shape=connector;rounded=0;orthogonalLoop=1;jettySize=auto;html=1;exitX=0.5;exitY=1;exitDx=0;exitDy=0;entryX=0.5;entryY=0;entryDx=0;entryDy=0;labelBackgroundColor=default;strokeColor=default;fontFamily=Helvetica;fontSize=11;fontColor=default;endArrow=none;endFill=0;" parent="1" source="yDUD_mWYsvDWhnTY4AmZ-5" target="yDUD_mWYsvDWhnTY4AmZ-17" edge="1">
          <mxGeometry relative="1" as="geometry" />
        </mxCell>
        <mxCell id="yDUD_mWYsvDWhnTY4AmZ-5" value="Paciente" style="rounded=0;whiteSpace=wrap;html=1;" parent="1" vertex="1">
          <mxGeometry x="-409.5" y="760" width="120" height="60" as="geometry" />
        </mxCell>
        <mxCell id="yDUD_mWYsvDWhnTY4AmZ-6" value="Consulta" style="rounded=0;whiteSpace=wrap;html=1;" parent="1" vertex="1">
          <mxGeometry x="-411" y="1060" width="120" height="60" as="geometry" />
        </mxCell>
        <mxCell id="yDUD_mWYsvDWhnTY4AmZ-7" value="ProntuÃ¡rio" style="rounded=0;whiteSpace=wrap;html=1;" parent="1" vertex="1">
          <mxGeometry x="-788" y="1060" width="120" height="60" as="geometry" />
        </mxCell>
        <mxCell id="yDUD_mWYsvDWhnTY4AmZ-8" value="Usuario" style="rounded=0;whiteSpace=wrap;html=1;" parent="1" vertex="1">
          <mxGeometry x="-409.5" y="330" width="120" height="60" as="geometry" />
        </mxCell>
        <mxCell id="yDUD_mWYsvDWhnTY4AmZ-16" style="edgeStyle=orthogonalEdgeStyle;shape=connector;rounded=0;orthogonalLoop=1;jettySize=auto;html=1;exitX=0.5;exitY=1;exitDx=0;exitDy=0;labelBackgroundColor=default;strokeColor=default;fontFamily=Helvetica;fontSize=11;fontColor=default;endArrow=none;endFill=0;" parent="1" target="yDUD_mWYsvDWhnTY4AmZ-3" edge="1">
          <mxGeometry relative="1" as="geometry">
            <mxPoint x="130" y="760" as="sourcePoint" />
          </mxGeometry>
        </mxCell>
        <mxCell id="yDUD_mWYsvDWhnTY4AmZ-43" style="edgeStyle=orthogonalEdgeStyle;shape=connector;rounded=0;orthogonalLoop=1;jettySize=auto;html=1;exitX=0;exitY=0.5;exitDx=0;exitDy=0;entryX=0.5;entryY=0;entryDx=0;entryDy=0;labelBackgroundColor=default;strokeColor=default;fontFamily=Helvetica;fontSize=11;fontColor=default;endArrow=none;endFill=0;" parent="1" source="yDUD_mWYsvDWhnTY4AmZ-11" target="yDUD_mWYsvDWhnTY4AmZ-4" edge="1">
          <mxGeometry relative="1" as="geometry" />
        </mxCell>
        <mxCell id="yDUD_mWYsvDWhnTY4AmZ-44" style="edgeStyle=orthogonalEdgeStyle;shape=connector;rounded=0;orthogonalLoop=1;jettySize=auto;html=1;exitX=0.5;exitY=1;exitDx=0;exitDy=0;labelBackgroundColor=default;strokeColor=default;fontFamily=Helvetica;fontSize=11;fontColor=default;endArrow=none;endFill=0;" parent="1" source="yDUD_mWYsvDWhnTY4AmZ-11" target="yDUD_mWYsvDWhnTY4AmZ-5" edge="1">
          <mxGeometry relative="1" as="geometry" />
        </mxCell>
        <mxCell id="T6XiwdTETG_zGZlDO8Nx-106" style="edgeStyle=orthogonalEdgeStyle;rounded=0;orthogonalLoop=1;jettySize=auto;html=1;exitX=1;exitY=0.5;exitDx=0;exitDy=0;endArrow=none;endFill=0;" parent="1" source="yDUD_mWYsvDWhnTY4AmZ-11" target="yDUD_mWYsvDWhnTY4AmZ-3" edge="1">
          <mxGeometry relative="1" as="geometry" />
        </mxCell>
        <mxCell id="yDUD_mWYsvDWhnTY4AmZ-11" value="Possui" style="rhombus;whiteSpace=wrap;html=1;" parent="1" vertex="1">
          <mxGeometry x="-386" y="610" width="70" height="70" as="geometry" />
        </mxCell>
        <mxCell id="yDUD_mWYsvDWhnTY4AmZ-46" style="edgeStyle=orthogonalEdgeStyle;shape=connector;rounded=0;orthogonalLoop=1;jettySize=auto;html=1;exitX=0.5;exitY=1;exitDx=0;exitDy=0;labelBackgroundColor=default;strokeColor=default;fontFamily=Helvetica;fontSize=11;fontColor=default;endArrow=classic;endFill=1;" parent="1" source="yDUD_mWYsvDWhnTY4AmZ-17" target="yDUD_mWYsvDWhnTY4AmZ-6" edge="1">
          <mxGeometry relative="1" as="geometry" />
        </mxCell>
        <mxCell id="yDUD_mWYsvDWhnTY4AmZ-17" value="Possui" style="rhombus;whiteSpace=wrap;html=1;" parent="1" vertex="1">
          <mxGeometry x="-384.5" y="917.5" width="70" height="70" as="geometry" />
        </mxCell>
        <mxCell id="yDUD_mWYsvDWhnTY4AmZ-29" style="edgeStyle=orthogonalEdgeStyle;shape=connector;rounded=0;orthogonalLoop=1;jettySize=auto;html=1;exitX=1;exitY=0.5;exitDx=0;exitDy=0;labelBackgroundColor=default;strokeColor=default;fontFamily=Helvetica;fontSize=11;fontColor=default;endArrow=none;endFill=0;" parent="1" source="yDUD_mWYsvDWhnTY4AmZ-28" target="yDUD_mWYsvDWhnTY4AmZ-6" edge="1">
          <mxGeometry relative="1" as="geometry" />
        </mxCell>
        <mxCell id="yDUD_mWYsvDWhnTY4AmZ-30" style="edgeStyle=orthogonalEdgeStyle;shape=connector;rounded=0;orthogonalLoop=1;jettySize=auto;html=1;exitX=0;exitY=0.5;exitDx=0;exitDy=0;labelBackgroundColor=default;strokeColor=default;fontFamily=Helvetica;fontSize=11;fontColor=default;endArrow=none;endFill=0;" parent="1" source="yDUD_mWYsvDWhnTY4AmZ-28" target="yDUD_mWYsvDWhnTY4AmZ-7" edge="1">
          <mxGeometry relative="1" as="geometry" />
        </mxCell>
        <mxCell id="yDUD_mWYsvDWhnTY4AmZ-28" value="Possui" style="rhombus;whiteSpace=wrap;html=1;" parent="1" vertex="1">
          <mxGeometry x="-570" y="1055" width="70" height="70" as="geometry" />
        </mxCell>
        <mxCell id="yDUD_mWYsvDWhnTY4AmZ-47" value="N" style="text;html=1;align=center;verticalAlign=middle;resizable=0;points=[];autosize=1;strokeColor=#9673a6;fillColor=#e1d5e7;fontSize=11;fontFamily=Helvetica;" parent="1" vertex="1">
          <mxGeometry x="-723" y="820" width="30" height="30" as="geometry" />
        </mxCell>
        <mxCell id="yDUD_mWYsvDWhnTY4AmZ-48" value="N" style="text;html=1;align=center;verticalAlign=middle;resizable=0;points=[];autosize=1;strokeColor=#9673a6;fillColor=#e1d5e7;fontSize=11;fontFamily=Helvetica;" parent="1" vertex="1">
          <mxGeometry x="131" y="760" width="30" height="30" as="geometry" />
        </mxCell>
        <mxCell id="yDUD_mWYsvDWhnTY4AmZ-49" value="N" style="text;html=1;align=center;verticalAlign=middle;resizable=0;points=[];autosize=1;strokeColor=#9673a6;fillColor=#e1d5e7;fontSize=11;fontFamily=Helvetica;" parent="1" vertex="1">
          <mxGeometry x="-349.5" y="730" width="30" height="30" as="geometry" />
        </mxCell>
        <mxCell id="yDUD_mWYsvDWhnTY4AmZ-50" value="1" style="text;html=1;align=center;verticalAlign=middle;resizable=0;points=[];autosize=1;strokeColor=#005700;fillColor=#008a00;fontSize=11;fontFamily=Helvetica;fontColor=#ffffff;" parent="1" vertex="1">
          <mxGeometry x="-344.5" y="390" width="30" height="30" as="geometry" />
        </mxCell>
        <mxCell id="yDUD_mWYsvDWhnTY4AmZ-52" style="edgeStyle=orthogonalEdgeStyle;shape=connector;rounded=0;orthogonalLoop=1;jettySize=auto;html=1;exitX=0;exitY=0.5;exitDx=0;exitDy=0;labelBackgroundColor=default;strokeColor=default;fontFamily=Helvetica;fontSize=11;fontColor=default;endArrow=none;endFill=0;" parent="1" source="yDUD_mWYsvDWhnTY4AmZ-51" target="yDUD_mWYsvDWhnTY4AmZ-8" edge="1">
          <mxGeometry relative="1" as="geometry" />
        </mxCell>
        <mxCell id="yDUD_mWYsvDWhnTY4AmZ-51" value="Tipo De Perfil" style="ellipse;whiteSpace=wrap;html=1;fontFamily=Helvetica;fontSize=11;fontColor=default;" parent="1" vertex="1">
          <mxGeometry x="-220" y="515" width="75" height="50" as="geometry" />
        </mxCell>
        <mxCell id="yDUD_mWYsvDWhnTY4AmZ-53" value="1" style="text;html=1;align=center;verticalAlign=middle;resizable=0;points=[];autosize=1;strokeColor=#005700;fillColor=#008a00;fontSize=11;fontFamily=Helvetica;fontColor=#ffffff;" parent="1" vertex="1">
          <mxGeometry x="-379.5" y="820" width="30" height="30" as="geometry" />
        </mxCell>
        <mxCell id="yDUD_mWYsvDWhnTY4AmZ-54" value="1" style="text;html=1;align=center;verticalAlign=middle;resizable=0;points=[];autosize=1;strokeColor=#005700;fillColor=#008a00;fontSize=11;fontFamily=Helvetica;fontColor=#ffffff;" parent="1" vertex="1">
          <mxGeometry x="131" y="850" width="30" height="30" as="geometry" />
        </mxCell>
        <mxCell id="yDUD_mWYsvDWhnTY4AmZ-55" value="1" style="text;html=1;align=center;verticalAlign=middle;resizable=0;points=[];autosize=1;strokeColor=#005700;fillColor=#008a00;fontSize=11;fontFamily=Helvetica;fontColor=#ffffff;" parent="1" vertex="1">
          <mxGeometry x="-668" y="850" width="30" height="30" as="geometry" />
        </mxCell>
        <mxCell id="yDUD_mWYsvDWhnTY4AmZ-56" value="N" style="text;html=1;align=center;verticalAlign=middle;resizable=0;points=[];autosize=1;strokeColor=#9673a6;fillColor=#e1d5e7;fontSize=11;fontFamily=Helvetica;" parent="1" vertex="1">
          <mxGeometry x="-346" y="1030" width="30" height="30" as="geometry" />
        </mxCell>
        <mxCell id="yDUD_mWYsvDWhnTY4AmZ-57" value="1" style="text;html=1;align=center;verticalAlign=middle;resizable=0;points=[];autosize=1;strokeColor=#005700;fillColor=#008a00;fontSize=11;fontFamily=Helvetica;fontColor=#ffffff;" parent="1" vertex="1">
          <mxGeometry x="-668" y="1060" width="30" height="30" as="geometry" />
        </mxCell>
        <mxCell id="yDUD_mWYsvDWhnTY4AmZ-58" value="N" style="text;html=1;align=center;verticalAlign=middle;resizable=0;points=[];autosize=1;strokeColor=#9673a6;fillColor=#e1d5e7;fontSize=11;fontFamily=Helvetica;" parent="1" vertex="1">
          <mxGeometry x="-443" y="1060" width="30" height="30" as="geometry" />
        </mxCell>
        <mxCell id="yDUD_mWYsvDWhnTY4AmZ-73" value="Clinica" style="shape=table;startSize=30;container=1;collapsible=1;childLayout=tableLayout;fixedRows=1;rowLines=0;fontStyle=1;align=center;resizeLast=1;html=1;fontFamily=Helvetica;fontSize=11;fontColor=default;" parent="1" vertex="1">
          <mxGeometry x="1410" y="-10" width="180" height="150" as="geometry" />
        </mxCell>
        <mxCell id="yDUD_mWYsvDWhnTY4AmZ-74" value="" style="shape=tableRow;horizontal=0;startSize=0;swimlaneHead=0;swimlaneBody=0;fillColor=none;collapsible=0;dropTarget=0;points=[[0,0.5],[1,0.5]];portConstraint=eastwest;top=0;left=0;right=0;bottom=1;fontFamily=Helvetica;fontSize=11;fontColor=default;" parent="yDUD_mWYsvDWhnTY4AmZ-73" vertex="1">
          <mxGeometry y="30" width="180" height="30" as="geometry" />
        </mxCell>
        <mxCell id="yDUD_mWYsvDWhnTY4AmZ-75" value="PK" style="shape=partialRectangle;connectable=0;fillColor=none;top=0;left=0;bottom=0;right=0;fontStyle=1;overflow=hidden;whiteSpace=wrap;html=1;fontFamily=Helvetica;fontSize=11;fontColor=default;" parent="yDUD_mWYsvDWhnTY4AmZ-74" vertex="1">
          <mxGeometry width="30" height="30" as="geometry">
            <mxRectangle width="30" height="30" as="alternateBounds" />
          </mxGeometry>
        </mxCell>
        <mxCell id="yDUD_mWYsvDWhnTY4AmZ-76" value="IdClinica" style="shape=partialRectangle;connectable=0;fillColor=none;top=0;left=0;bottom=0;right=0;align=left;spacingLeft=6;fontStyle=5;overflow=hidden;whiteSpace=wrap;html=1;fontFamily=Helvetica;fontSize=11;fontColor=default;" parent="yDUD_mWYsvDWhnTY4AmZ-74" vertex="1">
          <mxGeometry x="30" width="150" height="30" as="geometry">
            <mxRectangle width="150" height="30" as="alternateBounds" />
          </mxGeometry>
        </mxCell>
        <mxCell id="yDUD_mWYsvDWhnTY4AmZ-77" value="" style="shape=tableRow;horizontal=0;startSize=0;swimlaneHead=0;swimlaneBody=0;fillColor=none;collapsible=0;dropTarget=0;points=[[0,0.5],[1,0.5]];portConstraint=eastwest;top=0;left=0;right=0;bottom=0;fontFamily=Helvetica;fontSize=11;fontColor=default;" parent="yDUD_mWYsvDWhnTY4AmZ-73" vertex="1">
          <mxGeometry y="60" width="180" height="30" as="geometry" />
        </mxCell>
        <mxCell id="yDUD_mWYsvDWhnTY4AmZ-78" value="" style="shape=partialRectangle;connectable=0;fillColor=none;top=0;left=0;bottom=0;right=0;editable=1;overflow=hidden;whiteSpace=wrap;html=1;fontFamily=Helvetica;fontSize=11;fontColor=default;" parent="yDUD_mWYsvDWhnTY4AmZ-77" vertex="1">
          <mxGeometry width="30" height="30" as="geometry">
            <mxRectangle width="30" height="30" as="alternateBounds" />
          </mxGeometry>
        </mxCell>
        <mxCell id="yDUD_mWYsvDWhnTY4AmZ-79" value="Endereco" style="shape=partialRectangle;connectable=0;fillColor=none;top=0;left=0;bottom=0;right=0;align=left;spacingLeft=6;overflow=hidden;whiteSpace=wrap;html=1;fontFamily=Helvetica;fontSize=11;fontColor=default;" parent="yDUD_mWYsvDWhnTY4AmZ-77" vertex="1">
          <mxGeometry x="30" width="150" height="30" as="geometry">
            <mxRectangle width="150" height="30" as="alternateBounds" />
          </mxGeometry>
        </mxCell>
        <mxCell id="yDUD_mWYsvDWhnTY4AmZ-80" value="" style="shape=tableRow;horizontal=0;startSize=0;swimlaneHead=0;swimlaneBody=0;fillColor=none;collapsible=0;dropTarget=0;points=[[0,0.5],[1,0.5]];portConstraint=eastwest;top=0;left=0;right=0;bottom=0;fontFamily=Helvetica;fontSize=11;fontColor=default;" parent="yDUD_mWYsvDWhnTY4AmZ-73" vertex="1">
          <mxGeometry y="90" width="180" height="30" as="geometry" />
        </mxCell>
        <mxCell id="yDUD_mWYsvDWhnTY4AmZ-81" value="" style="shape=partialRectangle;connectable=0;fillColor=none;top=0;left=0;bottom=0;right=0;editable=1;overflow=hidden;whiteSpace=wrap;html=1;fontFamily=Helvetica;fontSize=11;fontColor=default;" parent="yDUD_mWYsvDWhnTY4AmZ-80" vertex="1">
          <mxGeometry width="30" height="30" as="geometry">
            <mxRectangle width="30" height="30" as="alternateBounds" />
          </mxGeometry>
        </mxCell>
        <mxCell id="yDUD_mWYsvDWhnTY4AmZ-82" value="CNPJ" style="shape=partialRectangle;connectable=0;fillColor=none;top=0;left=0;bottom=0;right=0;align=left;spacingLeft=6;overflow=hidden;whiteSpace=wrap;html=1;fontFamily=Helvetica;fontSize=11;fontColor=default;" parent="yDUD_mWYsvDWhnTY4AmZ-80" vertex="1">
          <mxGeometry x="30" width="150" height="30" as="geometry">
            <mxRectangle width="150" height="30" as="alternateBounds" />
          </mxGeometry>
        </mxCell>
        <mxCell id="yDUD_mWYsvDWhnTY4AmZ-83" value="" style="shape=tableRow;horizontal=0;startSize=0;swimlaneHead=0;swimlaneBody=0;fillColor=none;collapsible=0;dropTarget=0;points=[[0,0.5],[1,0.5]];portConstraint=eastwest;top=0;left=0;right=0;bottom=0;fontFamily=Helvetica;fontSize=11;fontColor=default;" parent="yDUD_mWYsvDWhnTY4AmZ-73" vertex="1">
          <mxGeometry y="120" width="180" height="30" as="geometry" />
        </mxCell>
        <mxCell id="yDUD_mWYsvDWhnTY4AmZ-84" value="" style="shape=partialRectangle;connectable=0;fillColor=none;top=0;left=0;bottom=0;right=0;editable=1;overflow=hidden;whiteSpace=wrap;html=1;fontFamily=Helvetica;fontSize=11;fontColor=default;" parent="yDUD_mWYsvDWhnTY4AmZ-83" vertex="1">
          <mxGeometry width="30" height="30" as="geometry">
            <mxRectangle width="30" height="30" as="alternateBounds" />
          </mxGeometry>
        </mxCell>
        <mxCell id="yDUD_mWYsvDWhnTY4AmZ-85" value="RazaoSocial" style="shape=partialRectangle;connectable=0;fillColor=none;top=0;left=0;bottom=0;right=0;align=left;spacingLeft=6;overflow=hidden;whiteSpace=wrap;html=1;fontFamily=Helvetica;fontSize=11;fontColor=default;" parent="yDUD_mWYsvDWhnTY4AmZ-83" vertex="1">
          <mxGeometry x="30" width="150" height="30" as="geometry">
            <mxRectangle width="150" height="30" as="alternateBounds" />
          </mxGeometry>
        </mxCell>
        <mxCell id="yDUD_mWYsvDWhnTY4AmZ-86" value="Perfil" style="shape=table;startSize=30;container=1;collapsible=1;childLayout=tableLayout;fixedRows=1;rowLines=0;fontStyle=1;align=center;resizeLast=1;html=1;fontFamily=Helvetica;fontSize=11;fontColor=default;" parent="1" vertex="1">
          <mxGeometry x="310" y="220" width="180" height="90" as="geometry" />
        </mxCell>
        <mxCell id="yDUD_mWYsvDWhnTY4AmZ-87" value="" style="shape=tableRow;horizontal=0;startSize=0;swimlaneHead=0;swimlaneBody=0;fillColor=none;collapsible=0;dropTarget=0;points=[[0,0.5],[1,0.5]];portConstraint=eastwest;top=0;left=0;right=0;bottom=1;fontFamily=Helvetica;fontSize=11;fontColor=default;" parent="yDUD_mWYsvDWhnTY4AmZ-86" vertex="1">
          <mxGeometry y="30" width="180" height="30" as="geometry" />
        </mxCell>
        <mxCell id="yDUD_mWYsvDWhnTY4AmZ-88" value="PK" style="shape=partialRectangle;connectable=0;fillColor=none;top=0;left=0;bottom=0;right=0;fontStyle=1;overflow=hidden;whiteSpace=wrap;html=1;fontFamily=Helvetica;fontSize=11;fontColor=default;" parent="yDUD_mWYsvDWhnTY4AmZ-87" vertex="1">
          <mxGeometry width="30" height="30" as="geometry">
            <mxRectangle width="30" height="30" as="alternateBounds" />
          </mxGeometry>
        </mxCell>
        <mxCell id="yDUD_mWYsvDWhnTY4AmZ-89" value="IdPerfil" style="shape=partialRectangle;connectable=0;fillColor=none;top=0;left=0;bottom=0;right=0;align=left;spacingLeft=6;fontStyle=5;overflow=hidden;whiteSpace=wrap;html=1;fontFamily=Helvetica;fontSize=11;fontColor=default;" parent="yDUD_mWYsvDWhnTY4AmZ-87" vertex="1">
          <mxGeometry x="30" width="150" height="30" as="geometry">
            <mxRectangle width="150" height="30" as="alternateBounds" />
          </mxGeometry>
        </mxCell>
        <mxCell id="yDUD_mWYsvDWhnTY4AmZ-90" value="" style="shape=tableRow;horizontal=0;startSize=0;swimlaneHead=0;swimlaneBody=0;fillColor=none;collapsible=0;dropTarget=0;points=[[0,0.5],[1,0.5]];portConstraint=eastwest;top=0;left=0;right=0;bottom=0;fontFamily=Helvetica;fontSize=11;fontColor=default;" parent="yDUD_mWYsvDWhnTY4AmZ-86" vertex="1">
          <mxGeometry y="60" width="180" height="30" as="geometry" />
        </mxCell>
        <mxCell id="yDUD_mWYsvDWhnTY4AmZ-91" value="" style="shape=partialRectangle;connectable=0;fillColor=none;top=0;left=0;bottom=0;right=0;editable=1;overflow=hidden;whiteSpace=wrap;html=1;fontFamily=Helvetica;fontSize=11;fontColor=default;" parent="yDUD_mWYsvDWhnTY4AmZ-90" vertex="1">
          <mxGeometry width="30" height="30" as="geometry">
            <mxRectangle width="30" height="30" as="alternateBounds" />
          </mxGeometry>
        </mxCell>
        <mxCell id="yDUD_mWYsvDWhnTY4AmZ-92" value="TipoDePerfil" style="shape=partialRectangle;connectable=0;fillColor=none;top=0;left=0;bottom=0;right=0;align=left;spacingLeft=6;overflow=hidden;whiteSpace=wrap;html=1;fontFamily=Helvetica;fontSize=11;fontColor=default;" parent="yDUD_mWYsvDWhnTY4AmZ-90" vertex="1">
          <mxGeometry x="30" width="150" height="30" as="geometry">
            <mxRectangle width="150" height="30" as="alternateBounds" />
          </mxGeometry>
        </mxCell>
        <mxCell id="yDUD_mWYsvDWhnTY4AmZ-99" value="Administrador" style="shape=table;startSize=30;container=1;collapsible=1;childLayout=tableLayout;fixedRows=1;rowLines=0;fontStyle=1;align=center;resizeLast=1;html=1;fontFamily=Helvetica;fontSize=11;fontColor=default;" parent="1" vertex="1">
          <mxGeometry x="1040" y="40" width="180" height="120" as="geometry" />
        </mxCell>
        <mxCell id="yDUD_mWYsvDWhnTY4AmZ-196" style="shape=tableRow;horizontal=0;startSize=0;swimlaneHead=0;swimlaneBody=0;fillColor=none;collapsible=0;dropTarget=0;points=[[0,0.5],[1,0.5]];portConstraint=eastwest;top=0;left=0;right=0;bottom=1;fontFamily=Helvetica;fontSize=11;fontColor=default;" parent="yDUD_mWYsvDWhnTY4AmZ-99" vertex="1">
          <mxGeometry y="30" width="180" height="30" as="geometry" />
        </mxCell>
        <mxCell id="yDUD_mWYsvDWhnTY4AmZ-197" value="FK1" style="shape=partialRectangle;connectable=0;fillColor=none;top=0;left=0;bottom=0;right=0;fontStyle=1;overflow=hidden;whiteSpace=wrap;html=1;fontFamily=Helvetica;fontSize=11;fontColor=default;" parent="yDUD_mWYsvDWhnTY4AmZ-196" vertex="1">
          <mxGeometry width="30" height="30" as="geometry">
            <mxRectangle width="30" height="30" as="alternateBounds" />
          </mxGeometry>
        </mxCell>
        <mxCell id="yDUD_mWYsvDWhnTY4AmZ-198" value="IdUsuario" style="shape=partialRectangle;connectable=0;fillColor=none;top=0;left=0;bottom=0;right=0;align=left;spacingLeft=6;fontStyle=5;overflow=hidden;whiteSpace=wrap;html=1;fontFamily=Helvetica;fontSize=11;fontColor=default;" parent="yDUD_mWYsvDWhnTY4AmZ-196" vertex="1">
          <mxGeometry x="30" width="150" height="30" as="geometry">
            <mxRectangle width="150" height="30" as="alternateBounds" />
          </mxGeometry>
        </mxCell>
        <mxCell id="yDUD_mWYsvDWhnTY4AmZ-100" value="" style="shape=tableRow;horizontal=0;startSize=0;swimlaneHead=0;swimlaneBody=0;fillColor=none;collapsible=0;dropTarget=0;points=[[0,0.5],[1,0.5]];portConstraint=eastwest;top=0;left=0;right=0;bottom=1;fontFamily=Helvetica;fontSize=11;fontColor=default;" parent="yDUD_mWYsvDWhnTY4AmZ-99" vertex="1">
          <mxGeometry y="60" width="180" height="30" as="geometry" />
        </mxCell>
        <mxCell id="yDUD_mWYsvDWhnTY4AmZ-101" value="PK" style="shape=partialRectangle;connectable=0;fillColor=none;top=0;left=0;bottom=0;right=0;fontStyle=1;overflow=hidden;whiteSpace=wrap;html=1;fontFamily=Helvetica;fontSize=11;fontColor=default;" parent="yDUD_mWYsvDWhnTY4AmZ-100" vertex="1">
          <mxGeometry width="30" height="30" as="geometry">
            <mxRectangle width="30" height="30" as="alternateBounds" />
          </mxGeometry>
        </mxCell>
        <mxCell id="yDUD_mWYsvDWhnTY4AmZ-102" value="IdAdmin" style="shape=partialRectangle;connectable=0;fillColor=none;top=0;left=0;bottom=0;right=0;align=left;spacingLeft=6;fontStyle=5;overflow=hidden;whiteSpace=wrap;html=1;fontFamily=Helvetica;fontSize=11;fontColor=default;" parent="yDUD_mWYsvDWhnTY4AmZ-100" vertex="1">
          <mxGeometry x="30" width="150" height="30" as="geometry">
            <mxRectangle width="150" height="30" as="alternateBounds" />
          </mxGeometry>
        </mxCell>
        <mxCell id="yDUD_mWYsvDWhnTY4AmZ-103" value="" style="shape=tableRow;horizontal=0;startSize=0;swimlaneHead=0;swimlaneBody=0;fillColor=none;collapsible=0;dropTarget=0;points=[[0,0.5],[1,0.5]];portConstraint=eastwest;top=0;left=0;right=0;bottom=0;fontFamily=Helvetica;fontSize=11;fontColor=default;" parent="yDUD_mWYsvDWhnTY4AmZ-99" vertex="1">
          <mxGeometry y="90" width="180" height="30" as="geometry" />
        </mxCell>
        <mxCell id="yDUD_mWYsvDWhnTY4AmZ-104" value="" style="shape=partialRectangle;connectable=0;fillColor=none;top=0;left=0;bottom=0;right=0;editable=1;overflow=hidden;whiteSpace=wrap;html=1;fontFamily=Helvetica;fontSize=11;fontColor=default;" parent="yDUD_mWYsvDWhnTY4AmZ-103" vertex="1">
          <mxGeometry width="30" height="30" as="geometry">
            <mxRectangle width="30" height="30" as="alternateBounds" />
          </mxGeometry>
        </mxCell>
        <mxCell id="yDUD_mWYsvDWhnTY4AmZ-105" value="Nome" style="shape=partialRectangle;connectable=0;fillColor=none;top=0;left=0;bottom=0;right=0;align=left;spacingLeft=6;overflow=hidden;whiteSpace=wrap;html=1;fontFamily=Helvetica;fontSize=11;fontColor=default;" parent="yDUD_mWYsvDWhnTY4AmZ-103" vertex="1">
          <mxGeometry x="30" width="150" height="30" as="geometry">
            <mxRectangle width="150" height="30" as="alternateBounds" />
          </mxGeometry>
        </mxCell>
        <mxCell id="yDUD_mWYsvDWhnTY4AmZ-112" value="Paciente" style="shape=table;startSize=30;container=1;collapsible=1;childLayout=tableLayout;fixedRows=1;rowLines=0;fontStyle=1;align=center;resizeLast=1;html=1;fontFamily=Helvetica;fontSize=11;fontColor=default;" parent="1" vertex="1">
          <mxGeometry x="860" y="355" width="180" height="210" as="geometry" />
        </mxCell>
        <mxCell id="yDUD_mWYsvDWhnTY4AmZ-202" style="shape=tableRow;horizontal=0;startSize=0;swimlaneHead=0;swimlaneBody=0;fillColor=none;collapsible=0;dropTarget=0;points=[[0,0.5],[1,0.5]];portConstraint=eastwest;top=0;left=0;right=0;bottom=1;fontFamily=Helvetica;fontSize=11;fontColor=default;" parent="yDUD_mWYsvDWhnTY4AmZ-112" vertex="1">
          <mxGeometry y="30" width="180" height="30" as="geometry" />
        </mxCell>
        <mxCell id="yDUD_mWYsvDWhnTY4AmZ-203" value="FK1" style="shape=partialRectangle;connectable=0;fillColor=none;top=0;left=0;bottom=0;right=0;fontStyle=1;overflow=hidden;whiteSpace=wrap;html=1;fontFamily=Helvetica;fontSize=11;fontColor=default;" parent="yDUD_mWYsvDWhnTY4AmZ-202" vertex="1">
          <mxGeometry width="30" height="30" as="geometry">
            <mxRectangle width="30" height="30" as="alternateBounds" />
          </mxGeometry>
        </mxCell>
        <mxCell id="yDUD_mWYsvDWhnTY4AmZ-204" value="IdUsuario" style="shape=partialRectangle;connectable=0;fillColor=none;top=0;left=0;bottom=0;right=0;align=left;spacingLeft=6;fontStyle=5;overflow=hidden;whiteSpace=wrap;html=1;fontFamily=Helvetica;fontSize=11;fontColor=default;" parent="yDUD_mWYsvDWhnTY4AmZ-202" vertex="1">
          <mxGeometry x="30" width="150" height="30" as="geometry">
            <mxRectangle width="150" height="30" as="alternateBounds" />
          </mxGeometry>
        </mxCell>
        <mxCell id="VI1E0Y6XKXNliYmZKWCX-16" style="shape=tableRow;horizontal=0;startSize=0;swimlaneHead=0;swimlaneBody=0;fillColor=none;collapsible=0;dropTarget=0;points=[[0,0.5],[1,0.5]];portConstraint=eastwest;top=0;left=0;right=0;bottom=1;fontFamily=Helvetica;fontSize=11;fontColor=default;" parent="yDUD_mWYsvDWhnTY4AmZ-112" vertex="1">
          <mxGeometry y="60" width="180" height="30" as="geometry" />
        </mxCell>
        <mxCell id="VI1E0Y6XKXNliYmZKWCX-17" value="FK2" style="shape=partialRectangle;connectable=0;fillColor=none;top=0;left=0;bottom=0;right=0;fontStyle=1;overflow=hidden;whiteSpace=wrap;html=1;fontFamily=Helvetica;fontSize=11;fontColor=default;" parent="VI1E0Y6XKXNliYmZKWCX-16" vertex="1">
          <mxGeometry width="30" height="30" as="geometry">
            <mxRectangle width="30" height="30" as="alternateBounds" />
          </mxGeometry>
        </mxCell>
        <mxCell id="VI1E0Y6XKXNliYmZKWCX-18" value="IdPlanoDeSaude" style="shape=partialRectangle;connectable=0;fillColor=none;top=0;left=0;bottom=0;right=0;align=left;spacingLeft=6;fontStyle=5;overflow=hidden;whiteSpace=wrap;html=1;fontFamily=Helvetica;fontSize=11;fontColor=default;" parent="VI1E0Y6XKXNliYmZKWCX-16" vertex="1">
          <mxGeometry x="30" width="150" height="30" as="geometry">
            <mxRectangle width="150" height="30" as="alternateBounds" />
          </mxGeometry>
        </mxCell>
        <mxCell id="yDUD_mWYsvDWhnTY4AmZ-113" value="" style="shape=tableRow;horizontal=0;startSize=0;swimlaneHead=0;swimlaneBody=0;fillColor=none;collapsible=0;dropTarget=0;points=[[0,0.5],[1,0.5]];portConstraint=eastwest;top=0;left=0;right=0;bottom=1;fontFamily=Helvetica;fontSize=11;fontColor=default;" parent="yDUD_mWYsvDWhnTY4AmZ-112" vertex="1">
          <mxGeometry y="90" width="180" height="30" as="geometry" />
        </mxCell>
        <mxCell id="yDUD_mWYsvDWhnTY4AmZ-114" value="PK" style="shape=partialRectangle;connectable=0;fillColor=none;top=0;left=0;bottom=0;right=0;fontStyle=1;overflow=hidden;whiteSpace=wrap;html=1;fontFamily=Helvetica;fontSize=11;fontColor=default;" parent="yDUD_mWYsvDWhnTY4AmZ-113" vertex="1">
          <mxGeometry width="30" height="30" as="geometry">
            <mxRectangle width="30" height="30" as="alternateBounds" />
          </mxGeometry>
        </mxCell>
        <mxCell id="yDUD_mWYsvDWhnTY4AmZ-115" value="IdPaciente" style="shape=partialRectangle;connectable=0;fillColor=none;top=0;left=0;bottom=0;right=0;align=left;spacingLeft=6;fontStyle=5;overflow=hidden;whiteSpace=wrap;html=1;fontFamily=Helvetica;fontSize=11;fontColor=default;" parent="yDUD_mWYsvDWhnTY4AmZ-113" vertex="1">
          <mxGeometry x="30" width="150" height="30" as="geometry">
            <mxRectangle width="150" height="30" as="alternateBounds" />
          </mxGeometry>
        </mxCell>
        <mxCell id="yDUD_mWYsvDWhnTY4AmZ-116" value="" style="shape=tableRow;horizontal=0;startSize=0;swimlaneHead=0;swimlaneBody=0;fillColor=none;collapsible=0;dropTarget=0;points=[[0,0.5],[1,0.5]];portConstraint=eastwest;top=0;left=0;right=0;bottom=0;fontFamily=Helvetica;fontSize=11;fontColor=default;" parent="yDUD_mWYsvDWhnTY4AmZ-112" vertex="1">
          <mxGeometry y="120" width="180" height="30" as="geometry" />
        </mxCell>
        <mxCell id="yDUD_mWYsvDWhnTY4AmZ-117" value="" style="shape=partialRectangle;connectable=0;fillColor=none;top=0;left=0;bottom=0;right=0;editable=1;overflow=hidden;whiteSpace=wrap;html=1;fontFamily=Helvetica;fontSize=11;fontColor=default;" parent="yDUD_mWYsvDWhnTY4AmZ-116" vertex="1">
          <mxGeometry width="30" height="30" as="geometry">
            <mxRectangle width="30" height="30" as="alternateBounds" />
          </mxGeometry>
        </mxCell>
        <mxCell id="yDUD_mWYsvDWhnTY4AmZ-118" value="Nome" style="shape=partialRectangle;connectable=0;fillColor=none;top=0;left=0;bottom=0;right=0;align=left;spacingLeft=6;overflow=hidden;whiteSpace=wrap;html=1;fontFamily=Helvetica;fontSize=11;fontColor=default;" parent="yDUD_mWYsvDWhnTY4AmZ-116" vertex="1">
          <mxGeometry x="30" width="150" height="30" as="geometry">
            <mxRectangle width="150" height="30" as="alternateBounds" />
          </mxGeometry>
        </mxCell>
        <mxCell id="yDUD_mWYsvDWhnTY4AmZ-205" style="shape=tableRow;horizontal=0;startSize=0;swimlaneHead=0;swimlaneBody=0;fillColor=none;collapsible=0;dropTarget=0;points=[[0,0.5],[1,0.5]];portConstraint=eastwest;top=0;left=0;right=0;bottom=0;fontFamily=Helvetica;fontSize=11;fontColor=default;" parent="yDUD_mWYsvDWhnTY4AmZ-112" vertex="1">
          <mxGeometry y="150" width="180" height="30" as="geometry" />
        </mxCell>
        <mxCell id="yDUD_mWYsvDWhnTY4AmZ-206" style="shape=partialRectangle;connectable=0;fillColor=none;top=0;left=0;bottom=0;right=0;editable=1;overflow=hidden;whiteSpace=wrap;html=1;fontFamily=Helvetica;fontSize=11;fontColor=default;" parent="yDUD_mWYsvDWhnTY4AmZ-205" vertex="1">
          <mxGeometry width="30" height="30" as="geometry">
            <mxRectangle width="30" height="30" as="alternateBounds" />
          </mxGeometry>
        </mxCell>
        <mxCell id="yDUD_mWYsvDWhnTY4AmZ-207" value="DataDeNascimento" style="shape=partialRectangle;connectable=0;fillColor=none;top=0;left=0;bottom=0;right=0;align=left;spacingLeft=6;overflow=hidden;whiteSpace=wrap;html=1;fontFamily=Helvetica;fontSize=11;fontColor=default;" parent="yDUD_mWYsvDWhnTY4AmZ-205" vertex="1">
          <mxGeometry x="30" width="150" height="30" as="geometry">
            <mxRectangle width="150" height="30" as="alternateBounds" />
          </mxGeometry>
        </mxCell>
        <mxCell id="yDUD_mWYsvDWhnTY4AmZ-208" style="shape=tableRow;horizontal=0;startSize=0;swimlaneHead=0;swimlaneBody=0;fillColor=none;collapsible=0;dropTarget=0;points=[[0,0.5],[1,0.5]];portConstraint=eastwest;top=0;left=0;right=0;bottom=0;fontFamily=Helvetica;fontSize=11;fontColor=default;" parent="yDUD_mWYsvDWhnTY4AmZ-112" vertex="1">
          <mxGeometry y="180" width="180" height="30" as="geometry" />
        </mxCell>
        <mxCell id="yDUD_mWYsvDWhnTY4AmZ-209" style="shape=partialRectangle;connectable=0;fillColor=none;top=0;left=0;bottom=0;right=0;editable=1;overflow=hidden;whiteSpace=wrap;html=1;fontFamily=Helvetica;fontSize=11;fontColor=default;" parent="yDUD_mWYsvDWhnTY4AmZ-208" vertex="1">
          <mxGeometry width="30" height="30" as="geometry">
            <mxRectangle width="30" height="30" as="alternateBounds" />
          </mxGeometry>
        </mxCell>
        <mxCell id="yDUD_mWYsvDWhnTY4AmZ-210" value="Sexo" style="shape=partialRectangle;connectable=0;fillColor=none;top=0;left=0;bottom=0;right=0;align=left;spacingLeft=6;overflow=hidden;whiteSpace=wrap;html=1;fontFamily=Helvetica;fontSize=11;fontColor=default;" parent="yDUD_mWYsvDWhnTY4AmZ-208" vertex="1">
          <mxGeometry x="30" width="150" height="30" as="geometry">
            <mxRectangle width="150" height="30" as="alternateBounds" />
          </mxGeometry>
        </mxCell>
        <mxCell id="yDUD_mWYsvDWhnTY4AmZ-138" value="MÃ©dico" style="shape=table;startSize=30;container=1;collapsible=1;childLayout=tableLayout;fixedRows=1;rowLines=0;fontStyle=1;align=center;resizeLast=1;html=1;fontFamily=Helvetica;fontSize=11;fontColor=default;" parent="1" vertex="1">
          <mxGeometry x="860" y="600" width="180" height="180" as="geometry" />
        </mxCell>
        <mxCell id="yDUD_mWYsvDWhnTY4AmZ-214" style="shape=tableRow;horizontal=0;startSize=0;swimlaneHead=0;swimlaneBody=0;fillColor=none;collapsible=0;dropTarget=0;points=[[0,0.5],[1,0.5]];portConstraint=eastwest;top=0;left=0;right=0;bottom=1;fontFamily=Helvetica;fontSize=11;fontColor=default;" parent="yDUD_mWYsvDWhnTY4AmZ-138" vertex="1">
          <mxGeometry y="30" width="180" height="30" as="geometry" />
        </mxCell>
        <mxCell id="yDUD_mWYsvDWhnTY4AmZ-215" value="FK1" style="shape=partialRectangle;connectable=0;fillColor=none;top=0;left=0;bottom=0;right=0;fontStyle=1;overflow=hidden;whiteSpace=wrap;html=1;fontFamily=Helvetica;fontSize=11;fontColor=default;" parent="yDUD_mWYsvDWhnTY4AmZ-214" vertex="1">
          <mxGeometry width="30" height="30" as="geometry">
            <mxRectangle width="30" height="30" as="alternateBounds" />
          </mxGeometry>
        </mxCell>
        <mxCell id="yDUD_mWYsvDWhnTY4AmZ-216" value="IdUsuario" style="shape=partialRectangle;connectable=0;fillColor=none;top=0;left=0;bottom=0;right=0;align=left;spacingLeft=6;fontStyle=5;overflow=hidden;whiteSpace=wrap;html=1;fontFamily=Helvetica;fontSize=11;fontColor=default;" parent="yDUD_mWYsvDWhnTY4AmZ-214" vertex="1">
          <mxGeometry x="30" width="150" height="30" as="geometry">
            <mxRectangle width="150" height="30" as="alternateBounds" />
          </mxGeometry>
        </mxCell>
        <mxCell id="T6XiwdTETG_zGZlDO8Nx-176" style="shape=tableRow;horizontal=0;startSize=0;swimlaneHead=0;swimlaneBody=0;fillColor=none;collapsible=0;dropTarget=0;points=[[0,0.5],[1,0.5]];portConstraint=eastwest;top=0;left=0;right=0;bottom=1;fontFamily=Helvetica;fontSize=11;fontColor=default;" parent="yDUD_mWYsvDWhnTY4AmZ-138" vertex="1">
          <mxGeometry y="60" width="180" height="30" as="geometry" />
        </mxCell>
        <mxCell id="T6XiwdTETG_zGZlDO8Nx-177" value="FK2" style="shape=partialRectangle;connectable=0;fillColor=none;top=0;left=0;bottom=0;right=0;fontStyle=1;overflow=hidden;whiteSpace=wrap;html=1;fontFamily=Helvetica;fontSize=11;fontColor=default;" parent="T6XiwdTETG_zGZlDO8Nx-176" vertex="1">
          <mxGeometry width="30" height="30" as="geometry">
            <mxRectangle width="30" height="30" as="alternateBounds" />
          </mxGeometry>
        </mxCell>
        <mxCell id="T6XiwdTETG_zGZlDO8Nx-178" value="IdEspecialidade" style="shape=partialRectangle;connectable=0;fillColor=none;top=0;left=0;bottom=0;right=0;align=left;spacingLeft=6;fontStyle=5;overflow=hidden;whiteSpace=wrap;html=1;fontFamily=Helvetica;fontSize=11;fontColor=default;" parent="T6XiwdTETG_zGZlDO8Nx-176" vertex="1">
          <mxGeometry x="30" width="150" height="30" as="geometry">
            <mxRectangle width="150" height="30" as="alternateBounds" />
          </mxGeometry>
        </mxCell>
        <mxCell id="yDUD_mWYsvDWhnTY4AmZ-139" value="" style="shape=tableRow;horizontal=0;startSize=0;swimlaneHead=0;swimlaneBody=0;fillColor=none;collapsible=0;dropTarget=0;points=[[0,0.5],[1,0.5]];portConstraint=eastwest;top=0;left=0;right=0;bottom=1;fontFamily=Helvetica;fontSize=11;fontColor=default;" parent="yDUD_mWYsvDWhnTY4AmZ-138" vertex="1">
          <mxGeometry y="90" width="180" height="30" as="geometry" />
        </mxCell>
        <mxCell id="yDUD_mWYsvDWhnTY4AmZ-140" value="PK" style="shape=partialRectangle;connectable=0;fillColor=none;top=0;left=0;bottom=0;right=0;fontStyle=1;overflow=hidden;whiteSpace=wrap;html=1;fontFamily=Helvetica;fontSize=11;fontColor=default;" parent="yDUD_mWYsvDWhnTY4AmZ-139" vertex="1">
          <mxGeometry width="30" height="30" as="geometry">
            <mxRectangle width="30" height="30" as="alternateBounds" />
          </mxGeometry>
        </mxCell>
        <mxCell id="yDUD_mWYsvDWhnTY4AmZ-141" value="IdMedico" style="shape=partialRectangle;connectable=0;fillColor=none;top=0;left=0;bottom=0;right=0;align=left;spacingLeft=6;fontStyle=5;overflow=hidden;whiteSpace=wrap;html=1;fontFamily=Helvetica;fontSize=11;fontColor=default;" parent="yDUD_mWYsvDWhnTY4AmZ-139" vertex="1">
          <mxGeometry x="30" width="150" height="30" as="geometry">
            <mxRectangle width="150" height="30" as="alternateBounds" />
          </mxGeometry>
        </mxCell>
        <mxCell id="yDUD_mWYsvDWhnTY4AmZ-142" value="" style="shape=tableRow;horizontal=0;startSize=0;swimlaneHead=0;swimlaneBody=0;fillColor=none;collapsible=0;dropTarget=0;points=[[0,0.5],[1,0.5]];portConstraint=eastwest;top=0;left=0;right=0;bottom=0;fontFamily=Helvetica;fontSize=11;fontColor=default;" parent="yDUD_mWYsvDWhnTY4AmZ-138" vertex="1">
          <mxGeometry y="120" width="180" height="30" as="geometry" />
        </mxCell>
        <mxCell id="yDUD_mWYsvDWhnTY4AmZ-143" value="" style="shape=partialRectangle;connectable=0;fillColor=none;top=0;left=0;bottom=0;right=0;editable=1;overflow=hidden;whiteSpace=wrap;html=1;fontFamily=Helvetica;fontSize=11;fontColor=default;" parent="yDUD_mWYsvDWhnTY4AmZ-142" vertex="1">
          <mxGeometry width="30" height="30" as="geometry">
            <mxRectangle width="30" height="30" as="alternateBounds" />
          </mxGeometry>
        </mxCell>
        <mxCell id="yDUD_mWYsvDWhnTY4AmZ-144" value="Nome" style="shape=partialRectangle;connectable=0;fillColor=none;top=0;left=0;bottom=0;right=0;align=left;spacingLeft=6;overflow=hidden;whiteSpace=wrap;html=1;fontFamily=Helvetica;fontSize=11;fontColor=default;" parent="yDUD_mWYsvDWhnTY4AmZ-142" vertex="1">
          <mxGeometry x="30" width="150" height="30" as="geometry">
            <mxRectangle width="150" height="30" as="alternateBounds" />
          </mxGeometry>
        </mxCell>
        <mxCell id="yDUD_mWYsvDWhnTY4AmZ-217" style="shape=tableRow;horizontal=0;startSize=0;swimlaneHead=0;swimlaneBody=0;fillColor=none;collapsible=0;dropTarget=0;points=[[0,0.5],[1,0.5]];portConstraint=eastwest;top=0;left=0;right=0;bottom=0;fontFamily=Helvetica;fontSize=11;fontColor=default;" parent="yDUD_mWYsvDWhnTY4AmZ-138" vertex="1">
          <mxGeometry y="150" width="180" height="30" as="geometry" />
        </mxCell>
        <mxCell id="yDUD_mWYsvDWhnTY4AmZ-218" style="shape=partialRectangle;connectable=0;fillColor=none;top=0;left=0;bottom=0;right=0;editable=1;overflow=hidden;whiteSpace=wrap;html=1;fontFamily=Helvetica;fontSize=11;fontColor=default;" parent="yDUD_mWYsvDWhnTY4AmZ-217" vertex="1">
          <mxGeometry width="30" height="30" as="geometry">
            <mxRectangle width="30" height="30" as="alternateBounds" />
          </mxGeometry>
        </mxCell>
        <mxCell id="yDUD_mWYsvDWhnTY4AmZ-219" value="CRM" style="shape=partialRectangle;connectable=0;fillColor=none;top=0;left=0;bottom=0;right=0;align=left;spacingLeft=6;overflow=hidden;whiteSpace=wrap;html=1;fontFamily=Helvetica;fontSize=11;fontColor=default;" parent="yDUD_mWYsvDWhnTY4AmZ-217" vertex="1">
          <mxGeometry x="30" width="150" height="30" as="geometry">
            <mxRectangle width="150" height="30" as="alternateBounds" />
          </mxGeometry>
        </mxCell>
        <mxCell id="yDUD_mWYsvDWhnTY4AmZ-125" value="Consulta" style="shape=table;startSize=30;container=1;collapsible=1;childLayout=tableLayout;fixedRows=1;rowLines=0;fontStyle=1;align=center;resizeLast=1;html=1;fontFamily=Helvetica;fontSize=11;fontColor=default;" parent="1" vertex="1">
          <mxGeometry x="1520" y="325" width="180" height="270" as="geometry" />
        </mxCell>
        <mxCell id="grmhktTUeF-EYpmDkwQf-14" style="shape=tableRow;horizontal=0;startSize=0;swimlaneHead=0;swimlaneBody=0;fillColor=none;collapsible=0;dropTarget=0;points=[[0,0.5],[1,0.5]];portConstraint=eastwest;top=0;left=0;right=0;bottom=1;fontFamily=Helvetica;fontSize=11;fontColor=default;" parent="yDUD_mWYsvDWhnTY4AmZ-125" vertex="1">
          <mxGeometry y="30" width="180" height="30" as="geometry" />
        </mxCell>
        <mxCell id="grmhktTUeF-EYpmDkwQf-15" value="FK7" style="shape=partialRectangle;connectable=0;fillColor=none;top=0;left=0;bottom=0;right=0;fontStyle=1;overflow=hidden;whiteSpace=wrap;html=1;fontFamily=Helvetica;fontSize=11;fontColor=default;" parent="grmhktTUeF-EYpmDkwQf-14" vertex="1">
          <mxGeometry width="30" height="30" as="geometry">
            <mxRectangle width="30" height="30" as="alternateBounds" />
          </mxGeometry>
        </mxCell>
        <mxCell id="grmhktTUeF-EYpmDkwQf-16" value="IdClinica" style="shape=partialRectangle;connectable=0;fillColor=none;top=0;left=0;bottom=0;right=0;align=left;spacingLeft=6;fontStyle=5;overflow=hidden;whiteSpace=wrap;html=1;fontFamily=Helvetica;fontSize=11;fontColor=default;" parent="grmhktTUeF-EYpmDkwQf-14" vertex="1">
          <mxGeometry x="30" width="150" height="30" as="geometry">
            <mxRectangle width="150" height="30" as="alternateBounds" />
          </mxGeometry>
        </mxCell>
        <mxCell id="grmhktTUeF-EYpmDkwQf-7" style="shape=tableRow;horizontal=0;startSize=0;swimlaneHead=0;swimlaneBody=0;fillColor=none;collapsible=0;dropTarget=0;points=[[0,0.5],[1,0.5]];portConstraint=eastwest;top=0;left=0;right=0;bottom=1;fontFamily=Helvetica;fontSize=11;fontColor=default;" parent="yDUD_mWYsvDWhnTY4AmZ-125" vertex="1">
          <mxGeometry y="60" width="180" height="30" as="geometry" />
        </mxCell>
        <mxCell id="grmhktTUeF-EYpmDkwQf-8" value="FK6" style="shape=partialRectangle;connectable=0;fillColor=none;top=0;left=0;bottom=0;right=0;fontStyle=1;overflow=hidden;whiteSpace=wrap;html=1;fontFamily=Helvetica;fontSize=11;fontColor=default;" parent="grmhktTUeF-EYpmDkwQf-7" vertex="1">
          <mxGeometry width="30" height="30" as="geometry">
            <mxRectangle width="30" height="30" as="alternateBounds" />
          </mxGeometry>
        </mxCell>
        <mxCell id="grmhktTUeF-EYpmDkwQf-9" value="IdAdmin" style="shape=partialRectangle;connectable=0;fillColor=none;top=0;left=0;bottom=0;right=0;align=left;spacingLeft=6;fontStyle=5;overflow=hidden;whiteSpace=wrap;html=1;fontFamily=Helvetica;fontSize=11;fontColor=default;" parent="grmhktTUeF-EYpmDkwQf-7" vertex="1">
          <mxGeometry x="30" width="150" height="30" as="geometry">
            <mxRectangle width="150" height="30" as="alternateBounds" />
          </mxGeometry>
        </mxCell>
        <mxCell id="yDUD_mWYsvDWhnTY4AmZ-126" value="" style="shape=tableRow;horizontal=0;startSize=0;swimlaneHead=0;swimlaneBody=0;fillColor=none;collapsible=0;dropTarget=0;points=[[0,0.5],[1,0.5]];portConstraint=eastwest;top=0;left=0;right=0;bottom=1;fontFamily=Helvetica;fontSize=11;fontColor=default;" parent="yDUD_mWYsvDWhnTY4AmZ-125" vertex="1">
          <mxGeometry y="90" width="180" height="30" as="geometry" />
        </mxCell>
        <mxCell id="yDUD_mWYsvDWhnTY4AmZ-127" value="PK" style="shape=partialRectangle;connectable=0;fillColor=none;top=0;left=0;bottom=0;right=0;fontStyle=1;overflow=hidden;whiteSpace=wrap;html=1;fontFamily=Helvetica;fontSize=11;fontColor=default;" parent="yDUD_mWYsvDWhnTY4AmZ-126" vertex="1">
          <mxGeometry width="30" height="30" as="geometry">
            <mxRectangle width="30" height="30" as="alternateBounds" />
          </mxGeometry>
        </mxCell>
        <mxCell id="yDUD_mWYsvDWhnTY4AmZ-128" value="IdConsulta" style="shape=partialRectangle;connectable=0;fillColor=none;top=0;left=0;bottom=0;right=0;align=left;spacingLeft=6;fontStyle=5;overflow=hidden;whiteSpace=wrap;html=1;fontFamily=Helvetica;fontSize=11;fontColor=default;" parent="yDUD_mWYsvDWhnTY4AmZ-126" vertex="1">
          <mxGeometry x="30" width="150" height="30" as="geometry">
            <mxRectangle width="150" height="30" as="alternateBounds" />
          </mxGeometry>
        </mxCell>
        <mxCell id="yDUD_mWYsvDWhnTY4AmZ-226" style="shape=tableRow;horizontal=0;startSize=0;swimlaneHead=0;swimlaneBody=0;fillColor=none;collapsible=0;dropTarget=0;points=[[0,0.5],[1,0.5]];portConstraint=eastwest;top=0;left=0;right=0;bottom=1;fontFamily=Helvetica;fontSize=11;fontColor=default;" parent="yDUD_mWYsvDWhnTY4AmZ-125" vertex="1">
          <mxGeometry y="120" width="180" height="30" as="geometry" />
        </mxCell>
        <mxCell id="yDUD_mWYsvDWhnTY4AmZ-227" value="FK4" style="shape=partialRectangle;connectable=0;fillColor=none;top=0;left=0;bottom=0;right=0;fontStyle=1;overflow=hidden;whiteSpace=wrap;html=1;fontFamily=Helvetica;fontSize=11;fontColor=default;" parent="yDUD_mWYsvDWhnTY4AmZ-226" vertex="1">
          <mxGeometry width="30" height="30" as="geometry">
            <mxRectangle width="30" height="30" as="alternateBounds" />
          </mxGeometry>
        </mxCell>
        <mxCell id="yDUD_mWYsvDWhnTY4AmZ-228" value="IdPaciente" style="shape=partialRectangle;connectable=0;fillColor=none;top=0;left=0;bottom=0;right=0;align=left;spacingLeft=6;fontStyle=5;overflow=hidden;whiteSpace=wrap;html=1;fontFamily=Helvetica;fontSize=11;fontColor=default;" parent="yDUD_mWYsvDWhnTY4AmZ-226" vertex="1">
          <mxGeometry x="30" width="150" height="30" as="geometry">
            <mxRectangle width="150" height="30" as="alternateBounds" />
          </mxGeometry>
        </mxCell>
        <mxCell id="yDUD_mWYsvDWhnTY4AmZ-223" style="shape=tableRow;horizontal=0;startSize=0;swimlaneHead=0;swimlaneBody=0;fillColor=none;collapsible=0;dropTarget=0;points=[[0,0.5],[1,0.5]];portConstraint=eastwest;top=0;left=0;right=0;bottom=1;fontFamily=Helvetica;fontSize=11;fontColor=default;" parent="yDUD_mWYsvDWhnTY4AmZ-125" vertex="1">
          <mxGeometry y="150" width="180" height="30" as="geometry" />
        </mxCell>
        <mxCell id="yDUD_mWYsvDWhnTY4AmZ-224" value="FK5" style="shape=partialRectangle;connectable=0;fillColor=none;top=0;left=0;bottom=0;right=0;fontStyle=1;overflow=hidden;whiteSpace=wrap;html=1;fontFamily=Helvetica;fontSize=11;fontColor=default;" parent="yDUD_mWYsvDWhnTY4AmZ-223" vertex="1">
          <mxGeometry width="30" height="30" as="geometry">
            <mxRectangle width="30" height="30" as="alternateBounds" />
          </mxGeometry>
        </mxCell>
        <mxCell id="yDUD_mWYsvDWhnTY4AmZ-225" value="IdMedico" style="shape=partialRectangle;connectable=0;fillColor=none;top=0;left=0;bottom=0;right=0;align=left;spacingLeft=6;fontStyle=5;overflow=hidden;whiteSpace=wrap;html=1;fontFamily=Helvetica;fontSize=11;fontColor=default;" parent="yDUD_mWYsvDWhnTY4AmZ-223" vertex="1">
          <mxGeometry x="30" width="150" height="30" as="geometry">
            <mxRectangle width="150" height="30" as="alternateBounds" />
          </mxGeometry>
        </mxCell>
        <mxCell id="yDUD_mWYsvDWhnTY4AmZ-135" value="" style="shape=tableRow;horizontal=0;startSize=0;swimlaneHead=0;swimlaneBody=0;fillColor=none;collapsible=0;dropTarget=0;points=[[0,0.5],[1,0.5]];portConstraint=eastwest;top=0;left=0;right=0;bottom=0;fontFamily=Helvetica;fontSize=11;fontColor=default;" parent="yDUD_mWYsvDWhnTY4AmZ-125" vertex="1">
          <mxGeometry y="180" width="180" height="30" as="geometry" />
        </mxCell>
        <mxCell id="yDUD_mWYsvDWhnTY4AmZ-136" value="" style="shape=partialRectangle;connectable=0;fillColor=none;top=0;left=0;bottom=0;right=0;editable=1;overflow=hidden;whiteSpace=wrap;html=1;fontFamily=Helvetica;fontSize=11;fontColor=default;" parent="yDUD_mWYsvDWhnTY4AmZ-135" vertex="1">
          <mxGeometry width="30" height="30" as="geometry">
            <mxRectangle width="30" height="30" as="alternateBounds" />
          </mxGeometry>
        </mxCell>
        <mxCell id="yDUD_mWYsvDWhnTY4AmZ-137" value="Descricao" style="shape=partialRectangle;connectable=0;fillColor=none;top=0;left=0;bottom=0;right=0;align=left;spacingLeft=6;overflow=hidden;whiteSpace=wrap;html=1;fontFamily=Helvetica;fontSize=11;fontColor=default;" parent="yDUD_mWYsvDWhnTY4AmZ-135" vertex="1">
          <mxGeometry x="30" width="150" height="30" as="geometry">
            <mxRectangle width="150" height="30" as="alternateBounds" />
          </mxGeometry>
        </mxCell>
        <mxCell id="grmhktTUeF-EYpmDkwQf-4" style="shape=tableRow;horizontal=0;startSize=0;swimlaneHead=0;swimlaneBody=0;fillColor=none;collapsible=0;dropTarget=0;points=[[0,0.5],[1,0.5]];portConstraint=eastwest;top=0;left=0;right=0;bottom=0;fontFamily=Helvetica;fontSize=11;fontColor=default;" parent="yDUD_mWYsvDWhnTY4AmZ-125" vertex="1">
          <mxGeometry y="210" width="180" height="30" as="geometry" />
        </mxCell>
        <mxCell id="grmhktTUeF-EYpmDkwQf-5" style="shape=partialRectangle;connectable=0;fillColor=none;top=0;left=0;bottom=0;right=0;editable=1;overflow=hidden;whiteSpace=wrap;html=1;fontFamily=Helvetica;fontSize=11;fontColor=default;" parent="grmhktTUeF-EYpmDkwQf-4" vertex="1">
          <mxGeometry width="30" height="30" as="geometry">
            <mxRectangle width="30" height="30" as="alternateBounds" />
          </mxGeometry>
        </mxCell>
        <mxCell id="grmhktTUeF-EYpmDkwQf-6" value="HorarioDaConsulta" style="shape=partialRectangle;connectable=0;fillColor=none;top=0;left=0;bottom=0;right=0;align=left;spacingLeft=6;overflow=hidden;whiteSpace=wrap;html=1;fontFamily=Helvetica;fontSize=11;fontColor=default;" parent="grmhktTUeF-EYpmDkwQf-4" vertex="1">
          <mxGeometry x="30" width="150" height="30" as="geometry">
            <mxRectangle width="150" height="30" as="alternateBounds" />
          </mxGeometry>
        </mxCell>
        <mxCell id="scHrvU14SLBSJ86hF89e-1" style="shape=tableRow;horizontal=0;startSize=0;swimlaneHead=0;swimlaneBody=0;fillColor=none;collapsible=0;dropTarget=0;points=[[0,0.5],[1,0.5]];portConstraint=eastwest;top=0;left=0;right=0;bottom=0;fontFamily=Helvetica;fontSize=11;fontColor=default;" parent="yDUD_mWYsvDWhnTY4AmZ-125" vertex="1">
          <mxGeometry y="240" width="180" height="30" as="geometry" />
        </mxCell>
        <mxCell id="scHrvU14SLBSJ86hF89e-2" style="shape=partialRectangle;connectable=0;fillColor=none;top=0;left=0;bottom=0;right=0;editable=1;overflow=hidden;whiteSpace=wrap;html=1;fontFamily=Helvetica;fontSize=11;fontColor=default;" parent="scHrvU14SLBSJ86hF89e-1" vertex="1">
          <mxGeometry width="30" height="30" as="geometry">
            <mxRectangle width="30" height="30" as="alternateBounds" />
          </mxGeometry>
        </mxCell>
        <mxCell id="scHrvU14SLBSJ86hF89e-3" value="Confirmacao" style="shape=partialRectangle;connectable=0;fillColor=none;top=0;left=0;bottom=0;right=0;align=left;spacingLeft=6;overflow=hidden;whiteSpace=wrap;html=1;fontFamily=Helvetica;fontSize=11;fontColor=default;" parent="scHrvU14SLBSJ86hF89e-1" vertex="1">
          <mxGeometry x="30" width="150" height="30" as="geometry">
            <mxRectangle width="150" height="30" as="alternateBounds" />
          </mxGeometry>
        </mxCell>
        <mxCell id="yDUD_mWYsvDWhnTY4AmZ-164" value="Prontuario" style="shape=table;startSize=30;container=1;collapsible=1;childLayout=tableLayout;fixedRows=1;rowLines=0;fontStyle=1;align=center;resizeLast=1;html=1;fontFamily=Helvetica;fontSize=11;fontColor=default;" parent="1" vertex="1">
          <mxGeometry x="1260" y="635" width="180" height="120" as="geometry" />
        </mxCell>
        <mxCell id="yDUD_mWYsvDWhnTY4AmZ-165" value="" style="shape=tableRow;horizontal=0;startSize=0;swimlaneHead=0;swimlaneBody=0;fillColor=none;collapsible=0;dropTarget=0;points=[[0,0.5],[1,0.5]];portConstraint=eastwest;top=0;left=0;right=0;bottom=1;fontFamily=Helvetica;fontSize=11;fontColor=default;" parent="yDUD_mWYsvDWhnTY4AmZ-164" vertex="1">
          <mxGeometry y="30" width="180" height="30" as="geometry" />
        </mxCell>
        <mxCell id="yDUD_mWYsvDWhnTY4AmZ-166" value="PK" style="shape=partialRectangle;connectable=0;fillColor=none;top=0;left=0;bottom=0;right=0;fontStyle=1;overflow=hidden;whiteSpace=wrap;html=1;fontFamily=Helvetica;fontSize=11;fontColor=default;" parent="yDUD_mWYsvDWhnTY4AmZ-165" vertex="1">
          <mxGeometry width="30" height="30" as="geometry">
            <mxRectangle width="30" height="30" as="alternateBounds" />
          </mxGeometry>
        </mxCell>
        <mxCell id="yDUD_mWYsvDWhnTY4AmZ-167" value="IdProntuario" style="shape=partialRectangle;connectable=0;fillColor=none;top=0;left=0;bottom=0;right=0;align=left;spacingLeft=6;fontStyle=5;overflow=hidden;whiteSpace=wrap;html=1;fontFamily=Helvetica;fontSize=11;fontColor=default;" parent="yDUD_mWYsvDWhnTY4AmZ-165" vertex="1">
          <mxGeometry x="30" width="150" height="30" as="geometry">
            <mxRectangle width="150" height="30" as="alternateBounds" />
          </mxGeometry>
        </mxCell>
        <mxCell id="ETGEkhIVYqFLGE7STsI0-1" style="shape=tableRow;horizontal=0;startSize=0;swimlaneHead=0;swimlaneBody=0;fillColor=none;collapsible=0;dropTarget=0;points=[[0,0.5],[1,0.5]];portConstraint=eastwest;top=0;left=0;right=0;bottom=1;fontFamily=Helvetica;fontSize=11;fontColor=default;" vertex="1" parent="yDUD_mWYsvDWhnTY4AmZ-164">
          <mxGeometry y="60" width="180" height="30" as="geometry" />
        </mxCell>
        <mxCell id="ETGEkhIVYqFLGE7STsI0-2" value="FK1" style="shape=partialRectangle;connectable=0;fillColor=none;top=0;left=0;bottom=0;right=0;fontStyle=1;overflow=hidden;whiteSpace=wrap;html=1;fontFamily=Helvetica;fontSize=11;fontColor=default;" vertex="1" parent="ETGEkhIVYqFLGE7STsI0-1">
          <mxGeometry width="30" height="30" as="geometry">
            <mxRectangle width="30" height="30" as="alternateBounds" />
          </mxGeometry>
        </mxCell>
        <mxCell id="ETGEkhIVYqFLGE7STsI0-3" value="IdUsuario" style="shape=partialRectangle;connectable=0;fillColor=none;top=0;left=0;bottom=0;right=0;align=left;spacingLeft=6;fontStyle=5;overflow=hidden;whiteSpace=wrap;html=1;fontFamily=Helvetica;fontSize=11;fontColor=default;" vertex="1" parent="ETGEkhIVYqFLGE7STsI0-1">
          <mxGeometry x="30" width="150" height="30" as="geometry">
            <mxRectangle width="150" height="30" as="alternateBounds" />
          </mxGeometry>
        </mxCell>
        <mxCell id="yDUD_mWYsvDWhnTY4AmZ-168" value="" style="shape=tableRow;horizontal=0;startSize=0;swimlaneHead=0;swimlaneBody=0;fillColor=none;collapsible=0;dropTarget=0;points=[[0,0.5],[1,0.5]];portConstraint=eastwest;top=0;left=0;right=0;bottom=0;fontFamily=Helvetica;fontSize=11;fontColor=default;" parent="yDUD_mWYsvDWhnTY4AmZ-164" vertex="1">
          <mxGeometry y="90" width="180" height="30" as="geometry" />
        </mxCell>
        <mxCell id="yDUD_mWYsvDWhnTY4AmZ-169" value="" style="shape=partialRectangle;connectable=0;fillColor=none;top=0;left=0;bottom=0;right=0;editable=1;overflow=hidden;whiteSpace=wrap;html=1;fontFamily=Helvetica;fontSize=11;fontColor=default;" parent="yDUD_mWYsvDWhnTY4AmZ-168" vertex="1">
          <mxGeometry width="30" height="30" as="geometry">
            <mxRectangle width="30" height="30" as="alternateBounds" />
          </mxGeometry>
        </mxCell>
        <mxCell id="yDUD_mWYsvDWhnTY4AmZ-170" value="Historico" style="shape=partialRectangle;connectable=0;fillColor=none;top=0;left=0;bottom=0;right=0;align=left;spacingLeft=6;overflow=hidden;whiteSpace=wrap;html=1;fontFamily=Helvetica;fontSize=11;fontColor=default;" parent="yDUD_mWYsvDWhnTY4AmZ-168" vertex="1">
          <mxGeometry x="30" width="150" height="30" as="geometry">
            <mxRectangle width="150" height="30" as="alternateBounds" />
          </mxGeometry>
        </mxCell>
        <mxCell id="yDUD_mWYsvDWhnTY4AmZ-257" value="" style="edgeStyle=entityRelationEdgeStyle;fontSize=12;html=1;endArrow=ERoneToMany;rounded=0;labelBackgroundColor=default;strokeColor=default;fontFamily=Helvetica;fontColor=default;shape=connector;" parent="1" source="yDUD_mWYsvDWhnTY4AmZ-113" target="yDUD_mWYsvDWhnTY4AmZ-226" edge="1">
          <mxGeometry width="100" height="100" relative="1" as="geometry">
            <mxPoint x="1070" y="415" as="sourcePoint" />
            <mxPoint x="1220" y="270" as="targetPoint" />
          </mxGeometry>
        </mxCell>
        <mxCell id="yDUD_mWYsvDWhnTY4AmZ-258" value="" style="edgeStyle=entityRelationEdgeStyle;fontSize=12;html=1;endArrow=ERoneToMany;rounded=0;labelBackgroundColor=default;strokeColor=default;fontFamily=Helvetica;fontColor=default;shape=connector;" parent="1" source="yDUD_mWYsvDWhnTY4AmZ-139" target="yDUD_mWYsvDWhnTY4AmZ-223" edge="1">
          <mxGeometry width="100" height="100" relative="1" as="geometry">
            <mxPoint x="1070" y="630" as="sourcePoint" />
            <mxPoint x="1220" y="485" as="targetPoint" />
          </mxGeometry>
        </mxCell>
        <mxCell id="yDUD_mWYsvDWhnTY4AmZ-259" value="" style="edgeStyle=entityRelationEdgeStyle;fontSize=12;html=1;endArrow=ERoneToMany;rounded=0;labelBackgroundColor=default;strokeColor=default;fontFamily=Helvetica;fontColor=default;shape=connector;entryX=0;entryY=0.5;entryDx=0;entryDy=0;" parent="1" source="yDUD_mWYsvDWhnTY4AmZ-100" target="grmhktTUeF-EYpmDkwQf-7" edge="1">
          <mxGeometry width="100" height="100" relative="1" as="geometry">
            <mxPoint x="1091" y="315" as="sourcePoint" />
            <mxPoint x="1241" y="170" as="targetPoint" />
            <Array as="points">
              <mxPoint x="990" y="200" />
            </Array>
          </mxGeometry>
        </mxCell>
        <mxCell id="T6XiwdTETG_zGZlDO8Nx-72" value="Usuario" style="shape=table;startSize=30;container=1;collapsible=1;childLayout=tableLayout;fixedRows=1;rowLines=0;fontStyle=1;align=center;resizeLast=1;html=1;fontFamily=Helvetica;fontSize=11;fontColor=default;" parent="1" vertex="1">
          <mxGeometry x="570" y="330" width="180" height="180" as="geometry" />
        </mxCell>
        <mxCell id="VI1E0Y6XKXNliYmZKWCX-1" style="shape=tableRow;horizontal=0;startSize=0;swimlaneHead=0;swimlaneBody=0;fillColor=none;collapsible=0;dropTarget=0;points=[[0,0.5],[1,0.5]];portConstraint=eastwest;top=0;left=0;right=0;bottom=1;fontFamily=Helvetica;fontSize=11;fontColor=default;" parent="T6XiwdTETG_zGZlDO8Nx-72" vertex="1">
          <mxGeometry y="30" width="180" height="30" as="geometry" />
        </mxCell>
        <mxCell id="VI1E0Y6XKXNliYmZKWCX-2" value="FK" style="shape=partialRectangle;connectable=0;fillColor=none;top=0;left=0;bottom=0;right=0;fontStyle=1;overflow=hidden;whiteSpace=wrap;html=1;fontFamily=Helvetica;fontSize=11;fontColor=default;" parent="VI1E0Y6XKXNliYmZKWCX-1" vertex="1">
          <mxGeometry width="30" height="30" as="geometry">
            <mxRectangle width="30" height="30" as="alternateBounds" />
          </mxGeometry>
        </mxCell>
        <mxCell id="VI1E0Y6XKXNliYmZKWCX-3" value="IdPerfil" style="shape=partialRectangle;connectable=0;fillColor=none;top=0;left=0;bottom=0;right=0;align=left;spacingLeft=6;fontStyle=5;overflow=hidden;whiteSpace=wrap;html=1;fontFamily=Helvetica;fontSize=11;fontColor=default;" parent="VI1E0Y6XKXNliYmZKWCX-1" vertex="1">
          <mxGeometry x="30" width="150" height="30" as="geometry">
            <mxRectangle width="150" height="30" as="alternateBounds" />
          </mxGeometry>
        </mxCell>
        <mxCell id="T6XiwdTETG_zGZlDO8Nx-76" value="" style="shape=tableRow;horizontal=0;startSize=0;swimlaneHead=0;swimlaneBody=0;fillColor=none;collapsible=0;dropTarget=0;points=[[0,0.5],[1,0.5]];portConstraint=eastwest;top=0;left=0;right=0;bottom=1;fontFamily=Helvetica;fontSize=11;fontColor=default;" parent="T6XiwdTETG_zGZlDO8Nx-72" vertex="1">
          <mxGeometry y="60" width="180" height="30" as="geometry" />
        </mxCell>
        <mxCell id="T6XiwdTETG_zGZlDO8Nx-77" value="PK" style="shape=partialRectangle;connectable=0;fillColor=none;top=0;left=0;bottom=0;right=0;fontStyle=1;overflow=hidden;whiteSpace=wrap;html=1;fontFamily=Helvetica;fontSize=11;fontColor=default;" parent="T6XiwdTETG_zGZlDO8Nx-76" vertex="1">
          <mxGeometry width="30" height="30" as="geometry">
            <mxRectangle width="30" height="30" as="alternateBounds" />
          </mxGeometry>
        </mxCell>
        <mxCell id="T6XiwdTETG_zGZlDO8Nx-78" value="IdUsuario" style="shape=partialRectangle;connectable=0;fillColor=none;top=0;left=0;bottom=0;right=0;align=left;spacingLeft=6;fontStyle=5;overflow=hidden;whiteSpace=wrap;html=1;fontFamily=Helvetica;fontSize=11;fontColor=default;" parent="T6XiwdTETG_zGZlDO8Nx-76" vertex="1">
          <mxGeometry x="30" width="150" height="30" as="geometry">
            <mxRectangle width="150" height="30" as="alternateBounds" />
          </mxGeometry>
        </mxCell>
        <mxCell id="T6XiwdTETG_zGZlDO8Nx-79" value="" style="shape=tableRow;horizontal=0;startSize=0;swimlaneHead=0;swimlaneBody=0;fillColor=none;collapsible=0;dropTarget=0;points=[[0,0.5],[1,0.5]];portConstraint=eastwest;top=0;left=0;right=0;bottom=0;fontFamily=Helvetica;fontSize=11;fontColor=default;" parent="T6XiwdTETG_zGZlDO8Nx-72" vertex="1">
          <mxGeometry y="90" width="180" height="30" as="geometry" />
        </mxCell>
        <mxCell id="T6XiwdTETG_zGZlDO8Nx-80" value="" style="shape=partialRectangle;connectable=0;fillColor=none;top=0;left=0;bottom=0;right=0;editable=1;overflow=hidden;whiteSpace=wrap;html=1;fontFamily=Helvetica;fontSize=11;fontColor=default;" parent="T6XiwdTETG_zGZlDO8Nx-79" vertex="1">
          <mxGeometry width="30" height="30" as="geometry">
            <mxRectangle width="30" height="30" as="alternateBounds" />
          </mxGeometry>
        </mxCell>
        <mxCell id="T6XiwdTETG_zGZlDO8Nx-81" value="Email" style="shape=partialRectangle;connectable=0;fillColor=none;top=0;left=0;bottom=0;right=0;align=left;spacingLeft=6;overflow=hidden;whiteSpace=wrap;html=1;fontFamily=Helvetica;fontSize=11;fontColor=default;" parent="T6XiwdTETG_zGZlDO8Nx-79" vertex="1">
          <mxGeometry x="30" width="150" height="30" as="geometry">
            <mxRectangle width="150" height="30" as="alternateBounds" />
          </mxGeometry>
        </mxCell>
        <mxCell id="T6XiwdTETG_zGZlDO8Nx-82" style="shape=tableRow;horizontal=0;startSize=0;swimlaneHead=0;swimlaneBody=0;fillColor=none;collapsible=0;dropTarget=0;points=[[0,0.5],[1,0.5]];portConstraint=eastwest;top=0;left=0;right=0;bottom=0;fontFamily=Helvetica;fontSize=11;fontColor=default;" parent="T6XiwdTETG_zGZlDO8Nx-72" vertex="1">
          <mxGeometry y="120" width="180" height="30" as="geometry" />
        </mxCell>
        <mxCell id="T6XiwdTETG_zGZlDO8Nx-83" style="shape=partialRectangle;connectable=0;fillColor=none;top=0;left=0;bottom=0;right=0;editable=1;overflow=hidden;whiteSpace=wrap;html=1;fontFamily=Helvetica;fontSize=11;fontColor=default;" parent="T6XiwdTETG_zGZlDO8Nx-82" vertex="1">
          <mxGeometry width="30" height="30" as="geometry">
            <mxRectangle width="30" height="30" as="alternateBounds" />
          </mxGeometry>
        </mxCell>
        <mxCell id="T6XiwdTETG_zGZlDO8Nx-84" value="Senha" style="shape=partialRectangle;connectable=0;fillColor=none;top=0;left=0;bottom=0;right=0;align=left;spacingLeft=6;overflow=hidden;whiteSpace=wrap;html=1;fontFamily=Helvetica;fontSize=11;fontColor=default;" parent="T6XiwdTETG_zGZlDO8Nx-82" vertex="1">
          <mxGeometry x="30" width="150" height="30" as="geometry">
            <mxRectangle width="150" height="30" as="alternateBounds" />
          </mxGeometry>
        </mxCell>
        <mxCell id="WSWEjnT64F5XkR4leYoK-1" style="shape=tableRow;horizontal=0;startSize=0;swimlaneHead=0;swimlaneBody=0;fillColor=none;collapsible=0;dropTarget=0;points=[[0,0.5],[1,0.5]];portConstraint=eastwest;top=0;left=0;right=0;bottom=0;fontFamily=Helvetica;fontSize=11;fontColor=default;" parent="T6XiwdTETG_zGZlDO8Nx-72" vertex="1">
          <mxGeometry y="150" width="180" height="30" as="geometry" />
        </mxCell>
        <mxCell id="WSWEjnT64F5XkR4leYoK-2" style="shape=partialRectangle;connectable=0;fillColor=none;top=0;left=0;bottom=0;right=0;editable=1;overflow=hidden;whiteSpace=wrap;html=1;fontFamily=Helvetica;fontSize=11;fontColor=default;" parent="WSWEjnT64F5XkR4leYoK-1" vertex="1">
          <mxGeometry width="30" height="30" as="geometry">
            <mxRectangle width="30" height="30" as="alternateBounds" />
          </mxGeometry>
        </mxCell>
        <mxCell id="WSWEjnT64F5XkR4leYoK-3" value="CPF" style="shape=partialRectangle;connectable=0;fillColor=none;top=0;left=0;bottom=0;right=0;align=left;spacingLeft=6;overflow=hidden;whiteSpace=wrap;html=1;fontFamily=Helvetica;fontSize=11;fontColor=default;" parent="WSWEjnT64F5XkR4leYoK-1" vertex="1">
          <mxGeometry x="30" width="150" height="30" as="geometry">
            <mxRectangle width="150" height="30" as="alternateBounds" />
          </mxGeometry>
        </mxCell>
        <mxCell id="T6XiwdTETG_zGZlDO8Nx-90" style="edgeStyle=orthogonalEdgeStyle;rounded=0;orthogonalLoop=1;jettySize=auto;html=1;exitX=0.5;exitY=1;exitDx=0;exitDy=0;" parent="1" source="T6XiwdTETG_zGZlDO8Nx-89" target="yDUD_mWYsvDWhnTY4AmZ-11" edge="1">
          <mxGeometry relative="1" as="geometry" />
        </mxCell>
        <mxCell id="T6XiwdTETG_zGZlDO8Nx-89" value="Perfil" style="rounded=0;whiteSpace=wrap;html=1;" parent="1" vertex="1">
          <mxGeometry x="-411" y="510" width="120" height="60" as="geometry" />
        </mxCell>
        <mxCell id="T6XiwdTETG_zGZlDO8Nx-91" value="1" style="text;html=1;align=center;verticalAlign=middle;resizable=0;points=[];autosize=1;strokeColor=#005700;fillColor=#008a00;fontSize=11;fontFamily=Helvetica;fontColor=#ffffff;" parent="1" vertex="1">
          <mxGeometry x="-350" y="570" width="30" height="30" as="geometry" />
        </mxCell>
        <mxCell id="T6XiwdTETG_zGZlDO8Nx-94" style="edgeStyle=orthogonalEdgeStyle;rounded=0;orthogonalLoop=1;jettySize=auto;html=1;exitX=0.5;exitY=0;exitDx=0;exitDy=0;endArrow=none;endFill=0;" parent="1" source="T6XiwdTETG_zGZlDO8Nx-92" target="yDUD_mWYsvDWhnTY4AmZ-8" edge="1">
          <mxGeometry relative="1" as="geometry" />
        </mxCell>
        <mxCell id="T6XiwdTETG_zGZlDO8Nx-95" style="edgeStyle=orthogonalEdgeStyle;rounded=0;orthogonalLoop=1;jettySize=auto;html=1;exitX=0.5;exitY=1;exitDx=0;exitDy=0;endArrow=none;endFill=0;" parent="1" source="T6XiwdTETG_zGZlDO8Nx-92" target="T6XiwdTETG_zGZlDO8Nx-89" edge="1">
          <mxGeometry relative="1" as="geometry" />
        </mxCell>
        <mxCell id="T6XiwdTETG_zGZlDO8Nx-92" value="Possui" style="rhombus;whiteSpace=wrap;html=1;" parent="1" vertex="1">
          <mxGeometry x="-386" y="410" width="70" height="70" as="geometry" />
        </mxCell>
        <mxCell id="T6XiwdTETG_zGZlDO8Nx-96" value="N" style="text;html=1;align=center;verticalAlign=middle;resizable=0;points=[];autosize=1;strokeColor=#9673a6;fillColor=#e1d5e7;fontSize=11;fontFamily=Helvetica;" parent="1" vertex="1">
          <mxGeometry x="-350" y="480" width="30" height="30" as="geometry" />
        </mxCell>
        <mxCell id="T6XiwdTETG_zGZlDO8Nx-99" style="edgeStyle=orthogonalEdgeStyle;rounded=0;orthogonalLoop=1;jettySize=auto;html=1;exitX=0.5;exitY=0;exitDx=0;exitDy=0;endArrow=none;endFill=0;" parent="1" source="T6XiwdTETG_zGZlDO8Nx-98" target="yDUD_mWYsvDWhnTY4AmZ-3" edge="1">
          <mxGeometry relative="1" as="geometry" />
        </mxCell>
        <mxCell id="T6XiwdTETG_zGZlDO8Nx-102" style="edgeStyle=orthogonalEdgeStyle;rounded=0;orthogonalLoop=1;jettySize=auto;html=1;exitX=0.5;exitY=1;exitDx=0;exitDy=0;entryX=0.5;entryY=0;entryDx=0;entryDy=0;endArrow=none;endFill=0;" parent="1" target="T6XiwdTETG_zGZlDO8Nx-100" edge="1">
          <mxGeometry relative="1" as="geometry">
            <mxPoint x="129.99999999999955" y="992.4999999999995" as="sourcePoint" />
          </mxGeometry>
        </mxCell>
        <mxCell id="T6XiwdTETG_zGZlDO8Nx-107" style="edgeStyle=orthogonalEdgeStyle;shape=connector;rounded=0;orthogonalLoop=1;jettySize=auto;html=1;exitX=0.5;exitY=1;exitDx=0;exitDy=0;labelBackgroundColor=default;strokeColor=default;fontFamily=Helvetica;fontSize=11;fontColor=default;endArrow=none;endFill=0;" parent="1" source="T6XiwdTETG_zGZlDO8Nx-98" target="T6XiwdTETG_zGZlDO8Nx-100" edge="1">
          <mxGeometry relative="1" as="geometry" />
        </mxCell>
        <mxCell id="T6XiwdTETG_zGZlDO8Nx-98" value="Possui" style="rhombus;whiteSpace=wrap;html=1;" parent="1" vertex="1">
          <mxGeometry x="95" y="890" width="70" height="70" as="geometry" />
        </mxCell>
        <mxCell id="T6XiwdTETG_zGZlDO8Nx-100" value="Agendamento" style="rounded=0;whiteSpace=wrap;html=1;" parent="1" vertex="1">
          <mxGeometry x="70" y="1012.5" width="120" height="60" as="geometry" />
        </mxCell>
        <mxCell id="T6XiwdTETG_zGZlDO8Nx-103" value="N" style="text;html=1;align=center;verticalAlign=middle;resizable=0;points=[];autosize=1;strokeColor=#9673a6;fillColor=#e1d5e7;fontSize=11;fontFamily=Helvetica;" parent="1" vertex="1">
          <mxGeometry x="131" y="982.5" width="30" height="30" as="geometry" />
        </mxCell>
        <mxCell id="T6XiwdTETG_zGZlDO8Nx-110" style="edgeStyle=orthogonalEdgeStyle;shape=connector;rounded=0;orthogonalLoop=1;jettySize=auto;html=1;exitX=0.5;exitY=0;exitDx=0;exitDy=0;labelBackgroundColor=default;strokeColor=default;fontFamily=Helvetica;fontSize=11;fontColor=default;endArrow=none;endFill=0;" parent="1" source="T6XiwdTETG_zGZlDO8Nx-109" target="T6XiwdTETG_zGZlDO8Nx-100" edge="1">
          <mxGeometry relative="1" as="geometry" />
        </mxCell>
        <mxCell id="T6XiwdTETG_zGZlDO8Nx-111" style="edgeStyle=orthogonalEdgeStyle;shape=connector;rounded=0;orthogonalLoop=1;jettySize=auto;html=1;exitX=0;exitY=0.5;exitDx=0;exitDy=0;labelBackgroundColor=default;strokeColor=default;fontFamily=Helvetica;fontSize=11;fontColor=default;endArrow=none;endFill=0;entryX=0.75;entryY=1;entryDx=0;entryDy=0;" parent="1" source="T6XiwdTETG_zGZlDO8Nx-109" target="yDUD_mWYsvDWhnTY4AmZ-6" edge="1">
          <mxGeometry relative="1" as="geometry" />
        </mxCell>
        <mxCell id="T6XiwdTETG_zGZlDO8Nx-109" value="Possui" style="rhombus;whiteSpace=wrap;html=1;" parent="1" vertex="1">
          <mxGeometry x="95" y="1124" width="70" height="70" as="geometry" />
        </mxCell>
        <mxCell id="T6XiwdTETG_zGZlDO8Nx-112" value="1" style="text;html=1;align=center;verticalAlign=middle;resizable=0;points=[];autosize=1;strokeColor=#005700;fillColor=#008a00;fontSize=11;fontFamily=Helvetica;fontColor=#ffffff;" parent="1" vertex="1">
          <mxGeometry x="131" y="1072.5" width="30" height="30" as="geometry" />
        </mxCell>
        <mxCell id="T6XiwdTETG_zGZlDO8Nx-113" value="1" style="text;html=1;align=center;verticalAlign=middle;resizable=0;points=[];autosize=1;strokeColor=#005700;fillColor=#008a00;fontSize=11;fontFamily=Helvetica;fontColor=#ffffff;" parent="1" vertex="1">
          <mxGeometry x="-320" y="1120" width="30" height="30" as="geometry" />
        </mxCell>
        <mxCell id="T6XiwdTETG_zGZlDO8Nx-128" value="Especialidade" style="rounded=0;whiteSpace=wrap;html=1;" parent="1" vertex="1">
          <mxGeometry x="-1100" y="850" width="120" height="60" as="geometry" />
        </mxCell>
        <mxCell id="T6XiwdTETG_zGZlDO8Nx-130" style="edgeStyle=orthogonalEdgeStyle;shape=connector;rounded=0;orthogonalLoop=1;jettySize=auto;html=1;exitX=1;exitY=0.5;exitDx=0;exitDy=0;labelBackgroundColor=default;strokeColor=default;fontFamily=Helvetica;fontSize=11;fontColor=default;endArrow=none;endFill=0;" parent="1" source="T6XiwdTETG_zGZlDO8Nx-129" target="yDUD_mWYsvDWhnTY4AmZ-4" edge="1">
          <mxGeometry relative="1" as="geometry" />
        </mxCell>
        <mxCell id="T6XiwdTETG_zGZlDO8Nx-131" style="edgeStyle=orthogonalEdgeStyle;shape=connector;rounded=0;orthogonalLoop=1;jettySize=auto;html=1;exitX=0;exitY=0.5;exitDx=0;exitDy=0;labelBackgroundColor=default;strokeColor=default;fontFamily=Helvetica;fontSize=11;fontColor=default;endArrow=none;endFill=0;" parent="1" source="T6XiwdTETG_zGZlDO8Nx-129" target="T6XiwdTETG_zGZlDO8Nx-128" edge="1">
          <mxGeometry relative="1" as="geometry" />
        </mxCell>
        <mxCell id="T6XiwdTETG_zGZlDO8Nx-129" value="Possui" style="rhombus;whiteSpace=wrap;html=1;" parent="1" vertex="1">
          <mxGeometry x="-920" y="845" width="70" height="70" as="geometry" />
        </mxCell>
        <mxCell id="T6XiwdTETG_zGZlDO8Nx-132" value="1" style="text;html=1;align=center;verticalAlign=middle;resizable=0;points=[];autosize=1;strokeColor=#005700;fillColor=#008a00;fontSize=11;fontFamily=Helvetica;fontColor=#ffffff;" parent="1" vertex="1">
          <mxGeometry x="-980" y="850" width="30" height="30" as="geometry" />
        </mxCell>
        <mxCell id="T6XiwdTETG_zGZlDO8Nx-133" value="N" style="text;html=1;align=center;verticalAlign=middle;resizable=0;points=[];autosize=1;strokeColor=#9673a6;fillColor=#e1d5e7;fontSize=11;fontFamily=Helvetica;" parent="1" vertex="1">
          <mxGeometry x="-818" y="850" width="30" height="30" as="geometry" />
        </mxCell>
        <mxCell id="T6XiwdTETG_zGZlDO8Nx-134" value="Especialidade" style="shape=table;startSize=30;container=1;collapsible=1;childLayout=tableLayout;fixedRows=1;rowLines=0;fontStyle=1;align=center;resizeLast=1;html=1;fontFamily=Helvetica;fontSize=11;fontColor=default;" parent="1" vertex="1">
          <mxGeometry x="590" y="790" width="180" height="90" as="geometry" />
        </mxCell>
        <mxCell id="T6XiwdTETG_zGZlDO8Nx-135" style="shape=tableRow;horizontal=0;startSize=0;swimlaneHead=0;swimlaneBody=0;fillColor=none;collapsible=0;dropTarget=0;points=[[0,0.5],[1,0.5]];portConstraint=eastwest;top=0;left=0;right=0;bottom=1;fontFamily=Helvetica;fontSize=11;fontColor=default;" parent="T6XiwdTETG_zGZlDO8Nx-134" vertex="1">
          <mxGeometry y="30" width="180" height="30" as="geometry" />
        </mxCell>
        <mxCell id="T6XiwdTETG_zGZlDO8Nx-136" value="PK" style="shape=partialRectangle;connectable=0;fillColor=none;top=0;left=0;bottom=0;right=0;fontStyle=1;overflow=hidden;whiteSpace=wrap;html=1;fontFamily=Helvetica;fontSize=11;fontColor=default;" parent="T6XiwdTETG_zGZlDO8Nx-135" vertex="1">
          <mxGeometry width="30" height="30" as="geometry">
            <mxRectangle width="30" height="30" as="alternateBounds" />
          </mxGeometry>
        </mxCell>
        <mxCell id="T6XiwdTETG_zGZlDO8Nx-137" value="IdEspecialidade" style="shape=partialRectangle;connectable=0;fillColor=none;top=0;left=0;bottom=0;right=0;align=left;spacingLeft=6;fontStyle=5;overflow=hidden;whiteSpace=wrap;html=1;fontFamily=Helvetica;fontSize=11;fontColor=default;" parent="T6XiwdTETG_zGZlDO8Nx-135" vertex="1">
          <mxGeometry x="30" width="150" height="30" as="geometry">
            <mxRectangle width="150" height="30" as="alternateBounds" />
          </mxGeometry>
        </mxCell>
        <mxCell id="T6XiwdTETG_zGZlDO8Nx-147" style="shape=tableRow;horizontal=0;startSize=0;swimlaneHead=0;swimlaneBody=0;fillColor=none;collapsible=0;dropTarget=0;points=[[0,0.5],[1,0.5]];portConstraint=eastwest;top=0;left=0;right=0;bottom=1;fontFamily=Helvetica;fontSize=11;fontColor=default;" parent="T6XiwdTETG_zGZlDO8Nx-134" vertex="1">
          <mxGeometry y="60" width="180" height="30" as="geometry" />
        </mxCell>
        <mxCell id="T6XiwdTETG_zGZlDO8Nx-148" style="shape=partialRectangle;connectable=0;fillColor=none;top=0;left=0;bottom=0;right=0;fontStyle=1;overflow=hidden;whiteSpace=wrap;html=1;fontFamily=Helvetica;fontSize=11;fontColor=default;" parent="T6XiwdTETG_zGZlDO8Nx-147" vertex="1">
          <mxGeometry width="30" height="30" as="geometry">
            <mxRectangle width="30" height="30" as="alternateBounds" />
          </mxGeometry>
        </mxCell>
        <mxCell id="T6XiwdTETG_zGZlDO8Nx-149" value="&lt;span style=&quot;font-weight: normal;&quot;&gt;Titulo&lt;/span&gt;" style="shape=partialRectangle;connectable=0;fillColor=none;top=0;left=0;bottom=0;right=0;align=left;spacingLeft=6;fontStyle=5;overflow=hidden;whiteSpace=wrap;html=1;fontFamily=Helvetica;fontSize=11;fontColor=default;" parent="T6XiwdTETG_zGZlDO8Nx-147" vertex="1">
          <mxGeometry x="30" width="150" height="30" as="geometry">
            <mxRectangle width="150" height="30" as="alternateBounds" />
          </mxGeometry>
        </mxCell>
        <mxCell id="T6XiwdTETG_zGZlDO8Nx-150" value="FeedBack" style="rounded=0;whiteSpace=wrap;html=1;fontFamily=Helvetica;fontSize=11;fontColor=default;" parent="1" vertex="1">
          <mxGeometry x="-160" y="922.5" width="120" height="60" as="geometry" />
        </mxCell>
        <mxCell id="T6XiwdTETG_zGZlDO8Nx-153" style="edgeStyle=orthogonalEdgeStyle;shape=connector;rounded=0;orthogonalLoop=1;jettySize=auto;html=1;exitX=0;exitY=0.5;exitDx=0;exitDy=0;labelBackgroundColor=default;strokeColor=default;fontFamily=Helvetica;fontSize=11;fontColor=default;endArrow=none;endFill=0;" parent="1" source="T6XiwdTETG_zGZlDO8Nx-152" target="yDUD_mWYsvDWhnTY4AmZ-6" edge="1">
          <mxGeometry relative="1" as="geometry" />
        </mxCell>
        <mxCell id="T6XiwdTETG_zGZlDO8Nx-154" style="edgeStyle=orthogonalEdgeStyle;shape=connector;rounded=0;orthogonalLoop=1;jettySize=auto;html=1;exitX=0.5;exitY=0;exitDx=0;exitDy=0;entryX=0.5;entryY=1;entryDx=0;entryDy=0;labelBackgroundColor=default;strokeColor=default;fontFamily=Helvetica;fontSize=11;fontColor=default;endArrow=none;endFill=0;" parent="1" source="T6XiwdTETG_zGZlDO8Nx-152" target="T6XiwdTETG_zGZlDO8Nx-150" edge="1">
          <mxGeometry relative="1" as="geometry" />
        </mxCell>
        <mxCell id="T6XiwdTETG_zGZlDO8Nx-152" value="Possui" style="rhombus;whiteSpace=wrap;html=1;" parent="1" vertex="1">
          <mxGeometry x="-135" y="1055" width="70" height="70" as="geometry" />
        </mxCell>
        <mxCell id="T6XiwdTETG_zGZlDO8Nx-156" style="edgeStyle=orthogonalEdgeStyle;shape=connector;rounded=0;orthogonalLoop=1;jettySize=auto;html=1;exitX=0.5;exitY=1;exitDx=0;exitDy=0;labelBackgroundColor=default;strokeColor=default;fontFamily=Helvetica;fontSize=11;fontColor=default;endArrow=none;endFill=0;" parent="1" source="T6XiwdTETG_zGZlDO8Nx-155" target="T6XiwdTETG_zGZlDO8Nx-150" edge="1">
          <mxGeometry relative="1" as="geometry" />
        </mxCell>
        <mxCell id="T6XiwdTETG_zGZlDO8Nx-157" style="edgeStyle=orthogonalEdgeStyle;shape=connector;rounded=0;orthogonalLoop=1;jettySize=auto;html=1;exitX=0;exitY=0.5;exitDx=0;exitDy=0;entryX=1;entryY=0.5;entryDx=0;entryDy=0;labelBackgroundColor=default;strokeColor=default;fontFamily=Helvetica;fontSize=11;fontColor=default;endArrow=none;endFill=0;" parent="1" source="T6XiwdTETG_zGZlDO8Nx-155" target="yDUD_mWYsvDWhnTY4AmZ-5" edge="1">
          <mxGeometry relative="1" as="geometry" />
        </mxCell>
        <mxCell id="T6XiwdTETG_zGZlDO8Nx-155" value="Possui" style="rhombus;whiteSpace=wrap;html=1;" parent="1" vertex="1">
          <mxGeometry x="-135" y="755" width="70" height="70" as="geometry" />
        </mxCell>
        <mxCell id="T6XiwdTETG_zGZlDO8Nx-158" value="1" style="text;html=1;align=center;verticalAlign=middle;resizable=0;points=[];autosize=1;strokeColor=#005700;fillColor=#008a00;fontSize=11;fontFamily=Helvetica;fontColor=#ffffff;" parent="1" vertex="1">
          <mxGeometry x="-300" y="760" width="30" height="30" as="geometry" />
        </mxCell>
        <mxCell id="T6XiwdTETG_zGZlDO8Nx-159" value="N" style="text;html=1;align=center;verticalAlign=middle;resizable=0;points=[];autosize=1;strokeColor=#9673a6;fillColor=#e1d5e7;fontSize=11;fontFamily=Helvetica;" parent="1" vertex="1">
          <mxGeometry x="-100" y="892.5" width="30" height="30" as="geometry" />
        </mxCell>
        <mxCell id="T6XiwdTETG_zGZlDO8Nx-160" value="1" style="text;html=1;align=center;verticalAlign=middle;resizable=0;points=[];autosize=1;strokeColor=#005700;fillColor=#008a00;fontSize=11;fontFamily=Helvetica;fontColor=#ffffff;direction=south;" parent="1" vertex="1">
          <mxGeometry x="-289.5" y="1060" width="30" height="30" as="geometry" />
        </mxCell>
        <mxCell id="T6XiwdTETG_zGZlDO8Nx-161" value="1" style="text;html=1;align=center;verticalAlign=middle;resizable=0;points=[];autosize=1;strokeColor=#005700;fillColor=#008a00;fontSize=11;fontFamily=Helvetica;fontColor=#ffffff;" parent="1" vertex="1">
          <mxGeometry x="-100" y="982.5" width="30" height="30" as="geometry" />
        </mxCell>
        <mxCell id="T6XiwdTETG_zGZlDO8Nx-165" value="Clinica" style="rounded=0;whiteSpace=wrap;html=1;fontFamily=Helvetica;fontSize=11;fontColor=default;" parent="1" vertex="1">
          <mxGeometry x="400" y="1012.5" width="120" height="60" as="geometry" />
        </mxCell>
        <mxCell id="T6XiwdTETG_zGZlDO8Nx-172" style="edgeStyle=orthogonalEdgeStyle;shape=connector;rounded=0;orthogonalLoop=1;jettySize=auto;html=1;exitX=1;exitY=0.5;exitDx=0;exitDy=0;labelBackgroundColor=default;strokeColor=default;fontFamily=Helvetica;fontSize=11;fontColor=default;endArrow=none;endFill=0;" parent="1" source="T6XiwdTETG_zGZlDO8Nx-171" target="T6XiwdTETG_zGZlDO8Nx-165" edge="1">
          <mxGeometry relative="1" as="geometry" />
        </mxCell>
        <mxCell id="T6XiwdTETG_zGZlDO8Nx-173" style="edgeStyle=orthogonalEdgeStyle;shape=connector;rounded=0;orthogonalLoop=1;jettySize=auto;html=1;exitX=0;exitY=0.5;exitDx=0;exitDy=0;labelBackgroundColor=default;strokeColor=default;fontFamily=Helvetica;fontSize=11;fontColor=default;endArrow=none;endFill=0;" parent="1" source="T6XiwdTETG_zGZlDO8Nx-171" target="T6XiwdTETG_zGZlDO8Nx-100" edge="1">
          <mxGeometry relative="1" as="geometry" />
        </mxCell>
        <mxCell id="T6XiwdTETG_zGZlDO8Nx-171" value="Possui" style="rhombus;whiteSpace=wrap;html=1;" parent="1" vertex="1">
          <mxGeometry x="260" y="1007.5" width="70" height="70" as="geometry" />
        </mxCell>
        <mxCell id="T6XiwdTETG_zGZlDO8Nx-174" value="1" style="text;html=1;align=center;verticalAlign=middle;resizable=0;points=[];autosize=1;strokeColor=#005700;fillColor=#008a00;fontSize=11;fontFamily=Helvetica;fontColor=#ffffff;" parent="1" vertex="1">
          <mxGeometry x="371" y="1012.5" width="30" height="30" as="geometry" />
        </mxCell>
        <mxCell id="T6XiwdTETG_zGZlDO8Nx-175" value="N" style="text;html=1;align=center;verticalAlign=middle;resizable=0;points=[];autosize=1;strokeColor=#9673a6;fillColor=#e1d5e7;fontSize=11;fontFamily=Helvetica;" parent="1" vertex="1">
          <mxGeometry x="190" y="1012.5" width="30" height="30" as="geometry" />
        </mxCell>
        <mxCell id="T6XiwdTETG_zGZlDO8Nx-179" value="" style="edgeStyle=entityRelationEdgeStyle;fontSize=12;html=1;endArrow=ERoneToMany;rounded=0;labelBackgroundColor=default;strokeColor=default;fontFamily=Helvetica;fontColor=default;shape=connector;" parent="1" source="T6XiwdTETG_zGZlDO8Nx-135" target="T6XiwdTETG_zGZlDO8Nx-176" edge="1">
          <mxGeometry width="100" height="100" relative="1" as="geometry">
            <mxPoint x="670" y="737.5" as="sourcePoint" />
            <mxPoint x="791" y="812.5" as="targetPoint" />
          </mxGeometry>
        </mxCell>
        <mxCell id="T6XiwdTETG_zGZlDO8Nx-180" value="" style="edgeStyle=entityRelationEdgeStyle;fontSize=12;html=1;endArrow=ERoneToMany;rounded=0;labelBackgroundColor=default;strokeColor=default;fontFamily=Helvetica;fontColor=default;shape=connector;" parent="1" source="yDUD_mWYsvDWhnTY4AmZ-74" target="grmhktTUeF-EYpmDkwQf-14" edge="1">
          <mxGeometry width="100" height="100" relative="1" as="geometry">
            <mxPoint x="1420" y="25" as="sourcePoint" />
            <mxPoint x="1490" y="220" as="targetPoint" />
          </mxGeometry>
        </mxCell>
        <mxCell id="T6XiwdTETG_zGZlDO8Nx-185" value="Feedback" style="shape=table;startSize=30;container=1;collapsible=1;childLayout=tableLayout;fixedRows=1;rowLines=0;fontStyle=1;align=center;resizeLast=1;html=1;fontFamily=Helvetica;fontSize=11;fontColor=default;" parent="1" vertex="1">
          <mxGeometry x="1110" y="250" width="180" height="150" as="geometry" />
        </mxCell>
        <mxCell id="T6XiwdTETG_zGZlDO8Nx-205" style="shape=tableRow;horizontal=0;startSize=0;swimlaneHead=0;swimlaneBody=0;fillColor=none;collapsible=0;dropTarget=0;points=[[0,0.5],[1,0.5]];portConstraint=eastwest;top=0;left=0;right=0;bottom=1;fontFamily=Helvetica;fontSize=11;fontColor=default;" parent="T6XiwdTETG_zGZlDO8Nx-185" vertex="1">
          <mxGeometry y="30" width="180" height="30" as="geometry" />
        </mxCell>
        <mxCell id="T6XiwdTETG_zGZlDO8Nx-206" value="FK2" style="shape=partialRectangle;connectable=0;fillColor=none;top=0;left=0;bottom=0;right=0;fontStyle=1;overflow=hidden;whiteSpace=wrap;html=1;fontFamily=Helvetica;fontSize=11;fontColor=default;" parent="T6XiwdTETG_zGZlDO8Nx-205" vertex="1">
          <mxGeometry width="30" height="30" as="geometry">
            <mxRectangle width="30" height="30" as="alternateBounds" />
          </mxGeometry>
        </mxCell>
        <mxCell id="T6XiwdTETG_zGZlDO8Nx-207" value="IdConsulta" style="shape=partialRectangle;connectable=0;fillColor=none;top=0;left=0;bottom=0;right=0;align=left;spacingLeft=6;fontStyle=5;overflow=hidden;whiteSpace=wrap;html=1;fontFamily=Helvetica;fontSize=11;fontColor=default;" parent="T6XiwdTETG_zGZlDO8Nx-205" vertex="1">
          <mxGeometry x="30" width="150" height="30" as="geometry">
            <mxRectangle width="150" height="30" as="alternateBounds" />
          </mxGeometry>
        </mxCell>
        <mxCell id="T6XiwdTETG_zGZlDO8Nx-193" style="shape=tableRow;horizontal=0;startSize=0;swimlaneHead=0;swimlaneBody=0;fillColor=none;collapsible=0;dropTarget=0;points=[[0,0.5],[1,0.5]];portConstraint=eastwest;top=0;left=0;right=0;bottom=1;fontFamily=Helvetica;fontSize=11;fontColor=default;" parent="T6XiwdTETG_zGZlDO8Nx-185" vertex="1">
          <mxGeometry y="60" width="180" height="30" as="geometry" />
        </mxCell>
        <mxCell id="T6XiwdTETG_zGZlDO8Nx-194" value="FK1" style="shape=partialRectangle;connectable=0;fillColor=none;top=0;left=0;bottom=0;right=0;fontStyle=1;overflow=hidden;whiteSpace=wrap;html=1;fontFamily=Helvetica;fontSize=11;fontColor=default;" parent="T6XiwdTETG_zGZlDO8Nx-193" vertex="1">
          <mxGeometry width="30" height="30" as="geometry">
            <mxRectangle width="30" height="30" as="alternateBounds" />
          </mxGeometry>
        </mxCell>
        <mxCell id="T6XiwdTETG_zGZlDO8Nx-195" value="IdPaciente" style="shape=partialRectangle;connectable=0;fillColor=none;top=0;left=0;bottom=0;right=0;align=left;spacingLeft=6;fontStyle=5;overflow=hidden;whiteSpace=wrap;html=1;fontFamily=Helvetica;fontSize=11;fontColor=default;" parent="T6XiwdTETG_zGZlDO8Nx-193" vertex="1">
          <mxGeometry x="30" width="150" height="30" as="geometry">
            <mxRectangle width="150" height="30" as="alternateBounds" />
          </mxGeometry>
        </mxCell>
        <mxCell id="T6XiwdTETG_zGZlDO8Nx-186" style="shape=tableRow;horizontal=0;startSize=0;swimlaneHead=0;swimlaneBody=0;fillColor=none;collapsible=0;dropTarget=0;points=[[0,0.5],[1,0.5]];portConstraint=eastwest;top=0;left=0;right=0;bottom=1;fontFamily=Helvetica;fontSize=11;fontColor=default;" parent="T6XiwdTETG_zGZlDO8Nx-185" vertex="1">
          <mxGeometry y="90" width="180" height="30" as="geometry" />
        </mxCell>
        <mxCell id="T6XiwdTETG_zGZlDO8Nx-187" value="PK" style="shape=partialRectangle;connectable=0;fillColor=none;top=0;left=0;bottom=0;right=0;fontStyle=1;overflow=hidden;whiteSpace=wrap;html=1;fontFamily=Helvetica;fontSize=11;fontColor=default;" parent="T6XiwdTETG_zGZlDO8Nx-186" vertex="1">
          <mxGeometry width="30" height="30" as="geometry">
            <mxRectangle width="30" height="30" as="alternateBounds" />
          </mxGeometry>
        </mxCell>
        <mxCell id="T6XiwdTETG_zGZlDO8Nx-188" value="IdFeedback" style="shape=partialRectangle;connectable=0;fillColor=none;top=0;left=0;bottom=0;right=0;align=left;spacingLeft=6;fontStyle=5;overflow=hidden;whiteSpace=wrap;html=1;fontFamily=Helvetica;fontSize=11;fontColor=default;" parent="T6XiwdTETG_zGZlDO8Nx-186" vertex="1">
          <mxGeometry x="30" width="150" height="30" as="geometry">
            <mxRectangle width="150" height="30" as="alternateBounds" />
          </mxGeometry>
        </mxCell>
        <mxCell id="T6XiwdTETG_zGZlDO8Nx-189" style="shape=tableRow;horizontal=0;startSize=0;swimlaneHead=0;swimlaneBody=0;fillColor=none;collapsible=0;dropTarget=0;points=[[0,0.5],[1,0.5]];portConstraint=eastwest;top=0;left=0;right=0;bottom=1;fontFamily=Helvetica;fontSize=11;fontColor=default;" parent="T6XiwdTETG_zGZlDO8Nx-185" vertex="1">
          <mxGeometry y="120" width="180" height="30" as="geometry" />
        </mxCell>
        <mxCell id="T6XiwdTETG_zGZlDO8Nx-190" style="shape=partialRectangle;connectable=0;fillColor=none;top=0;left=0;bottom=0;right=0;fontStyle=1;overflow=hidden;whiteSpace=wrap;html=1;fontFamily=Helvetica;fontSize=11;fontColor=default;" parent="T6XiwdTETG_zGZlDO8Nx-189" vertex="1">
          <mxGeometry width="30" height="30" as="geometry">
            <mxRectangle width="30" height="30" as="alternateBounds" />
          </mxGeometry>
        </mxCell>
        <mxCell id="T6XiwdTETG_zGZlDO8Nx-191" value="&lt;span style=&quot;font-weight: normal;&quot;&gt;Comentario&lt;/span&gt;" style="shape=partialRectangle;connectable=0;fillColor=none;top=0;left=0;bottom=0;right=0;align=left;spacingLeft=6;fontStyle=1;overflow=hidden;whiteSpace=wrap;html=1;fontFamily=Helvetica;fontSize=11;fontColor=default;" parent="T6XiwdTETG_zGZlDO8Nx-189" vertex="1">
          <mxGeometry x="30" width="150" height="30" as="geometry">
            <mxRectangle width="150" height="30" as="alternateBounds" />
          </mxGeometry>
        </mxCell>
        <mxCell id="T6XiwdTETG_zGZlDO8Nx-192" value="" style="edgeStyle=entityRelationEdgeStyle;fontSize=12;html=1;endArrow=ERoneToMany;rounded=0;labelBackgroundColor=default;strokeColor=default;fontFamily=Helvetica;fontColor=default;shape=connector;" parent="1" source="yDUD_mWYsvDWhnTY4AmZ-87" target="VI1E0Y6XKXNliYmZKWCX-1" edge="1">
          <mxGeometry width="100" height="100" relative="1" as="geometry">
            <mxPoint x="430" y="330" as="sourcePoint" />
            <mxPoint x="550" y="270" as="targetPoint" />
          </mxGeometry>
        </mxCell>
        <mxCell id="T6XiwdTETG_zGZlDO8Nx-203" value="" style="edgeStyle=entityRelationEdgeStyle;fontSize=12;html=1;endArrow=ERoneToMany;rounded=0;labelBackgroundColor=default;strokeColor=default;fontFamily=Helvetica;fontColor=default;shape=connector;entryX=0;entryY=0.5;entryDx=0;entryDy=0;" parent="1" source="yDUD_mWYsvDWhnTY4AmZ-113" target="T6XiwdTETG_zGZlDO8Nx-193" edge="1">
          <mxGeometry width="100" height="100" relative="1" as="geometry">
            <mxPoint x="920" y="225" as="sourcePoint" />
            <mxPoint x="1280" y="240" as="targetPoint" />
          </mxGeometry>
        </mxCell>
        <mxCell id="VI1E0Y6XKXNliYmZKWCX-9" value="PlanoDeSaude" style="shape=table;startSize=30;container=1;collapsible=1;childLayout=tableLayout;fixedRows=1;rowLines=0;fontStyle=1;align=center;resizeLast=1;html=1;fontFamily=Helvetica;fontSize=11;fontColor=default;" parent="1" vertex="1">
          <mxGeometry x="570" y="570" width="180" height="90" as="geometry" />
        </mxCell>
        <mxCell id="VI1E0Y6XKXNliYmZKWCX-10" style="shape=tableRow;horizontal=0;startSize=0;swimlaneHead=0;swimlaneBody=0;fillColor=none;collapsible=0;dropTarget=0;points=[[0,0.5],[1,0.5]];portConstraint=eastwest;top=0;left=0;right=0;bottom=1;fontFamily=Helvetica;fontSize=11;fontColor=default;" parent="VI1E0Y6XKXNliYmZKWCX-9" vertex="1">
          <mxGeometry y="30" width="180" height="30" as="geometry" />
        </mxCell>
        <mxCell id="VI1E0Y6XKXNliYmZKWCX-11" value="PK" style="shape=partialRectangle;connectable=0;fillColor=none;top=0;left=0;bottom=0;right=0;fontStyle=1;overflow=hidden;whiteSpace=wrap;html=1;fontFamily=Helvetica;fontSize=11;fontColor=default;" parent="VI1E0Y6XKXNliYmZKWCX-10" vertex="1">
          <mxGeometry width="30" height="30" as="geometry">
            <mxRectangle width="30" height="30" as="alternateBounds" />
          </mxGeometry>
        </mxCell>
        <mxCell id="VI1E0Y6XKXNliYmZKWCX-12" value="IdPlanoDeSaude" style="shape=partialRectangle;connectable=0;fillColor=none;top=0;left=0;bottom=0;right=0;align=left;spacingLeft=6;fontStyle=5;overflow=hidden;whiteSpace=wrap;html=1;fontFamily=Helvetica;fontSize=11;fontColor=default;" parent="VI1E0Y6XKXNliYmZKWCX-10" vertex="1">
          <mxGeometry x="30" width="150" height="30" as="geometry">
            <mxRectangle width="150" height="30" as="alternateBounds" />
          </mxGeometry>
        </mxCell>
        <mxCell id="VI1E0Y6XKXNliYmZKWCX-13" style="shape=tableRow;horizontal=0;startSize=0;swimlaneHead=0;swimlaneBody=0;fillColor=none;collapsible=0;dropTarget=0;points=[[0,0.5],[1,0.5]];portConstraint=eastwest;top=0;left=0;right=0;bottom=1;fontFamily=Helvetica;fontSize=11;fontColor=default;" parent="VI1E0Y6XKXNliYmZKWCX-9" vertex="1">
          <mxGeometry y="60" width="180" height="30" as="geometry" />
        </mxCell>
        <mxCell id="VI1E0Y6XKXNliYmZKWCX-14" style="shape=partialRectangle;connectable=0;fillColor=none;top=0;left=0;bottom=0;right=0;fontStyle=1;overflow=hidden;whiteSpace=wrap;html=1;fontFamily=Helvetica;fontSize=11;fontColor=default;" parent="VI1E0Y6XKXNliYmZKWCX-13" vertex="1">
          <mxGeometry width="30" height="30" as="geometry">
            <mxRectangle width="30" height="30" as="alternateBounds" />
          </mxGeometry>
        </mxCell>
        <mxCell id="VI1E0Y6XKXNliYmZKWCX-15" value="&lt;span style=&quot;&quot;&gt;Titulo&lt;/span&gt;" style="shape=partialRectangle;connectable=0;fillColor=none;top=0;left=0;bottom=0;right=0;align=left;spacingLeft=6;fontStyle=0;overflow=hidden;whiteSpace=wrap;html=1;fontFamily=Helvetica;fontSize=11;fontColor=default;" parent="VI1E0Y6XKXNliYmZKWCX-13" vertex="1">
          <mxGeometry x="30" width="150" height="30" as="geometry">
            <mxRectangle width="150" height="30" as="alternateBounds" />
          </mxGeometry>
        </mxCell>
        <mxCell id="VI1E0Y6XKXNliYmZKWCX-19" value="" style="edgeStyle=entityRelationEdgeStyle;fontSize=12;html=1;endArrow=ERoneToMany;rounded=0;exitX=1;exitY=0.5;exitDx=0;exitDy=0;" parent="1" source="VI1E0Y6XKXNliYmZKWCX-10" target="VI1E0Y6XKXNliYmZKWCX-16" edge="1">
          <mxGeometry width="100" height="100" relative="1" as="geometry">
            <mxPoint x="910" y="600" as="sourcePoint" />
            <mxPoint x="1010" y="500" as="targetPoint" />
          </mxGeometry>
        </mxCell>
        <mxCell id="VI1E0Y6XKXNliYmZKWCX-20" value="PlanoDeSaude" style="rounded=0;whiteSpace=wrap;html=1;" parent="1" vertex="1">
          <mxGeometry x="-650" y="695" width="120" height="60" as="geometry" />
        </mxCell>
        <mxCell id="VI1E0Y6XKXNliYmZKWCX-22" style="edgeStyle=orthogonalEdgeStyle;rounded=0;orthogonalLoop=1;jettySize=auto;html=1;exitX=0;exitY=0.5;exitDx=0;exitDy=0;entryX=1;entryY=0.5;entryDx=0;entryDy=0;endArrow=none;endFill=0;" parent="1" source="VI1E0Y6XKXNliYmZKWCX-21" target="VI1E0Y6XKXNliYmZKWCX-20" edge="1">
          <mxGeometry relative="1" as="geometry" />
        </mxCell>
        <mxCell id="VI1E0Y6XKXNliYmZKWCX-23" style="edgeStyle=orthogonalEdgeStyle;rounded=0;orthogonalLoop=1;jettySize=auto;html=1;exitX=1;exitY=0.5;exitDx=0;exitDy=0;endArrow=none;endFill=0;" parent="1" source="VI1E0Y6XKXNliYmZKWCX-21" target="yDUD_mWYsvDWhnTY4AmZ-5" edge="1">
          <mxGeometry relative="1" as="geometry">
            <Array as="points">
              <mxPoint x="-420" y="730" />
              <mxPoint x="-420" y="785" />
              <mxPoint x="-430" y="785" />
              <mxPoint x="-430" y="790" />
            </Array>
          </mxGeometry>
        </mxCell>
        <mxCell id="VI1E0Y6XKXNliYmZKWCX-21" value="Possui" style="rhombus;whiteSpace=wrap;html=1;" parent="1" vertex="1">
          <mxGeometry x="-500" y="695" width="70" height="70" as="geometry" />
        </mxCell>
        <mxCell id="VI1E0Y6XKXNliYmZKWCX-24" value="1" style="text;html=1;align=center;verticalAlign=middle;resizable=0;points=[];autosize=1;strokeColor=#005700;fillColor=#008a00;fontSize=11;fontFamily=Helvetica;fontColor=#ffffff;" parent="1" vertex="1">
          <mxGeometry x="-530" y="700" width="30" height="30" as="geometry" />
        </mxCell>
        <mxCell id="VI1E0Y6XKXNliYmZKWCX-25" value="N" style="text;html=1;align=center;verticalAlign=middle;resizable=0;points=[];autosize=1;strokeColor=#9673a6;fillColor=#e1d5e7;fontSize=11;fontFamily=Helvetica;" parent="1" vertex="1">
          <mxGeometry x="-441" y="790" width="30" height="30" as="geometry" />
        </mxCell>
        <mxCell id="grmhktTUeF-EYpmDkwQf-10" value="" style="edgeStyle=entityRelationEdgeStyle;fontSize=12;html=1;endArrow=ERoneToMany;rounded=0;labelBackgroundColor=default;strokeColor=default;fontFamily=Helvetica;fontColor=default;shape=connector;entryX=0;entryY=0.5;entryDx=0;entryDy=0;exitX=1;exitY=0.5;exitDx=0;exitDy=0;" parent="1" source="T6XiwdTETG_zGZlDO8Nx-76" target="yDUD_mWYsvDWhnTY4AmZ-196" edge="1">
          <mxGeometry width="100" height="100" relative="1" as="geometry">
            <mxPoint x="850" y="227.5" as="sourcePoint" />
            <mxPoint x="920" y="92.5" as="targetPoint" />
          </mxGeometry>
        </mxCell>
        <mxCell id="grmhktTUeF-EYpmDkwQf-11" value="" style="edgeStyle=entityRelationEdgeStyle;fontSize=12;html=1;endArrow=ERoneToMany;rounded=0;labelBackgroundColor=default;strokeColor=default;fontFamily=Helvetica;fontColor=default;shape=connector;entryX=0;entryY=0.5;entryDx=0;entryDy=0;" parent="1" source="T6XiwdTETG_zGZlDO8Nx-76" target="yDUD_mWYsvDWhnTY4AmZ-202" edge="1">
          <mxGeometry width="100" height="100" relative="1" as="geometry">
            <mxPoint x="760" y="415" as="sourcePoint" />
            <mxPoint x="1050" y="95" as="targetPoint" />
          </mxGeometry>
        </mxCell>
        <mxCell id="grmhktTUeF-EYpmDkwQf-12" value="" style="edgeStyle=entityRelationEdgeStyle;fontSize=12;html=1;endArrow=ERoneToMany;rounded=0;labelBackgroundColor=default;strokeColor=default;fontFamily=Helvetica;fontColor=default;shape=connector;entryX=0;entryY=0.5;entryDx=0;entryDy=0;" parent="1" source="T6XiwdTETG_zGZlDO8Nx-76" target="yDUD_mWYsvDWhnTY4AmZ-214" edge="1">
          <mxGeometry width="100" height="100" relative="1" as="geometry">
            <mxPoint x="770" y="510" as="sourcePoint" />
            <mxPoint x="880" y="505" as="targetPoint" />
          </mxGeometry>
        </mxCell>
        <mxCell id="grmhktTUeF-EYpmDkwQf-13" value="" style="edgeStyle=entityRelationEdgeStyle;fontSize=12;html=1;endArrow=ERoneToMany;rounded=0;labelBackgroundColor=default;strokeColor=default;fontFamily=Helvetica;fontColor=default;shape=connector;exitX=0;exitY=0.5;exitDx=0;exitDy=0;" parent="1" source="yDUD_mWYsvDWhnTY4AmZ-126" target="T6XiwdTETG_zGZlDO8Nx-205" edge="1">
          <mxGeometry width="100" height="100" relative="1" as="geometry">
            <mxPoint x="1250" y="295" as="sourcePoint" />
            <mxPoint x="1420" y="425" as="targetPoint" />
          </mxGeometry>
        </mxCell>
        <mxCell id="ETGEkhIVYqFLGE7STsI0-5" value="" style="edgeStyle=entityRelationEdgeStyle;fontSize=12;html=1;endArrow=ERmandOne;startArrow=ERmandOne;rounded=0;entryX=0;entryY=0.5;entryDx=0;entryDy=0;" edge="1" parent="1" source="yDUD_mWYsvDWhnTY4AmZ-113" target="ETGEkhIVYqFLGE7STsI0-1">
          <mxGeometry width="100" height="100" relative="1" as="geometry">
            <mxPoint x="1070" y="545" as="sourcePoint" />
            <mxPoint x="1170" y="445" as="targetPoint" />
          </mxGeometry>
        </mxCell>
      </root>
    </mxGraphModel>
  </diagram>
</mxfile>
